<?xml version="1.0" encoding="utf-8"?>
<!-- Generator: Adobe Illustrator 23.0.3, SVG Export Plug-In . SVG Version: 6.00 Build 0)  -->
<svg version="1.1" id="OBJECTS" xmlns="http://www.w3.org/2000/svg" xmlns:xlink="http://www.w3.org/1999/xlink" x="0px" y="0px"
	 viewBox="0 0 222.1 72.6" style="enable-background:new 0 0 222.1 72.6;" xml:space="preserve">
<style type="text/css">
	.st0{fill:#567968;}
</style>
<g>
	<path class="st0" d="M210.8,27.6c0.3-0.2,0.7-0.4,1-0.5c0.4-0.1,0.8-0.2,1.3-0.1c-0.3,0.2-0.6,0.4-1,0.6c0.6,0,1.2,0,1.6,0
		c0.1,0.3,0.2,0.6,0.3,0.9c-0.6,0.2-1.1,0.4-1.7,0.6c0,0.1,0,0.3,0.1,0.4c0.4-0.1,0.8-0.2,1.4-0.3c-0.2,0.2-0.3,0.3-0.4,0.4
		c1,0.7,0.5,1.3-0.2,2c0.8-0.5,1.4-0.9,2.1-1.2c0,0.4,0,0.6,0,1.1c-0.2,0.2-0.6,0.4-0.9,0.6c0,0.1,0,0.2,0.1,0.2
		c0.6-0.3,1.3-0.6,1.9-0.8c0,0.1,0,0.1,0.1,0.2c-0.6,0.3-1.2,0.7-1.8,1c0,0.1,0,0.2,0.1,0.3c0.6-0.2,1.2-0.5,1.8-0.7
		c0,0.1,0,0.2,0,0.2c-0.5,0.3-1.1,0.5-1.7,0.8c0.1,0.2,0.3,0.5,0.5,0.7c0,0.1,0,0.3,0,0.5c0.3-0.1,0.6-0.1,1-0.2
		c0,0.1,0.1,0.3,0.2,0.4l0,0c-0.2,1-0.7,1-1.3,0.8c0.3-0.2,0.6-0.4,0.9-0.7c-0.5,0-1-0.3-1.1,0.9c0,0.2-0.3,0.3-0.5,0.5
		c0,0.1,0,0.3-0.1,0.5c0.7-0.1,1.5-0.1,2.4-0.2c0,0.1,0,0.1,0,0.2c-0.3,0.1-0.7,0.2-1,0.3c0,0.1,0,0.1,0,0.2c0.3,0,0.5,0.1,0.9,0.1
		c-0.3,0.2-0.5,0.3-0.8,0.5c0.1,0.2,0.2,0.3,0.3,0.4c-0.1,0.2-0.3,0.4-0.5,0.7c0.5-0.1,0.8-0.1,1.3-0.2c-0.1,0.3-0.2,0.4-0.3,0.6
		c0.5,0,0.8,0,1.2,0c0,0.1,0,0.2,0,0.2c-0.4,0-0.7,0.1-1.1,0.1c0,0.1,0,0.1,0,0.2c0.5,0.1,1.1,0.2,1.7,0.2c-0.1,0.2-0.3,0.4-0.5,0.6
		c0.2,0,0.4,0,0.5-0.1c-0.4,0.4-0.7,1.3-1.5,0.7c0.2-0.1,0.4-0.1,0.5-0.2c0-0.1-0.1-0.1-0.1-0.2c-0.8,0-1.4,0.7-1.9,1.5
		c0,0.1,0.1,0.1,0.1,0.2c0.1-0.1,0.2-0.3,0.3-0.4c0.1-0.1,0.3-0.2,0.4-0.3c0.2-0.1,0.3-0.3,0.5-0.4c0,0.3,0.1,0.7,0.2,1.4
		c0.2-0.3,0.3-0.5,0.4-0.6c0.3-0.1,0.7-0.2,0.9,0c0.2,0.2,0.2,0.8,0.2,1.2c0,0.2-0.2,0.4-0.3,0.5c0-0.2,0-0.4,0.1-0.6
		c-0.2,0-0.4,0.1-0.7,0.1c0,0.5,0,0.9,0,1.4c-0.1,0.2-0.2,0.5-0.3,0.8c-0.1,0.3-0.3,0.5-0.4,0.7c0-0.2,0-0.5,0-0.7
		c-0.1-0.2-0.2-0.4-0.3-0.6c-0.3,0.2-0.5,0.3-0.8,0.5c-0.1-0.2-0.2-0.4-0.3-0.6c-1.4,1.2-2.8,1.3-4.3,1.8c0.2,0,0.4,0,0.6,0
		c0,0.1,0,0.1,0,0.2c-0.4,0.5-1-0.2-1.4,0.3c0,0.1,0,0.1,0,0.2c0.3,0,0.5,0,0.7,0.1c0,0.3,0,0.4,0,0.6c-0.2-0.7-0.6-0.1-0.9-0.2
		c-0.4-0.2-0.9,0.1-1.4,0.1c-0.1,0-0.3,0-0.3-0.1c0-0.6-0.3-0.3-0.4-0.3c-0.4,0-0.9,0.1-1.3,0.1c0,0-0.1,0.1-0.1,0.1
		c0.1,0.1,0.1,0.3,0.2,0.4c-0.1,0.1-0.2,0.1-0.3,0.2c0.2,0.2,0.4,0.3,0.5,0.3c0.5-0.2,0.9,0.2,1.2,0.7c0.2,0.3,0.2,0.4,0.5,0.2
		c0.2-0.1,0.3-0.3,0.3,0.2c-0.3,0.2-0.5,0.3-0.8,0.5c0,0.1,0,0.1,0,0.2c0.3,0,0.7,0,1.1,0c-0.2-0.3-0.2-0.5-0.3-0.7
		c0.2-0.2,0.5-0.4,0.7-0.6c0.1,0.3,0.2,0.5,0.4,0.8c-0.2,0.1-0.3,0.2-0.5,0.2c0,0,0,0.1,0,0.1c0.2,0,0.4,0,0.7,0
		c0-0.1,0-0.2-0.1-0.3c0.6-0.2,1.1-0.3,1.7-0.5c0-0.1,0-0.2,0-0.3c-0.2,0-0.3,0-0.5,0c-0.1,0-0.2-0.2-0.3-0.4c0.4-0.3,0-0.5,0-0.8
		c0.1-0.2,0.2-0.5,0.3-0.9c0.1,0.4,0.1,0.6,0.1,0.8c0,0.3,0,0.6,0,0.9c0.3,0,0.5-0.1,0.7-0.1c0-0.1,0-0.1,0-0.2
		c-0.2-0.1-0.4-0.1-0.6-0.2c0.4-0.2,0.8-0.4,1.1-0.6c0.1,0.2,0.1,0.3,0.2,0.4c0.1-0.1,0.2-0.2,0.2-0.3c0.1-0.4,0.1-0.7,0.1-1.2
		c-0.4,0-0.7,0.1-1,0.1c0.1-0.4,0.5-0.7,1-0.4c0.2,0.1,0.2,0.5,0.4,0.9c0.2-0.2,0.5-0.4,0.8-0.6c0,0.1,0,0.3,0,0.2
		c0.4-0.1,0.8-0.2,1.2-0.3c0,0,0-0.1-0.1-0.3c0.1,0.1,0.2,0.3,0.4,0.5c0.1,0,0.2-0.1,0.3-0.2c-0.1,0.2-0.2,0.5-0.4,0.9
		c0.2,0,0.4-0.1,0.6-0.1c0.1,0.9-0.1,1.7-0.7,2c0.1,0,0.2,0,0.4,0.1c-0.1,0.2-0.3,0.4-0.4,0.5c0.7,0.2,1.4,0.3,2.2,0.5
		c-0.2,0.3-0.2,0.4-0.3,0.7c0.2,0,0.3,0,0.4,0c0,0.1,0,0.1,0.1,0.2c-0.3,0.2-0.5,0.5-0.8,0.6c-0.6,0.1-0.8,0.5-0.8,1.3
		c0,0.2,0,0.4,0,0.5c-0.6,0.6-1.1,1.2-1.6,1.8c0,0,0,0.1,0,0.1c0.2-0.1,0.4-0.2,0.6-0.3c0,0.4,0,0.7,0.1,1.2
		c-0.2-0.1-0.4-0.1-0.6-0.2c0.2,0.3,0.3,0.4,0.4,0.7c-0.2-0.1-0.4-0.1-0.5-0.1c-0.1,0-0.3,0-0.3,0c-0.2,0.9-0.8,0.6-1.2,1
		c0.2,0.1,0.3,0.1,0.3,0.1c-0.2,0.3-0.4,0.6-0.7,0.9c-0.4,0.5-0.8,0.5-1.2,0.2c-0.6-0.4-0.9,0.2-1.5,0.2c0.2,0.2,0.4,0.3,0.7,0.5
		c-0.5-0.1-0.9-0.2-1.2-0.3c-0.2,0.4-0.3,0.7-0.5,1c0.1,0.2,0.3,0.4,0.5,0.6c-0.4,0-0.7-0.2-0.7-0.7c-0.2-0.1-0.4-0.2-0.6-0.3
		c0-0.1,0-0.1,0-0.2c-0.4,0.3-0.9,0.5-1.3,0.8c0,0.1,0,0.1,0,0.2c0.5,0,1.1,0,1.6,0c0,0,0,0.1,0,0.1c-0.7,0.1-1.3,0.2-2,0.3
		c0,0.2,0.1,0.2,0.2,0.2c0.6-0.1,1.2-0.1,1.8-0.2c0.3,0,0.6-0.2,0.9-0.3c0.1-0.1,0.2-0.3,0.3-0.4c0,0,0.1,0.1,0.1,0.1
		c-0.1,0.1-0.1,0.3-0.2,0.4c0.9,0.4,1.8-0.1,1.8-1c0.2,0.1,0.4,0.2,0.7,0.4c-0.2,0.1-0.3,0.2-0.5,0.3c0.1,0.2,0.2,0.3,0.4,0.5
		c-0.2,0.1-0.4,0.1-0.6,0.2c0-0.1-0.1-0.3-0.1-0.3c-0.3,0.1-0.6,0.2-0.9,0.3c-0.3,0.1-0.7,0.2-1,0.3c0,0.1,0,0.2,0,0.3
		c0.6-0.1,1.2-0.3,1.8-0.4c-0.2,0.2-0.4,0.6-0.7,0.7c-0.7,0.2-1.5,0.3-2.3,0.3c-0.3,0-0.6-0.5-1,0c-0.1,0.2-0.4,0.2-0.6,0.4
		c-0.1,0-0.4-0.1-0.7-0.2c-0.1,0.4-0.1,0.8-0.2,1.1c0,0-0.1,0-0.1,0c0-0.3,0-0.5-0.1-0.9c-0.5,0.2-0.9,0.3-1.5,0
		c-0.4-0.3-1,0.1-1.5,0.4c0.4,0,0.8-0.1,1.2-0.1c0,0.1,0,0.1,0,0.2c-0.4,0.1-0.7,0.4-1.1,0.4c-1.5,0.2-3,0.3-4.6,0.5
		c-0.7,0.1-1.3,0.3-2,0.4c-0.4,0.1-0.7-0.1-1.1-0.1c-0.7,0-1.4,0-2.1,0c-0.8,0.1-1.5,0.2-2.3,0.3c-1.2,0.1-2.3,0.3-3.5,0.4
		c0,0.1,0.1,0.3,0.1,0.4c-0.1,0.1-0.1,0.1-0.1,0.1c-0.5-0.2-1-0.5-1.6-0.2c-0.6,0.3-1.3,0.1-2,0.2c-0.7,0.1-1.5,0.3-2.2,0.3
		c-1.3,0.1-2.5,0.1-3.8,0.1c-0.4,0-0.9,0-1.3,0c-0.2,0-0.4,0-0.5-0.2c1-0.1,2-0.2,3-0.3c0-0.1,0-0.1,0-0.2c-0.6,0-1.2,0-1.8,0
		c0-0.1,0-0.1,0-0.2c0.5-0.1,1-0.3,1.4-0.4c0.8-0.1,1.6-0.3,2.4-0.3c0.6,0,1.2,0.1,1.8,0.1c0.1,0,0.2,0,0.3,0
		c0.8-0.5,1.6-0.5,2.4-0.6c0,0,0.1-0.1,0.1-0.1c-0.2-0.1-0.3-0.3-0.5-0.4c0-0.1,0.1-0.2,0.1-0.3c-2.9,0.1-5.7,0.3-8.6,0.4
		c0,0.1,0,0.1,0,0.2c1.2,0,2.4,0,3.6,0c-3.7,0.6-7.3,0.6-11,0.2c0-0.1,0-0.1,0-0.2c1.4,0,2.8,0,4.2,0c0-0.1,0-0.2,0-0.3
		c-1,0-2,0-3,0c-0.8,0-1.6,0.2-2.4,0.2c-0.4,0-0.9,0.1-1.3,0.1c-1.2,0-2.3,0-3.5,0.1c-0.1,0-0.3,0.2-0.5,0.4c0.8-0.2,1.4-0.3,2-0.4
		c0,0,0,0.1,0,0.1c-0.3,0.1-0.5,0.2-0.8,0.3c0,0.1,0,0.2,0.1,0.3c0.2-0.1,0.4-0.2,0.6-0.1c0.5,0,0.9,0.1,1.4,0.2c0,0.4,0,0.8,0,1.3
		c0.5-0.2,1.1-0.5,1.6-0.7c0-0.1,0-0.1,0-0.2c-0.4,0-0.8,0-1.1,0c0-0.1,0-0.1,0-0.2c0.2-0.1,0.4-0.3,0.5-0.3c1.1,0,2.1,0,3.2,0.1
		c0.9,0.1,1.7,0.3,2.6,0.3c0.5,0,1.1,0.1,1.6-0.4c0.2-0.2,0.8,0.3,1.2,0.4c0,0.1,0,0.2,0,0.2c-0.1,0.1-0.2,0.1-0.3,0.2
		c0.1,0.2,0.2,0.3,0.4,0.5c-0.2,0.1-0.3,0.1-0.5,0.2c0.2,0.3,0.4,0.5,0.6,0.7c-0.1,0.1-0.3,0.2-0.5,0.3c0,0.1,0,0.1,0,0.2
		c0.6,0,1.1,0,1.7,0c0-0.1,0-0.1,0-0.2c-0.2-0.1-0.5-0.2-0.7-0.3c1.2-0.4,2.3-0.6,3.5,0c-0.2,0-0.3,0.1-0.5,0.1
		c0.1,0.4,0.1,0.4,1.6,0.2c-0.2,0-0.3,0-0.5-0.1c-0.1,0-0.3-0.1-0.4-0.1c0-0.1,0-0.2,0-0.2c0.7,0,1.5,0,2.3,0
		c-0.1,0.1-0.2,0.2-0.3,0.3c0.1,0.2,0.2,0.3,0.3,0.4c0,0.1,0,0.1,0,0.2c-0.6,0.1-1.2,0.1-1.8,0.2c0,0.1,0.1,0.2,0.2,0.5
		c-0.3-0.1-0.5-0.2-0.7-0.2c-0.1-0.2-0.1-0.5-0.2-0.5c-0.4,0-0.9-0.2-1.3,0c-0.9,0.7-1.8-0.1-2.7-0.1c-1,0.1-2,0.1-3,0.1
		c-0.7,0-1.4,0.3-2,0c-0.5-0.2-0.8-0.1-1.3,0.1c0.2,0.2,0.3,0.3,0.4,0.4c0,0.1,0,0.1,0,0.2c-1.1-0.1-2.2-0.3-3.3-0.4
		c0.2-0.1,0.4-0.3,0.5-0.4c0-0.1-0.1-0.2-0.1-0.2c-0.7,0.2-1.5,0.3-2.1,0.7c-0.6,0.3-1.2,0.4-1.8,0.5c-0.1,0-0.1-0.1-0.2-0.2
		c0.2-0.1,0.4-0.1,0.5-0.1c0-0.1,0-0.1,0-0.2c-0.6,0-1.3-0.3-1.9-0.1c-1.4,0.4-2.7,0.1-4-0.2c-0.5-0.1-1.1-0.5-1.6,0.4
		c-0.1,0.1-0.3,0.1-0.4,0c-0.5-0.6-1,0.2-1.4,0.1c-0.2-0.1-0.5,0.1-0.7,0.2c0-0.1,0-0.2,0-0.3c0.5-0.2,0.9-0.4,1.4-0.6
		c0,0,0-0.1,0-0.1c-0.2,0-0.4,0-0.6,0c-0.2,0-0.4,0.1-0.7,0.1c1.3-1.1,2.7-0.2,4.1-0.6c-0.3,0-0.6,0-0.8-0.1c-0.3,0-0.5-0.1-0.8-0.2
		c0-0.1,0-0.1,0-0.2c1.2-0.1,2.4-0.2,3.5-0.3c0-0.1,0-0.2,0-0.2c-0.1,0-0.2-0.1-0.3-0.1c0-0.1,0-0.1,0-0.2c0.2,0,0.4-0.1,0.6-0.1
		c0.2,0,0.5,0,0.7-0.2c-0.5-0.1-1-0.2-1.5-0.3c-0.7-0.1-1.4-0.1-2.1,0c-0.2,0-0.9-0.4-0.6,0.7c0,0-0.2,0.3-0.2,0.3
		c-0.2,0-0.6-0.2-0.6-0.2c0-0.5-0.2-0.3-0.3-0.3c-0.4,0-0.8,0.1-1.1,0.1c-0.1,0-0.2-0.1-0.4-0.2c0.8-0.1,1.6-0.3,2.4-0.4
		c0-0.1,0-0.2,0-0.3c-1.1,0.1-2.3-0.2-3.4,0.8c0.3,0,0.5,0,0.8,0c-0.5,0.3-0.9,0.7-1.5,0.4c-0.6-0.3-1.2-0.4-1.8,0
		c-0.1,0.1-0.3,0.1-0.5,0.1c0.2-0.2,0.4-0.4,0.5-0.5c0,0,0-0.1-0.1-0.1c-0.4,0.2-0.9,0.6-1.3,0.5c-0.3-0.1-0.6-0.1-0.9-0.1
		c-0.7,0.1-1.4,0.2-2.1,0.3c-0.8,0.1-1.6,0-2.3,0.1c-0.4,0-0.7,0.1-1-0.2c0,0-0.1,0.1-0.3,0.1c0.2,0.1,0.4,0.2,0.5,0.2
		c0,0.1,0,0.1,0,0.2c-2.4-0.7-4.8-0.4-7.2-0.4c0,0.1,0,0.2,0,0.3c0.3,0,0.7,0,1.1,0c-0.6,1-1.2-0.1-1.7,0.2c0.1-0.1,0.2-0.2,0.3-0.3
		c0-0.1,0-0.1,0-0.2c-1.6,0.2-3.1,0.3-4.7,0.5c0,0,0,0.1,0,0.1c-0.2-0.1-0.3-0.3-0.5-0.3c-0.6,0-1.2,0-1.7,0c-0.6,0-1.2,0.2-1.7,0.1
		c-0.8-0.1-1.5-0.3-2.3-0.3c-0.3,0-0.7,0-0.9,0.3c-0.6,0.5-1.2,0.4-1.9,0c0.3-0.1,0.4-0.2,0.5-0.2c0,0,0-0.1,0-0.1
		c-0.3,0.1-0.5,0.1-0.9,0.2c0.1,0.2,0.2,0.2,0.3,0.3c-0.1,0.1-0.2,0.3-0.3,0.3c-0.4-0.1-0.8-0.2-1.1-0.3c-0.2,0-0.4,0.3-0.6,0.3
		c-0.8,0.2-1.5,0.5-2.3,0.7c-0.3,0.1-0.6,0.1-0.8,0.2c-0.1,0-0.1,0.2-0.1,0.2c-0.4,0-0.6,0-0.9,0c-0.4,0.1-0.8,0.3-1.1,0.3
		c-0.1,0-0.3-0.2-0.4-0.5c0.3,0,0.6,0,0.8,0c0,0,0-0.1,0-0.1c-0.1,0-0.3-0.1-0.5-0.1c0.4-0.3,0.7-0.5,1-0.7c0-0.1,0-0.2,0-0.3
		c-0.6,0-1.2,0-1.8,0c0,0,0.1-0.1,0.3-0.2c-0.8,0.1-1.6,0.2-2.3,0.3c-0.4,0-0.8-0.2-1.1-0.1c-0.7,0.1-1.3-0.4-1.9-0.3
		c-0.7,0.1-1.4,0.4-2.1,0.5c-0.6,0.1-1.2,0.2-1.8,0.3c-0.9,0.2-1.9,0.4-2.9,0.7c0.2,0,0.5,0.1,0.7,0.1c0,0.1,0,0.1,0,0.2
		c-0.8,0.1-1.5,0.2-2.3,0.3c0,0.1,0.1,0.2,0.2,0.3c-0.3,0.3-0.5,0.5-0.8,0.8c0,0.1,0.1,0.1,0.2,0.4c-0.7-0.2-1.4-0.3-2.1-0.5
		c0.3-0.1,0.5-0.2,0.7-0.3c0-0.1,0-0.1,0-0.2c-0.5-0.2-1.1-0.3-1.6-0.5c0,0.1-0.1,0.2-0.1,0.3c0.2,0.2,0.4,0.4,0.6,0.6
		c-0.2,0.1-0.4,0.2-0.6,0.2c-0.3,0-0.6-0.1-0.9-0.1c0.2-0.2,0.5-0.4,0.7-0.6c-0.4-1.1-0.9-0.4-1.4-0.3c-0.2,0-0.4,0.1-0.7,0.2
		c-0.1,0.8-1.7,0.8-2.2,0c1,0.7,1.8-0.2,2.7-0.4c-1.3-0.1-2.6,0-3.9-0.2c0-0.1,0-0.2,0-0.2c0.8,0,1.7,0,2.5,0c0,0,0-0.1,0-0.1
		c-0.1,0-0.2-0.1-0.4-0.1c0-0.1,0-0.1,0-0.2c0.5-0.5,1.2,0.2,1.8-0.4c-0.2,0.6-0.4,1,0.1,1c0.2,0,0.5,0,0.7,0.1
		c0.6,0.1,0.8-0.3,0.8-1.2c-0.4-0.1-0.8-0.1-1.2-0.2c2.1-0.1,4.1-0.9,6.2-1.5c-0.8-0.7-1.8-0.2-2.6-0.3c-0.9-0.1-1.7,0.1-2.7,0.2
		c0.4,0.3,0.7,0.5,1,0.8c0,0.1,0,0.2-0.1,0.3c-1.1-1.4-2.4-1-3.6-1.1c0,0.5,0.6-0.1,0.4,0.7l0,0c-0.4-0.1-0.7-0.3-1.1-0.4
		c0.1-0.1,0.1-0.2,0.2-0.2c-0.4,0.4-1-0.8-1.4,0.2c0,0-0.1,0.1-0.1,0.1c-0.5-0.5-1.1-0.2-1.6-0.2c-0.6,0-1.2,0.1-1.8,0.1
		c-1.1,0-2.2,0-3.3,0c-0.2,0-0.5-0.2-0.6,0.3c-0.1,0.2-0.5,0.1-0.8,0c-0.5-0.3-1,0-1.4,0.3c-0.4-0.7-0.8-0.2-1.2-0.2
		c0,0.1,0,0.1,0,0.2c0.4,0,0.8,0,1.2,0c0.3,0,0.7,0.1,1,0.1c0.1,0,0.3,0,0.4,0c0.1,0,0.1,0.2,0.2,0.3c-0.1,0.1-0.1,0.2-0.2,0.3
		c-0.2,0.1-0.5-0.2-0.6,0.5c0,0-0.1,0-0.1,0c-0.4,0-0.9-0.2-1.3,0c-0.8,0.4-1.5-0.3-2.3,0.1c-0.3,0.1-0.7-0.3-1.1-0.5
		c1.1-0.1,2.2-0.2,3.3-0.3c0-0.1,0-0.2,0-0.2c-0.9,0-1.9,0-2.8,0c-0.6,0-1.3,0-1.9-0.1c-1.7,0-3.4-0.1-5.1-0.1
		c-0.8,0-1.5-0.1-2.2-0.1c-0.1,0-0.3,0-0.6,0.1c0.3,0.3,0.5,0.5,0.7,0.7c-0.3,0.1-0.6,0.3-0.9,0.4c-0.1,0-0.3-0.3-0.4-0.3
		c-0.5,0-0.9,0.1-1.4,0.2c-0.2,0-0.5,0.3-0.7,0.3c-0.9-0.1-1.7-0.2-2.6-0.3c-0.5,0-1.1,0.1-1.6,0.2c-0.2,0.1-0.5,0.5-0.7,0.4
		c-0.3-0.1-0.7-0.4-0.9-0.5c-0.3,0.2-0.6,0.4-0.8,0.4C58.2,68,57,68,55.7,68c-0.9,0-1.8,0-2.6,0c0,0,0.2,0.1,0.4,0.1
		c-0.4,0.1-0.6,0.2-0.9,0.2c-0.1,0-0.1-0.1-0.2-0.2c0-0.1,0.1-0.1,0.2-0.4c-1,0.1-2,0.3-2.9,0.4c0,0,0,0.1,0,0.1
		c0.4,0,0.7,0.1,1.1,0.1c-0.1,0.2-0.2,0.4-0.4,0.6c-0.8-0.7-1.6-1.2-2.6-0.9c0,0.3,0.1,0.6,0.1,1c0,0-0.1,0-0.1,0.1
		c-0.1-0.4-0.3-0.7-0.4-1.1c-0.4,0-1,0-1.5,0c-0.7-0.1-1.3-0.2-2-0.3c-0.8-0.1-1.7-0.1-2.5,0.4c-0.2,0.1-0.4-0.1-0.6-0.1
		c0-0.1,0-0.1,0-0.2c0.2-0.1,0.4-0.1,0.6-0.2c0,0,0-0.1,0-0.1c-0.4,0.1-0.8,0-1.2,0.2c-0.9,0.5-1.8,0.4-2.7-0.1
		c0.3-0.1,0.7-0.1,1-0.2c0-0.1,0-0.2,0-0.2c-1.1,0-2.2,0-3.3,0c0-0.1,0-0.2,0-0.4c0.3-0.1,0.7-0.3,1-0.2c0.6,0.2,1.2,0.3,1.9-0.1
		c0.3-0.2,0.7,0.1,1.1,0.2c0.1,0,0.2,0,0.3,0c0.6,0,1.3,0.1,1.9,0c1.1-0.2,2.2,0.3,3.2,0.2c0.5,0,0.9,0.3,1.4,0.3
		c0.6,0.1,1.1,0,1.7,0c-0.4-1-0.6-1.1-1.4-0.7c0.3,0.2,0.6,0.3,0.8,0.4c0,0,0,0.1,0,0.1c-0.5-0.1-0.9-0.2-1.4-0.3c0-0.1,0-0.2,0-0.2
		c0.3-0.1,0.6-0.3,1.1-0.4c-1.3,0-2.5,0-3.7,0c0-0.5-0.3-0.2-0.5-0.1c-0.2,0-0.4,0.1-0.7,0.1c-0.2,0-0.3,0-0.5,0
		c-0.3-0.1-0.8-0.5-1-0.3c-0.3,0.3-0.5,0.1-0.8,0.1c-0.8,0-1.6-0.1-2.4-0.2c-1.1-0.1-2.2-0.3-3.3-0.5c-0.6-0.1-1.2-0.1-1.5,0.7
		c-0.1,0.1-0.2,0.1-0.4,0.2c0.2-0.3,0.3-0.5,0.5-0.8c-0.3-0.1-0.5-0.2-0.7-0.2c-1,0.1-2.1,0.2-3.1,0.4c-0.4,0.1-0.8,0.2-1.2,0.2
		c-0.7,0.1-1.4,0.2-2.2,0.1c0.1-0.1,0.3-0.2,0.5-0.4c-0.2-0.5-0.4-1.1-0.5-1.6c0.4,0.1,0.7,0.7,1.1,0.5c0.1,0,0.2,0.1,0.4,0.2
		c-0.2,0.2-0.4,0.3-0.6,0.4c1.8,0.6,3.6-0.6,5.4,0.1c0-0.1,0-0.2,0-0.2c-0.7-0.1-1.3-0.2-2-0.3c0-0.1,0-0.2,0-0.2
		c0.1,0,0.2,0.1,0.4,0.1c0.2,0,0.3-0.1,0.5-0.1c2.3,0,4.6,0,6.9,0c-1.1-0.2-2.2-0.2-3.2-0.3c-0.6,0-1.2-0.1-1.8-0.1
		c-0.6,0-1.2,0.2-1.9,0.3c-0.1,0-0.2,0.1-0.3,0c-0.6-0.5-1.3-0.5-1.9-0.1c-0.2,0.1-0.5-0.2-0.7-0.4c-0.4-0.1-0.9-0.1-1.4-0.1
		c-0.3-0.1-0.7-0.3-1-0.4c-0.1,0-0.4-0.2-0.2,0.4c-0.5,0.2-0.5,0.2-1.4-0.4c-0.2,0.2-0.4,0.5-0.5,0.5c-0.4,0.2-0.8,0.3-1.3,0.3
		c-0.3,0-0.7-0.3-1-0.2c-0.5,0.3-1,0-1.5,0c-0.4,0.1-0.8,0.2-1.2,0.2c0.7-1,1.6-0.1,2.3-0.6c-0.4-0.6-0.4-0.6-0.8-0.2
		C19.4,63.3,19,63,18.6,63c-1.7-0.4-3.4-0.8-5.1-1.2c-0.7-0.1-1.4-0.1-2.1-0.2c-0.4,0-0.8-0.1-1.4-0.2c0.3-0.2,0.5-0.3,0.8-0.4
		c-0.6-0.5-1.2-1.1-1.8-1.4c-0.6-0.3-1.2-0.4-1.9-0.6c-0.5-0.1-1-0.2-1.5-0.5c0.8,0.1,1.6,0.1,2.4,0.2c-0.2-0.2-0.2-0.2-0.3-0.3
		c0.4-0.1,0.9,0,1.1-0.3c0.5-0.7,0.9-0.1,1.4-0.1c-0.4-1-1.1-0.8-1.5-0.7c-0.7,0.1-1.4,0.1-2,0.2c-0.3,0.1-0.5,0.1-0.8,0.2
		c0-0.1,0-0.2,0-0.4c0.4-0.1,0.9-0.2,1.3-0.3C7.5,57,7.7,56.8,8,56.7c0.1,0,0.2,0,0.3,0c0.5,0,1.1,0.3,1.6-0.6c-0.7,0-1.4-0.1-2.1,0
		c-0.7,0.1-1.4,0.4-2,0.5c-0.1,0.4-0.2,0.9-0.3,1.6c-0.5-1.3-1.3-0.9-2-1c0,0.4,0,0.7,0.1,0.9c0.3,0.5,0.1,0.6-0.2,0.7
		c-0.1,0-0.2,0.1-0.3,0.2c-0.2-0.3-0.5-0.7-0.7-1.1c0,0,0.2-0.2,0.2-0.2c0.3,0.2,0.5,0.4,0.8,0.6c-0.1-0.5-0.1-0.8-0.2-1.2
		c-0.4-0.1-0.9-0.2-1.3-0.2c-0.5-0.1-0.6-0.5-0.4-1.2c-0.2,0.1-0.3,0.1-0.4,0.2c0,0,0-0.1-0.1-0.1c0.2-0.2,0.3-0.4,0.5-0.5
		C1.8,55.1,2,55,2.3,54.9c0.6-0.1,1.2-0.1,1.8-0.2c0.4,0,0.7,0,1.1-0.1c1.1-0.1,2.1-0.2,3.2-0.4c0.8-0.1,1.7-0.3,2.5-0.4
		c0.4-0.1,0.8-0.1,1.2-0.3c-0.7-0.1-1.4-0.1-2.1-0.2c-0.1-0.1-0.1-0.3-0.2-0.3c-0.6-0.1-1.3-0.2-1.9-0.4c-0.5-0.1-1-0.4-1.5-0.6
		c-0.6-0.3-1.2-0.5-1.8-0.7c0,0-0.1,0-0.1,0c-0.3,0.3-0.7,0.7-1.1,1.1c-0.5-0.2-0.9-0.6-1-1.5c0.2-0.3,0.4-0.5,0.6-0.8l0,0
		c0.4-0.1,0.8-0.2,1.1-0.3c-0.1-0.2-0.4-0.4-0.6-0.7c0.1-0.3,0.2-0.5,0.4-0.8c-0.2-0.1-0.3-0.2-0.5-0.3c0.5-0.1,1-0.1,1.5-0.2
		c0-0.1,0-0.2,0-0.2c-0.1,0-0.3,0-0.4-0.1c-0.6-0.1-1.2-0.1-1.8-0.2c-0.4,0-0.8-0.1-1.2-0.2C1,47.1,0.6,46.8,0,46.5
		c0.6-0.6,1-1.1,1.4-1.5c-0.4-0.5-0.8-1-1.2-1.4c1-0.4,2.1-0.7,3.1-1.1c1-0.4,2-0.6,3.1-0.8c1-0.2,2,0.1,3,0c0-0.1,0-0.2,0-0.3
		c-2.1-0.4-4.2-0.9-6.2-1.3C3,39.9,3,39.7,2.9,39.6c1.3,0.2,2.6,0.3,3.9-0.2c-0.5-0.2-0.9-0.4-1.4-0.6c-0.2-0.1-0.4-0.2-0.6-0.1
		c-0.8,0.6-1.5,0-2.3,0c0.7-0.1,1.3-0.2,2-0.3c0,0,0-0.1,0-0.1C3.7,38.1,3,38.1,2.2,38c0-0.1,0-0.2,0-0.3c0.7-0.1,1.4-0.3,2.1-0.5
		c-0.1-0.2-0.2-0.4-0.2-0.5c0.7-0.1,1.3-0.1,2-0.2c-0.1-0.1-0.2-0.2-0.4-0.4c1.5,0.1,2.8-0.3,4-1.6c-1.2,0.1-2.5,0.2-3.7,0.3l0,0
		c-0.1-0.1-0.3-0.3-0.4-0.4c1.4-0.2,2.9-0.4,4.3-0.7c0-0.1,0-0.2,0-0.3c-1.1-0.3-2.2-0.7-3.3-1c0-0.1,0-0.2,0-0.3c1.3,0,2.5,0,3.8,0
		c0-0.1,0-0.2,0.1-0.3c-0.2-0.2-0.4-0.4-0.6-0.6c0.3-0.3,0.7-0.7,1-1c0-0.1,0-0.2-0.1-0.3c-1.5,0.6-2.9,0.5-4.4,0c1.3,0,2.5,0,3.8,0
		c0-0.1,0-0.1,0-0.2c-0.9-0.1-1.8-0.3-2.8-0.4c1-0.2,2-0.4,3-0.5c-1-1.2-2.2-0.4-3.3-0.8c0.4,0,0.7-0.1,1.1-0.1
		c-0.1-0.1-0.1-0.2-0.2-0.4c0.3,0,0.5,0,0.7,0c0-0.1,0-0.2,0-0.3c-1.3,0.1-2.5,0.2-3.8,0.3c0-0.1,0-0.1,0-0.2
		c0.9-0.1,1.9-0.3,2.8-0.4c0,0,0,0,0-0.1c0,0,0,0,0,0c0,0-0.1-0.1-0.2-0.2c0.4,0,0.7,0,1,0c0-0.1,0-0.1,0-0.2
		c-0.3-0.1-0.6-0.3-0.9-0.4C7.2,26,6.8,26,6.3,25.9c-0.4,0-0.7-0.1-1.1-0.2c2.4-0.5,4.7-0.9,7.1-1.4c0-0.1,0-0.1,0-0.2
		c-2.1-0.1-4.1-0.2-6.2-0.4c0,0,0-0.1,0-0.1c0.2-0.1,0.5-0.1,0.8-0.2c-0.3-0.1-0.4-0.1-0.8-0.1C6.8,23.1,7.4,23,8,22.9
		c0-0.1,0-0.3,0-0.4c-0.4,0-0.9,0-1.3,0c0-0.1,0-0.1,0-0.2c0.1-0.1,0.2-0.2,0.3-0.3c-0.2-0.2-0.3-0.4-0.4-0.6c0.1-0.5,0.2-1,0.4-1.5
		C6.7,20,6.5,20,6.4,20c0-0.1,0-0.1,0-0.2c0.7-0.2,1.5-0.3,2.2-0.5c0.1,0.1,0,0.1,0,0c0,0,0-0.1-0.1-0.1c0.3,0,0.5,0,0.8,0
		c-0.2,0.1-0.3,0.1-0.4,0.2c0,0,0,0.1,0,0.1c0.8-0.1,1.5-0.1,2.3-0.2c0-0.1,0-0.1,0-0.2c-0.5,0-1,0-1.5,0c0,0,0-0.1,0-0.1
		c0.2-0.1,0.4-0.2,0.7-0.3c-0.3-0.1-0.6-0.3-0.9-0.4c0-0.1,0-0.1,0-0.2c0.9-0.4,1.8-0.7,2.7-1.1c0-0.1,0-0.2,0-0.3
		c-0.3,0-0.6,0-0.9,0.1c-0.3,0.1-0.7,0.1-1,0.2c-0.3,0.1-0.6,0.4-0.8,0.6c0-0.1-0.1-0.2-0.1-0.3c0.7-0.4,1.4-0.9,2.1-1.2
		c0.4-0.2,0.6-0.6,0.4-1.4c1.5-0.1,3-0.2,4.5-0.4c0.3,0,0.7-0.5,1-0.7c-0.3-0.1-0.7-0.2-1.1-0.3c0.1-0.1,0.2-0.2,0.3-0.4
		c-2.3,0-4.6,0-6.8,0c0,0,0.1-0.2,0.2-0.5C9.2,12.7,8.7,12.8,8,13c0.3-0.8,0.6-0.9,1-0.9c0.3-0.1,0.6,0.2,0.8-0.6
		c0-0.2,0.5-0.2,0.8-0.3c0.3-0.1,0.7,0.2,0.7-0.7c0-0.2,0.5-0.4,0.8-0.5c0.1-0.1,0.3,0,0.4-0.1c0.4-0.7,1-0.3,1.4-0.4
		c0.9-0.1,1.7-0.2,2.6-0.3c0-0.1,0-0.3,0-0.4c-0.5-0.1-1-0.2-1.6-0.4c0.5-0.7,0.9-0.2,1.4-0.1c0.3,0.1,0.6,0.2,1,0.2
		c1.1,0.1,2.2,0.1,3.2,0.2c0.1,0,0.3,0,0.3,0c0.1-0.6,0.3-0.2,0.5-0.2c1,0,2.1,0,3.1,0c1,0,1.9,0,2.9,0c1.3-0.1,2.5-0.2,3.8-0.2
		c0.6,0,1.2-0.1,1.8-0.1c0-0.1,0-0.1,0-0.2c-0.7-0.1-1.3-0.1-2-0.2c0.1,0.2,0.1,0.3,0.2,0.5c-0.4-0.2-0.9,0-1.2-0.8
		c-0.1-0.2-0.5-0.1-0.8-0.1c-0.4,0-0.9,0-1.3,0c0-0.1,0-0.1,0-0.2c1.2,0,2.4,0,3.6,0c0,0,0,0-0.2,0.2c1.6-0.3,3.2-0.2,4.7-0.9
		c-0.8-0.8-1.6-0.4-2.3-0.4c-1.3,0-2.7-0.1-4-0.2c-0.2,0-0.5,0-0.7,0.1c-0.4,0-0.8,0.1-1.2,0.1c-0.9,0-1.7,0-2.6,0
		c-0.5,0-1.1,0-1.6,0c-0.9,0-1.9,0.1-2.8,0c-0.9,0-1.7-0.2-2.6-0.3C18,6,18,6,18,5.9c0.6,0,1.1,0.2,1.7,0.1c0.9,0,1.7-0.1,2.6-0.2
		c0.3,0,0.6,0,0.9,0c0.6-0.1,1.1-0.2,1.7-0.3c0.3,0,0.5,0,0.8,0c0.6,0,1.2-0.1,1.8-0.1c0.5,0,1,0.3,1.5,0.3c1.1,0,2.3-0.1,3.4-0.1
		c0.4,0,0.9,0.2,1.3,0.2c0.7,0,1.4-0.3,2-0.3c0.9,0,1.8,0.1,2.7,0.2c0.8,0.1,1.7,0.5,2.5,0.2c0.9-0.4,1.8,0,2.6-0.3
		c0.1,0,0.1-0.1,0.2-0.1c0-0.1,0-0.1,0-0.2c-0.8,0-1.5,0-2.3,0c0-0.1,0-0.2,0-0.3c0.3,0,0.6,0,0.9,0c2,0.1,4.1,0.2,6.1,0.2
		c0.9,0,1.8,0,2.8,0c0.6,0,1.1,0.2,1.7,0.3c0.1,0,0.2,0,0.3-0.1C53.6,5,53.9,4.5,54.3,5C54.5,5.2,54.9,5,55.2,5C55.6,5,56,5,56.3,5
		c0.4,0,0.8,0,1.2,0c0.5,0.1,0.9,0.2,1.4,0.3c0.1,0,0.2,0,0.3,0c0.3-0.6,0.7-0.5,1.1-0.5c0.4,0,0.3-0.2,0.3-0.5
		c0,0.1,0.1,0.3,0.1,0.3c0.3-0.2,0.5,0,0.7,0.4c0,0,0.1,0,0.2,0c0.7-0.2,1.4-0.4,2.2-0.6c-0.1-0.1-0.1-0.2-0.2-0.2
		c-0.5,0-1.1,0-1.6-0.1c-0.5,0-1-0.3-1.4,0.2c0-0.1-0.1-0.2-0.1-0.2c-0.5,0.1-1.1,0.2-1.7,0.3c-0.4-0.4-4.8-0.4-5.1,0
		c-0.4-0.1-0.7-0.1-1-0.2c0,0,0,0.1,0,0.1c0.1,0.1,0.2,0.2,0.3,0.2c-0.3-0.1-0.5,0.2-0.8-0.4c-0.1-0.2-0.6-0.1-0.9-0.1
		c-0.6,0-1.1,0-1.7,0c0-0.1,0-0.2,0-0.3c0.7,0,1.4,0,2.1,0c0.3,0,0.6,0,0.8,0c0.4,0,0.7,0,1.1,0c0.4-0.1,0.7-0.2,1.1-0.3
		c0.1,0,0.3-0.1,0.4,0c0.7,0.3,1.3,0.2,2-0.2c0.4-0.2,0.9,0,1.3,0.1c0.1,0,0.3,0.1,0.4,0c0.6-0.4,1.2-0.4,1.7-0.1
		C61.2,3.9,62,3.3,62.8,3c-0.8,0-1.6,0-2.3,0c-1.1,0-2.1-0.1-3.2-0.2c-1.9-0.1-3.8-0.3-5.7-0.3c-0.9,0-1.7,0.2-2.6,0.2
		C50.9,2,52.9,1.7,55,2c-0.2-0.1-0.2-0.2-0.3-0.3c-0.1,0-0.1-0.1-0.2-0.2c1.2-0.6,2.4-0.1,3.6-0.1c0,0.1,0,0.2,0,0.3
		c-0.4,0-0.8,0.1-1.1,0.1c0,0.1,0,0.1,0,0.2c3.2,0.1,6.4,0.2,9.6,0.4l0,0c0.1,0,0.3,0.1,0.2,0.1c0.4,0,0.5,0.1,0.7,0.1
		c0.4,0.1,0.8,0.2,1.2,0.2c1.3,0,2.6,0,3.9,0c0.3,0,0.5,0.2,0.8,0.3c0,0,0.1-0.2,0.2-0.2c1,0,2,0,3,0c0.8,0,1.6,0,2.4,0l0,0
		c0.8,0.3,1.6,0.5,2.4-0.2c0.1-0.1,0.3-0.2,0.5-0.2c0.4,0,0.9,0,1.3,0l0,0c-0.5,0.1-1.1,0.2-1.6,0.3c0,0.1,0,0.2,0,0.4
		c0.5,0,1,0.2,1.4,0c0.7-0.4,1.3,0.4,1.9,0.1c0,0.1,0,0.1,0,0.2c-0.3,0.1-0.6,0.2-0.9,0.3c0.8,0,1.4,0,2.1,0c0,0,0-0.1,0-0.1
		c-0.3,0-0.6-0.1-0.9-0.1c0-0.1,0-0.1,0-0.2c0.2-0.1,0.4-0.3,0.5-0.3c-0.1-0.3-0.2-0.6-0.3-0.9l0,0c0.2,0,0.4,0,0.6,0
		c0,0,0,0.1,0,0.1c-0.1,0-0.2,0-0.4,0.1c0.5,0.9,1,0.9,1.7,0.6c0.3-0.1,0.7,0,1.1,0.1c0.5,0,1.1,0,1.6,0c0.3,0,0.6,0.1,0.9,0.2
		c0,0.1,0,0.2,0,0.3c-0.5-0.1-0.9-0.1-1.4-0.2c0,0.1,0,0.2,0,0.3c2.4,0.1,4.7,0.4,7.1,0c-0.1-0.1-0.2-0.3-0.3-0.3
		c-0.9,0.1-1.8,0.1-2.6,0.2c-0.1,0-0.2-0.1-0.3-0.1c-0.2-0.1-0.5-0.1-0.7-0.1c-0.5,0-0.9,0.1-1.4,0.1C91.8,2.6,92.4,3,93,2.8
		c0-0.1,0-0.2,0-0.3c0.1,0,0.1,0,0.1,0c0.5,0.9,1.1,0.2,1.7,0.3c0.6,0.2,1.2-0.1,1.9-0.1c0-0.2-0.1-0.3-0.1-0.5c0.8,0,1.5,0,2.3,0
		c0,0.1,0,0.1,0,0.2c-0.6,0.1-1.1,0.2-1.7,0.3c0,0,0,0.1,0,0.1c1.2,0,2.4,0,3.6,0c0.5,0,1,0,1.5-0.1c0.7-0.2,1.4-0.5,2-0.6
		c0.4-0.1,0.9,0,1.3,0c0.4,0,0.7,0,1.1,0c0,0.2,0.1,0.4,0.1,0.5c0.2-0.2,0.4-0.4,0.4-0.4c0.5,0.6,0.9,0.3,1.4,0.1c0,0,0-0.1,0-0.1
		c0,0.1,0,0.2,0.1,0.2c0.4,0.1,0.8,0.1,1.1,0.2c0.5,0.2,0.7-0.4,1-0.8c0.2-0.4,0.4-0.9,0.8-0.2c0,0,0.1,0.1,0.1,0
		c0.6-0.8,1.2,0.1,1.7,0.2c0.7,0.2,1.5,0.3,2.2,0.5c0.1-0.4,0.1-0.6,0.1-0.8c0.3,0.1,0.5,0.3,0.7,0.4c-0.1,0-0.2,0.1-0.4,0.2
		c0.2,0.1,0.4,0.2,0.5,0.3c0.2,0.1,0.4,0.4,0.5,0.3c0.3-0.2,0-0.4,0-0.6c0-0.3,0.1-0.7,0.2-1c0-0.1,0.3,0.2,0.5,0.2
		c0.6,0,1.3,0,1.9,0c0.1,0,0.3-0.2,0.4-0.1c0.6,0.9,1.2,0,1.8,0.3c0.6,0.3,1.3,0.2,1.9,0.2c0.8,0,1.6,0,2.3,0.1
		c0.1,0,0.1,0.2,0.2,0.2c0,0.1,0,0.2-0.1,0.3c0.8-0.1,1.5-0.2,2.2-0.3c-0.1,0.1-0.2,0.1-0.3,0.2c0,0.1,0,0.1,0,0.2
		c0.2,0,0.5-0.1,0.7-0.1c0.9,0.1,1.8,0.2,2.6,0.2c0.1,0,0.2,0,0.3,0c0.6-0.1,0.6-0.1,1,0.5c-0.2,0.1-0.3,0.4-0.5,0.4
		c-0.3,0-0.8-0.1-0.9-0.4c-0.3-0.5-0.4-0.2-0.6,0c0.1,0,0.2,0.1,0.3,0.1c-0.1,0.2-0.3,0.5-0.4,0.7c0,0.1,0.1,0.1,0.1,0.2
		c1.1-0.4,2.2-0.3,3.3,0.1c0,0.1,0,0.1,0,0.2c-0.3,0-0.7,0-1,0c0,0.1,0,0.1,0,0.2c0.5,0,1.1,0,1.6,0c0,0,0-0.1,0-0.1
		c-0.2,0-0.3-0.1-0.5-0.1c0-0.1,0-0.1,0-0.2c0.2-0.1,0.4-0.2,0.6-0.4c-0.4-0.3-0.6-1-1.1-0.4c0,0-0.1,0-0.2,0
		c-0.3-0.2-0.6-0.4-0.9-0.7c3.4-0.1,6.7,0.3,10.2-0.2c-0.9,0.8-1.9,0.3-2.7,0.9c0.2,0.4,0.7-0.3,0.8,0.6c0.4-1.1,1.2-0.5,1.8-0.8
		c0.3-0.2,0.7-0.2,1.1-0.3c0-0.1,0-0.1,0-0.2c-0.3,0-0.5,0-0.8,0.1c0.3-0.5,0.7-0.6,1-0.3c0.2,0.2,0.3,0.4,0,0.6
		c-0.2,0.2-0.5,0.4-0.8,0.6c0.5,0,1,0,1.5,0c0.4-0.1,0.8-0.3,1.3-0.4c-0.2-0.3-0.4-0.6-0.5-0.7c0.8-0.2,1.5-0.4,2.2-0.6
		c0,0.1,0,0.2,0.1,0.4c-0.5,0.2-1,0.5-1.6,0.7c0,0.1,0,0.1,0,0.2c0.4,0,0.8-0.1,1.1,0c0.4,0.1,0.7,0.3,1.1,0.3
		c-0.1-0.1-0.2-0.2-0.3-0.3c0-0.1,0-0.2,0-0.2c1.1-0.1,2.2-0.3,3.3-0.4c0,0.1,0,0.2,0,0.3c-0.6,0.1-1.1,0.2-1.7,0.3
		c0,0.1,0,0.1,0,0.2c0.2,0,0.4,0.1,0.6,0.1c0.5,0.1,1,0.2,1.5,0.3c0.1,0,0.1,0,0.2,0c0-0.2,0-0.3-0.1-0.6c0.4,0.5,0.8,0.6,1.2,0.2
		c0.1-0.1,0.2-0.1,0.3,0c0.7,0.5,1.4,0.5,2.1,0.3c0.1,0,0.1,0,0.2,0c0,0,0,0.1,0.1,0.2c-0.4,0.1-0.8,0.2-1.1,0.3c0,0,0,0.1,0,0.1
		c0.6,0.1,1.2,0.3,1.9,0.4c0,0,0-0.1,0-0.1c-0.1-0.1-0.3-0.1-0.5-0.2c0.3-0.1,0.5-0.2,0.8-0.3c0-0.1,0-0.1,0-0.2
		c-0.2,0-0.4-0.1-0.7-0.1c0.2-0.1,0.3-0.2,0.5-0.3l0,0c0.5-0.7,1.1-0.4,1.5-0.2c0.7,0.3,1.5,0.2,2.2,0.2c0.2,0,0.5,0,0.7,0.1
		c-0.9,0-1.8,0.8-2.8-0.1c0,0.5,0,0.8-0.1,1.3c0.2-0.2,0.4-0.3,0.6-0.5c0.6,0.6,1.4,0.7,2,0.2c0.4,0.2,0.7,0.3,1,0.4
		c0,0,0,0.1,0,0.1c-0.4,0-0.8,0-1.2,0c0,0.1,0,0.1,0,0.2c0.2,0.1,0.5,0.2,0.7,0.2c0.2,0.1,0.5,0.1,0.8,0.1c0.1-0.1,0.2-0.3,0.3-0.3
		c0.6,0,1.2,0.1,1.8,0.1c0.4,0,0.9,0,1.3,0.1c0.8,0.1,1.7,0.4,2.5,0.4c0.7,0,1.4,0.3,2.1,0.3c1.2,0,2.3,0,3.5,0
		c0.8,0,1.6,0.1,2.3,0.2c0.1,0,0.2-0.1,0.4-0.1c0-0.1,0-0.1,0-0.2c-0.9-0.1-1.7-0.3-2.6-0.4c0,0,0-0.1,0-0.1c1.1,0,2.2,0,3.4,0
		c-0.2,0.2-0.4,0.4-0.7,0.6c2.5,0.1,5,0.2,7.4,0c0-0.1,0-0.2,0-0.4c-1.1,0-2.1,0-3.2,0c0-0.1,0-0.1,0-0.2c1.4,0,2.8,0,4.2,0
		c0,0.3,0,0.5,0,0.9c1.7,0,3.3,0,4.9,0c0,0.1,0,0.1,0,0.2c-1,0-1.9,0-2.9,0c-0.2,0-0.6-0.3-0.7,0.4c0,0-0.3,0-0.5-0.1
		c-0.3-0.1-0.5-0.3-0.8-0.5c0,0.1,0,0.2-0.1,0.3c0.1,0.1,0.2,0.1,0.5,0.2c-0.6,0.1-1.1,0.2-1.6,0.2c0,0.1,0,0.1,0,0.2
		c0.6,0,1.1,0,1.7,0c0,0.1,0,0.2,0,0.3c-0.5,0.1-1,0.1-1.5,0.2c0,0,0,0.1,0,0.1c0.6,0,1.2,0,1.8,0c0,0,0.1-0.3,0.2-0.6
		c0.1,0.2,0.3,0.4,0.5,0.5c0.1,0.1,0.1,0.1,0.2,0.1c0.6-0.2,1.3-0.1,1.9,0.1c0.5,0.1,1,0,1.4,0c0.2,0,0.4,0.1,0.5,0.1
		c0,0.1,0,0.2,0,0.2c-2.2,0-4.4,0-6.6,0c0,0.1,0,0.2,0,0.4c1.9,0,3.8,0,5.7,0c0,0.1,0,0.3,0,0.4c-0.7,0.1-1.3,0.2-2,0.3
		c0,0,0-0.1,0-0.1c0.1,0,0.1-0.1,0.3-0.2c-0.3-0.1-0.5-0.1-0.7-0.2c0.1,0.3,0.1,0.4,0.2,0.6c-0.4,0-0.8,0-1.1,0c0,0.1,0,0.1,0,0.2
		c0.2,0,0.5-0.1,0.7,0c0.3,0.1,0.5,0.5,0.8,0.7c0-0.1,0.1-0.2,0.2-0.3c-0.1,0-0.2-0.1-0.3-0.1c0,0,0-0.1,0-0.1c0.4,0,0.8,0,1.2,0
		c0,0,0,0.1,0,0.1c-0.2,0-0.4,0-0.6,0.1c0.6,0.7,1.3,0.9,1.9,0.8c0.9-0.1,1.8,0.5,2.8,0.1c0.3-0.2,0.8,0.2,1.2,0.4
		c0,0.1,0,0.1,0,0.2c-0.2,0-0.4,0-0.6,0c0,0.1,0,0.2,0,0.3c0.6,0.1,1.2,0.1,1.9,0.2c0-0.1,0-0.2,0-0.2c-0.3-0.1-0.7-0.2-1-0.3
		c0.5-0.1,1-0.4,1.4,0.4c0.1,0.2,0.4,0.1,0.5,0.1c0.4,0,0.9,0,1.3,0c0-0.1,0-0.2,0-0.3c-0.6,0-1.2,0-1.8,0c0-0.1,0-0.2,0-0.3
		c0.5,0,0.9,0,1.4,0c1.3,0,2.7-0.1,4-0.1c0.5,0,0.2-0.4,0.2-0.9c0.3-0.1,0.7-0.1,1-0.2c0,0.1,0,0.2,0,0.3c-0.3,0-0.5,0.1-0.8,0.1
		c0.8,0.7,1,0.8,1.8,0.4c0.4,0.1,0.8,0.1,1.1,0.2c0.2,0.1,0.4,0.2,0.6,0.3l0,0c-0.5,0-1,0-1.5,0c0,0.1,0,0.2,0,0.4c0.5,0,1,0,1.5,0
		c0,0.1,0,0.1,0,0.2c-0.8,0.2-1.5,0.3-2.3,0.5c-0.2,0-0.4-0.2-0.7-0.1c-0.3,0.1-0.6,0.3-0.9,0.4c-0.1-0.2-0.2-0.4-0.3-0.6
		c-0.4,0-0.9,0-1.4,0c0,0.1,0,0.1,0,0.2c0.4,0,0.7,0,1.1,0c0,0.1,0,0.2,0,0.3c-0.2,0.1-0.3,0.2-0.4,0.3c0.2,0.1,0.3,0.3,0.5,0.5
		c0,0.1-0.1,0.2-0.1,0.3c-0.6-0.2-1.2-0.4-1.7-0.5c0,0.1,0,0.1,0,0.2c0.2,0,0.5,0.1,0.7,0.1c0,0,0,0.1,0,0.1
		c-0.6,0.3-1.3,0.5-1.9,0.8c0-0.1,0.1-0.3,0.1-0.6c-0.3,0.2-0.6,0.4-0.8,0.5c-0.1-0.5-0.3-0.6-0.7-0.2c-0.2,0.2-0.5,0-0.7-0.1
		c-0.4-0.2-0.7,0-1.1,0.1c-0.3,0.1-0.7,0.1-0.9-0.1c-0.2-0.1-0.4-0.5-0.4,0.2c-0.2,0-0.6,0.1-0.7-0.1c-0.3-0.8-0.4-0.2-0.5,0.1
		c-0.2-0.2-0.4-0.3-0.7-0.6c0,0.4,0.1,0.5,0.1,0.7c-0.1,0.1-0.2,0.1-0.4,0.2c0.2,0.1,0.3,0.2,0.4,0.3c-0.1,0.2-0.2,0.3-0.3,0.4
		c0.1,0,0.2,0,0.3,0.1c0,0.1,0,0.1,0,0.2c-0.4,0-0.8,0-1.2,0c2.1,0.9,4.3,0.7,6.5,0.2c0,0.1,0,0.3,0,0.4c-0.4,0.1-0.8,0.1-1.2,0.2
		c0,0,0,0.1,0,0.1c0.3,0,0.5,0.1,0.8,0.1c0.9-0.2,1.8-0.5,2.7-0.7c0.3-0.1,0.7-0.1,1-0.2l0,0c0.3-0.1,0.6-0.2,0.9-0.3
		c0,0,0,0.1,0,0.1c-0.4,0.3-0.8,0.9-1.1,0.8c-0.4,0-0.7-0.1-1.1,0.1c-0.1,0.1-0.2,0.2-0.5,0.3c1.2,0,2.3,0,3.4,0
		c0.3,0,0.7,0.2,1,0.1c1.1-0.2,2.3-0.4,3.4-0.6c0.1,0,0.3,0,0.3,0c0.2,1.1,0.9,0.5,1.4,1c-0.3-1,0-1.2,0.5-1.3
		c0.5-0.1,0.9-0.3,1.4-0.4c0-0.1,0-0.2,0-0.3c-0.7,0.2-1.4,0.3-2.1,0.5c0-0.1,0-0.1,0-0.2c0.8-0.3,1.6-0.5,2.4-0.8
		c0.2,0.3-0.5,0.6,0.3,0.8c-0.7,0.3-1.2,0.5-1.7,0.7c0,0,0,0.1,0,0.1c0.1,0,0.2,0.1,0.4,0.1c0.1,0,0.2-0.1,0.2-0.1
		c0.2,0.8,0.6,0.3,0.8,0.3c0.5,0,1-0.1,1.5,0.6c-0.2,0-0.3-0.1-0.3-0.1c-0.3,0.9-0.7,0.4-1,0.2c-0.1,0-0.2-0.1-0.3-0.1
		c-0.6,0.1-1.1,0.2-1.6,0.3c-0.2,0-0.5-0.1-0.7-0.1c-0.3,0-0.5,0.1-0.8,0.2c0,0.1,0,0.2,0,0.3c0.3,0,0.7,0,1,0c0,0,0,0.1,0,0.1
		c-0.8,0.4-1.7,0.8-2.5,1.1c-0.3,0.1-0.6,0.1-0.9,0.3c0.5,0.1,0.9,0.1,1.4,0.2c0,0,0,0.1,0,0.1c-0.5,0.1-0.9,0.2-1.4,0.3
		c0.1,0.4,0.1,0.7,0.5,0.5c0.2-0.1,0.5-0.1,0.6,0c0.4,0.8,0.8,0.5,1.3,0.4c0.2,0,0.4-0.2,0.8-0.5c-0.5,0-0.8,0-1.2,0
		c0,0,0-0.1,0-0.1c0.3-0.1,0.7-0.2,1-0.3c0-0.1,0-0.2,0-0.2c-0.3,0.1-0.5,0.1-0.8,0.2c0-0.1,0-0.2,0-0.3c0.8-0.1,1.6-0.1,2.4-0.2
		c0,0,0,0.1,0,0.1c-0.4,0.1-0.8,0.2-1.2,0.2c0,0.1,0,0.1,0,0.2c0.5-0.1,0.9-0.1,1.4-0.2c0.1,0,0.3,0,0.4,0c0.1,0,0.2,0.1,0.4,0.1
		c0.3,0,0.6-0.1,0.9-0.2c0.2-0.1,0.4-0.2,0.6-0.4c0.1,0.2,0.2,0.4,0.3,0.8c-0.3,0.3-0.6,0.6-1,1c0.2-0.1,0.3-0.1,0.5-0.2
		c-0.1,0.3-0.1,0.4-0.2,0.7c0.2-0.1,0.3-0.3,0.5-0.4c0,0,0.1,0.1,0.1,0.1c-0.2,0.3-0.3,0.5-0.5,0.8c0.1,0.1,0.2,0.2,0.2,0.3
		c-0.3,0.1-0.6,0.3-0.9,0.3c-0.3,0.1-0.6,0.1-1,0.1c0.1,0.2,0.1,0.4,0.1,0.5c-0.4,0.2-0.7,0.3-1.1,0.5c0,0.1,0,0.1,0,0.2
		c0.2-0.1,0.4-0.2,0.6-0.2c0.3,0,0.5,0.1,0.8,0.1c0.2,0,0.5-0.1,0.8-0.1c-0.1,0.1-0.2,0.2-0.3,0.3c0,0.1,0,0.1,0,0.2
		c0.3-0.1,0.7-0.1,1-0.2c-0.2,0.4-0.3,0.8-0.5,1.1c0,0,0.1,0.1,0.1,0.1c-0.3,0.1-0.6,0.1-0.9,0.2c0.2,0.3,0.5,0.6,0.7,0.7
		c0.3,0.1,0.7,0.1,1.1,0.1c-0.2,0.1-0.3,0.2-0.5,0.4c0.2,0.1,0.3,0.2,0.4,0.3c-0.4,0.3-0.7,0.6-1,0.9c-0.3,0.1-0.5,0.2-0.8,0.2
		c0.2,0.2,0.4,0.4,0.7,0.6c0,0,0.1-0.2,0.1-0.2c0.4,0.5,0.5-0.4,0.8-0.5C211.2,27.7,211,27.7,210.8,27.6z M194.1,19.6
		c0.2,0.1,0.5,0,0.6,0.2c0.4,0.4,1.2,0.3,1.5-0.3c-0.5-0.1-1,0-1.6-0.1c-1-0.2-2-0.2-3-0.3c0,0.1,0,0.2,0,0.2c0.4,0,0.8,0.1,1.2,0.1
		C193.3,19.5,193.7,19.6,194.1,19.6c-0.5,0-1,0-1.5,0c0,0.1,0,0.2,0,0.3c0.6,0,1.2,0,1.9,0C194.4,19.8,194.3,19.7,194.1,19.6z
		 M103.2,67.3c0.1,0.7,0.5,0.3,0.8,0.3c0.2,0,0.4-0.3,0.6-0.2c0.7,0.4,1.1-0.4,1.7-0.5c-0.6-0.1-1.2-0.1-1.7-0.1
		c-0.4,0-0.8,0.1-1.2,0.2C103.3,66.9,103.3,67.2,103.2,67.3c-0.2,0-0.4,0-0.6,0c-0.4,0-0.9,0.1-1.3,0.1c-0.1,0-0.3,0-0.4,0
		c0,0.1,0,0.2,0,0.3c0.7,0.1,1.4,0.3,2.1,0.4c0-0.1,0-0.1,0-0.2c-0.1-0.1-0.1-0.2-0.2-0.4C103,67.4,103.1,67.4,103.2,67.3z
		 M203.1,22.3c-0.1-0.1-0.4-0.1-0.4-0.2c-0.2-0.5-0.6-0.5-0.9-0.1c0.1,0,0.1,0.1,0.2,0.1c-0.6,0.1-1.2,0.1-1.8,0.2
		c0,0.1,0,0.1,0,0.2c0.2,0.2,0.4,0.3,0.8,0.5c-0.3,0.2-0.4,0.3-0.6,0.4c0.6,0.2,0.6,0.2,0.9-0.6c0-0.2,0.2-0.2,0.4-0.4
		c0,0,0,0.1,0.1,0.1c-0.1,0.1-0.1,0.3-0.3,0.5c0.6,0,1.1,0,1.6,0c0-0.1,0-0.1,0-0.2c-0.4-0.1-0.8-0.1-1.2-0.2c0-0.1,0-0.2,0-0.2
		c0.4,0,0.8,0,1.2,0c0.1,0.1,0.3,0.2,0.4,0.3c0,0.1-0.1,0.3-0.2,0.5c0.5,0,0.8-0.6,1.4-0.4c0.7,0.2,1.4-0.3,2.2-0.6
		c0.1,0,0.2-0.2,0.3-0.3c0-0.1,0-0.1-0.1-0.2c-0.7,0.2-1.5,0.4-2.3,0.6c0.2-0.3,0.3-0.4,0.5-0.6c-0.3-0.4-0.7-0.5-1.1,0
		c0.3,0,0.5,0,0.7,0.1c0,0.1,0,0.2,0,0.2c-0.2,0-0.3,0.1-0.5,0.1c-0.3-0.1-0.7-0.3-1-0.4c0,0.1,0,0.1,0,0.2c0.1,0,0.1,0.1,0.2,0.1
		C203.3,22.2,203.2,22.2,203.1,22.3z M210.3,57.1c-0.4,0.1-0.8,0.1-1.2,0.2c0,0,0-0.1,0-0.1c0.3-0.1,0.5-0.2,0.8-0.3
		c0,0,0-0.1,0-0.1c-0.2-0.1-0.4-0.1-0.6-0.2c0,0,0-0.1,0-0.1c0.6-0.1,1.1-0.2,1.7-0.3c0-0.1,0-0.1,0-0.2c-0.2-0.1-0.4-0.1-0.7-0.2
		c0.3-0.1,0.4-0.2,0.5-0.3c0,0,0-0.1,0-0.1c-0.7,0.1-1.4,0.2-2.2,0.3c0,0,0,0.1,0,0.1c0.3,0,0.6,0.1,1.1,0.1c-0.7,0.6-1.3,1.2-2,0.8
		c0.5,0.3,0.9,0.7,1.4,0.9C209.3,57.8,210.1,57.4,210.3,57.1c0.4,0.7,0.7-0.2,1.1-0.1c0-0.1,0-0.2,0-0.3c-0.2,0.1-0.4,0.1-0.5,0.2
		c0-0.1,0-0.1,0-0.2c0.2-0.1,0.4-0.2,0.6-0.3c0-0.1,0-0.1,0-0.2c-0.5,0.1-0.9,0.2-1.4,0.3c0,0.1,0,0.1,0,0.2c0.2,0,0.4,0,0.6,0.1
		c0,0,0,0.1,0,0.1C210.5,57,210.4,57,210.3,57.1z M205.1,49.8c0.2-0.1,0.4-0.2,0.6-0.3c-0.1,0.2-0.1,0.4-0.2,0.5
		c0.4-0.1,0.7-0.2,1.1-0.3c0,0.1,0,0.2,0,0.2c-0.4,0.2-0.7,0.4-1.1,0.6c0.5,0,0.9,0.1,1.3,0c0.3-0.1,0.7-0.4,1-0.7
		c0-0.1,0-0.1-0.1-0.2c-0.3,0.1-0.6,0.2-0.9,0.3c0.3-1.1,0.8-0.4,1.2-0.7c-0.9-0.3-1.9-1-2.9-0.3C205.1,49.3,205.1,49.6,205.1,49.8
		c-0.3,0-0.5,0-0.8,0c0-0.1,0-0.1,0-0.2c0.1,0,0.3-0.1,0.4-0.1c-0.9-0.6-1.3,1-2.2,0.9c0,0.1,0,0.2,0,0.3c0.3-0.1,0.6-0.1,1-0.2
		c-0.2,0.6,0,0.6,0.2,0.6c0.4,0,0.8-0.1,1.2-0.2c0.1,0,0.2-0.1,0.4-0.1c0,0,0-0.1,0-0.1c-0.3,0-0.7-0.1-1-0.1
		C204.6,50.3,204.9,50,205.1,49.8z M203,61.2c0-0.2,0-0.3,0-0.5c-0.1,0-0.2,0-0.2,0.1c-0.2,0.8-0.6,0.8-1.1,0.8c-0.2,0-0.3,0-0.5,0
		c-0.1,0-0.3,0-0.4,0C201.6,62,202.4,62,203,61.2c0.3,0,0.6,0.2,0.8,0.1c0.7-0.1,1.4-0.2,2-0.3c0,0,0,0.1,0,0.1
		c-0.8,0.2-1.6,0.4-2.5,0.6c0.2,0.1,0.4,0.3,0.5,0.2c0.9-0.1,1.8-0.2,2.7-0.4c0.1,0,0.2-0.1,0.3-0.2c0-0.1-0.1-0.1-0.1-0.2
		c-0.2-0.1-0.4-0.2-0.6-0.2c0,0,0-0.1,0-0.1c0.2,0,0.4-0.1,0.5-0.1c0-0.1,0-0.1,0-0.2c-0.1,0-0.3-0.1-0.4-0.1
		C205.2,60.7,204.1,61,203,61.2z M194.2,59.2c-1.2,0-2.4,0-3.5,0c0,0.1,0,0.2,0,0.2c0.4,0.1,0.8,0.2,1.3,0.2c0.5,0,1.1-0.1,1.6-0.1
		C193.8,59.5,194,59.3,194.2,59.2c0.2,0.2,0.5,0.4,0.7,0.7c-1.7,0-3.4,0-5,0c0,0.3,0,0.6-0.1,1c1-0.3,2,0.4,2.9-0.2
		c0.4,0.1,0.7,0.1,1,0.1c0-0.1,0-0.1,0-0.2c-0.1-0.1-0.3-0.1-0.4-0.2c1.2,0.2,2.1-1.3,3.3-0.7c-0.4,0.1-0.9,0.1-1.3,0.2
		c0,0.2,0,0.3,0,0.5c1.2-0.1,2.4-0.3,3.6-0.4c0-0.1,0-0.1,0-0.2c-0.2,0-0.3-0.1-0.5-0.1c0-0.1,0-0.2,0-0.3c0.4-0.1,0.7-0.1,1.1-0.2
		c0-0.1,0-0.1,0-0.2c-0.3,0-0.6,0-0.9,0c0-0.1,0-0.2,0-0.2c0.9-0.1,1.8-0.2,2.7-0.3c0-0.1,0-0.1,0-0.2c-0.2,0-0.3-0.1-0.5-0.1
		c-0.1,0-0.3,0.1-0.4,0.2c0,0,0-0.1,0-0.1c0.1-0.1,0.3-0.3,0.5-0.5c-0.2-0.2-0.3-0.4-0.4-0.4c-0.2,0.2-0.4,0.3-0.5,0.4
		c-0.5,0.3-1,0-1.5,0.1c-0.3,0.1-0.5,0.1-0.8,0.2c-0.1-0.1-0.3-0.2-0.6-0.4c0,0.3,0,0.4,0,0.4c-0.2-0.1-0.4-0.3-0.6-0.2
		c-0.2,0.1-0.4,0.3-0.6,0.5c0-0.1,0-0.1-0.1-0.2c0.1-0.1,0.1-0.3,0.2-0.4c-0.7,0.1-1.4,0.3-2,0.4C194.2,58.6,194.2,58.9,194.2,59.2z
		 M198.2,21c0.3-0.2,0.3-0.2,0.3-0.7c0-0.1,0.1-0.2,0.2-0.3c0,0,0.1,0,0.2,0.1c0.2,0.3,1.1,0.5,1.4,0.3c0.3-0.1,0.6-0.1,0.8-0.1
		c0,0.1,0,0.1,0,0.2c-0.1,0-0.2,0.1-0.4,0.2c1.2-0.1,2.2-0.3,3.3-0.4c0-0.1,0-0.1,0.1-0.2c-0.2-0.2-0.5-0.3-0.8-0.5
		c0.2-0.2,0.3-0.3,0.5-0.4c-0.3-0.1-0.6-0.1-1-0.2c0.2-0.3,0.3-0.4,0.5-0.5c-0.7-0.8-5.2-0.9-7-0.2c0.2,0.2,0.4,0.3,0.6,0.4
		c-0.1,0.4-0.4,1.2-0.7,1.4c0.2,0,0.4,0,0.5-0.1c0,0.1,0.1,0.2,0.1,0.2c-0.2,0.2-0.5,0.4-0.6,0.6c0.2,0.2,0.5,0.4,0.7,0.6
		c0,0.1,0,0.1,0,0.2c-1.2,0.1-2.4,0.2-3.6,0.3c0-0.1,0-0.2,0-0.3c0.9-0.1,1.7-0.3,2.6-0.4c0-0.1,0-0.1,0-0.2
		c-1.2,0.1-2.3,0.2-3.5,0.3c0,0.1,0,0.2,0,0.2c0.5,0,0.5,0,0.8,0.6c0.1,0.1,0.2,0.2,0.2,0.2c0.7,0,1.5-0.1,2.2-0.2
		c1.1-0.1,2.2-0.1,3.2-0.2c0.1,0,0.2-0.1,0.2-0.2c0-0.1,0-0.2,0-0.2c-0.3,0-0.7,0.1-1,0.1c-0.3,0-0.7,0.1-1-0.4
		c0.8-0.4,1.1-0.9,0.9-1.7c0.2,0,0.4,0,0.4,0c-0.1,0.3-0.1,0.5-0.2,0.8C198.2,20.4,198.2,20.7,198.2,21z M55.2,67
		c-0.4,0-0.8-0.1-1.1-0.1c-0.7-0.1-1.3-0.1-2-0.2c-0.3,0-0.6-0.3-0.9-0.2c-0.5,0.3-1,0.2-1.5,0.2c-0.6,0-1.3,0-1.9,0
		c0.3,0.4,0.6,0.8,0.9,0.8c0.5,0.1,1.1-0.1,1.6,0c1.1,0.3,2.2-0.3,3.4,0c0.1,0,0.3-0.2,0.4-0.3c0.1,0,0.3,0,0.4,0
		c0.3,0,0.6,0.2,0.8,0.1c0.3,0,0.6-0.2,0.9-0.2c0.4,0.1,0.7-0.1,0.9-0.7c-0.7,0-1.4,0-2.1,0C55.2,66.6,55.2,66.8,55.2,67z
		 M202.6,58.8c0.9-1,1.1-1,2.1-0.1c0.2,0.1,0.5,0.2,0.6,0.1c0.3-0.3,0.6-0.4,0.9-0.3c0-0.2,0-0.4,0-0.4c0.4,0,0.8-0.1,1.1-0.1
		c0-0.1,0-0.1,0-0.2c-0.1-0.1-0.3-0.2-0.5-0.4c0.2,0,0.4-0.1,0.5-0.1c-0.6-0.2-1.2-0.2-1.7-0.3c-1-0.2-1.9,0.9-3,0.5
		c0,0,0,0.1-0.1,0.2c0.1,0.1,0.2,0.2,0.4,0.3c-0.2,0.1-0.4,0.1-0.5,0.1C202.5,58.3,202.6,58.6,202.6,58.8z M73.5,3.6
		c0-0.1,0-0.2,0-0.3c-0.3,0-0.7,0-1,0c-0.7,0-1.4-0.1-2-0.1c-0.8,0-1.6-0.1-2.4-0.1c-1.2,0-2.4,0-3.6-0.1c-0.6,0-1.5,0.2-1.8,0.7
		c1,0,2,0,3,0c0.7,0,1.4-0.3,2.1-0.3c0.9,0,1.8,0.1,2.7,0.2c0.6,0,1.2,0,1.8,0C72.8,3.6,73.1,3.6,73.5,3.6z M97,67.2
		c0.5,1.3,0.7,1.4,1.5,1.1c0.1,0,0.2,0,0.2,0c0.8,0.3,1.5,0,2.2-0.2c-0.2-1.1-0.7-0.9-1.2-0.7c-0.4,0.1-0.8,0.3-1.2,0.2
		C98,67.6,97.6,67.4,97,67.2z M211.7,55.8c0.4-0.4,0.7-0.7,1.1-1.1c0,0.1,0,0.1,0.1,0.2c0,0.2-0.1,0.4-0.1,0.5
		c0,0.1,0.1,0.1,0.1,0.2c0.4-0.2,0.8-0.4,1.4-0.6c-0.3-0.1-0.4-0.2-0.5-0.2c0.2-0.3,0.5-0.7,0.8-1.1c-0.2-0.2-0.3-0.8-0.8-0.3
		c-0.3,0.3-0.8,0.2-0.9,1c0,0,0,0,0,0c-0.4,0.1-0.8,0.2-1.2,0.3C211.5,55.1,211.6,55.4,211.7,55.8z M170.8,66.9c0,0,0-0.1,0-0.1
		c-0.9-0.1-1.8-0.3-2.7-0.3c-0.9,0-1.7,0.2-2.6,0.3c0,0,0,0,0,0.1c0.8,0.1,1.5,0.1,2.4,0.2c-0.2,0.2-0.4,0.4-0.5,0.5
		c0,0.1,0,0.1,0,0.2c1,0,2,0,2.9,0c0-0.1,0-0.1,0-0.2c-0.5,0-1,0-1.6,0c0-0.1,0-0.2,0-0.3C169.4,67.2,170.1,67.1,170.8,66.9z
		 M172.2,67.4c0,0,0-0.1,0-0.1c0.8,0,1.5,0,2.3,0c0-0.3-0.1-0.5-0.3-0.5c-0.6-0.1-1.3-0.2-1.9-0.2c-0.4,0-0.7,0.6-0.6,1.2
		c0.1,0.6,0.4,0.1,0.6,0.1c0.1,0,0.3,0,0.4,0.1c0.6,0,1.2,0.1,1.8,0.1c0.1,0,0.2-0.1,0.2-0.2c0,0,0-0.1,0-0.1
		C173.9,67.6,173.1,67.5,172.2,67.4z M54.7,6.3c0-0.1,0-0.1,0-0.2c-2.3,0-4.6,0-6.9,0C50.1,6.6,52.4,6.4,54.7,6.3z M185.4,25.9
		c-0.5-0.1-1-0.2-1.6-0.4c0.1-0.1,0.2-0.2,0.3-0.3c-0.5-0.4-2.2-0.2-2.4,0.2C182.9,26.5,184.2,25.9,185.4,25.9z M83.8,4.1
		c0-0.1,0-0.2,0-0.3c-1.7,0.1-3.4,0.2-5.1,0.3c0,0.1,0,0.2,0,0.2c0.1,0,0.1,0,0.2,0c1.3,0,2.5,0.1,3.8,0.1C83,4.4,83.4,4.2,83.8,4.1
		z M196.9,53.1c0,0.1,0,0.2,0,0.2c-0.2,0-0.4,0.1-0.6,0.1c1,0.6,2,0.6,2.2,0.1c-0.2,0-0.4-0.1-0.7-0.2c0-0.1,0-0.1,0-0.2
		c0.2,0,0.4-0.1,0.6-0.1c0-0.1,0-0.1,0-0.2c-0.8-0.1-1.5-0.1-2.3-0.2c0,0.1,0,0.2,0,0.2C196.4,53,196.7,53,196.9,53.1z M117.6,67.9
		c0.5,0,1,0,1.5,0c0-0.1,0-0.2,0-0.3c-0.2-0.1-0.4-0.2-0.6-0.2c-0.6,0-1.1-0.1-1.7-0.1c-0.1,0-0.2,0.4-0.2,0.6
		c0,0.2,0.2,0.5,0.2,0.5c0.3-0.1,0.7-0.2,1.1-0.3C117.7,68,117.7,68,117.6,67.9z M105.3,65.8c-1.1-0.2-2.2-0.5-3.3,0.6
		C103.2,66.6,104.2,65.9,105.3,65.8z M208.4,55.2c0.3,0,0.6-0.2,0.8,0c0.5,0.5,0.9-0.1,1.4-0.2c0.2-0.1,0.5-0.3,0.7-0.5
		C210.5,53.9,209.7,54,208.4,55.2z M107,66.4C107,66.5,107,66.5,107,66.4c1.6,0.1,3.3,0.1,4.9,0.1c-0.1-0.3-0.2-0.5-0.2-0.7
		C110.2,66,108.6,66.2,107,66.4z M202.5,11.3c0-0.1,0-0.2,0-0.3c-1.6,0-3.2,0-4.9,0c0,0.1,0,0.2,0,0.3
		C199.2,11.3,200.9,11.3,202.5,11.3z M188.5,13.9c0,0.1,0,0.3,0,0.4c0.8-0.5,1.3,0.4,2,0.3c0,0,0.1-0.1,0.1-0.1c0,0,0.1-0.1,0.1-0.2
		c-0.1-0.1-0.2-0.2-0.3-0.3c0.2-0.1,0.3-0.2,0.4-0.3c0-0.1-0.1-0.2-0.1-0.3C189.9,13.5,189.2,13.7,188.5,13.9z M215.6,53.3
		c0.3-0.3,0.5-0.5,0.8-0.8c0-0.1,0-0.1,0-0.2c-0.6,0.1-1.1,0.1-1.7,0.2c0,0.1,0,0.1,0,0.2c0.2,0.1,0.3,0.3,0.5,0.5
		c-0.2,0.1-0.3,0.2-0.6,0.4c0.5,0.1,0.9,0.6,1.1-0.2C215.7,53.4,215.6,53.3,215.6,53.3z M212.6,43c0,0.1,0,0.1,0,0.2
		c0.4-0.1,0.8-0.2,1.2-0.2c0.4-0.1,0.7-0.3,0.7-0.9c0-0.3-0.2-0.6-0.2-0.9c-0.2,1-0.5,1-1,0.9c-0.2,0-0.4,0.2-0.6,0.2
		c0,0.1,0,0.1,0,0.2c0.5-0.1,1.1-0.1,1.6-0.2c0,0.1,0,0.2,0,0.2C213.7,42.7,213.1,42.9,212.6,43z M7.9,25.4c0,0.1,0,0.2,0,0.2
		c1.5-0.1,2.9-0.3,4.4-0.4c0-0.1,0-0.2,0-0.3C10.8,25,9.3,25.2,7.9,25.4z M175.2,66.2c0-0.1,0-0.1,0-0.2c-1,0-2.1,0-3.1,0
		C173.1,66.4,174.1,66.5,175.2,66.2z M146.7,4c0,0.1,0,0.1,0,0.2c0.8,0,1.7,0,2.5,0c0.4,0,0.5-0.3,0.6-0.6
		C148.8,3.7,147.7,3.9,146.7,4z M138.8,3.3c-0.9-0.1-1.8-0.3-2.6-0.4c0,0.1,0,0.2,0,0.4c0.9,0.2,1.8,0.3,2.7,0.5
		C138.8,3.5,138.8,3.3,138.8,3.3z M125.1,3.6c-0.3-0.3-0.5-0.4-0.6-0.6c0,0,0-0.1,0-0.1c0.1,0,0.3,0.1,0.4,0.1
		c0.1-0.2,0.2-0.4,0.4-0.8c-0.5,0.2-1,0.3-1.3,0.5c-0.1,0.3-0.1,0.6-0.2,0.8C124.2,3.6,124.6,3.6,125.1,3.6z M123.6,3.5
		c-0.3-0.8-1.1-1-1.6-0.6c0.2,0.1,0.4,0.1,0.6,0.2c0,0,0,0.1,0,0.1c-0.1,0-0.3,0-0.4,0.1c0,0.1,0,0.2,0,0.2
		C122.6,3.5,123.1,3.5,123.6,3.5z M197,63.1c0,0.1,0,0.2,0,0.2c0.8,0,1.7,0,2.5,0c0-0.1,0-0.2,0-0.2C198.7,63.1,197.8,63.1,197,63.1
		z M67,4.3c-0.7,0.1-1.3,0.3-1.9,0.4c0.9,0,1.8,0,2.7,0c0-0.1,0-0.1,0-0.2C67.5,4.4,67.2,4.4,67,4.3z M202.4,52.1
		c-0.5-0.2-0.8-0.3-1.2-0.4c0.1,0.2,0.3,0.3,0.4,0.4c0.1,0.1,0.2,0.3,0.4,0.5c-0.4,0.1-0.8,0.1-1.2,0.1c0,0.1,0,0.2,0,0.2
		c0.5-0.1,1.1-0.1,1.7-0.2c-0.2-0.2-0.4-0.3-0.5-0.5C202.2,52.3,202.2,52.3,202.4,52.1z M186.1,59.8c-0.3,0.1-0.5,0.1-0.7,0.2
		c-0.1,0.1-0.2,0.2-0.3,0.3c0.1,0,0.3,0.1,0.4,0.1c0.2,0,0.4-0.1,0.6-0.2c0,0.1,0,0.1,0,0.2c-0.1,0.1-0.1,0.1-0.2,0.2
		c0,0.1,0.1,0.1,0.1,0.2c0.2-0.2,0.5-0.4,0.7-0.7C186.4,60,186.2,59.9,186.1,59.8z M23,63.6c0-0.1,0-0.2,0-0.3
		c-0.7,0.2-1.4-0.1-2.1,0.2c0,0.1,0,0.2,0,0.3C21.6,63.7,22.3,63.7,23,63.6z M151.2,3.6c0,0.1,0,0.1,0,0.2c1,0,2.1,0,3.1,0
		c0-0.1,0-0.1,0-0.2C153.3,3.6,152.3,3.6,151.2,3.6z M213.3,51.9c0.2-0.2,0.6-0.5,0.9-0.8c-0.2-0.2-0.3-0.3-0.5-0.3
		c-0.2,0-0.3,0.1-0.5,0.1c-0.1,0-0.1,0.2-0.1,0.3C213.2,51.4,213.2,51.5,213.3,51.9z M208.2,55.6c-0.6,0.1-1.3,0.3-2,0.4
		C207.1,56.6,207.8,56.4,208.2,55.6z M215,39.9c-0.4-0.2-0.8-0.4-1.2-0.6c0,0,0,0.1,0,0.1c0.1,0.1,0.2,0.2,0.2,0.2
		c-0.1,0.3-0.2,0.5-0.3,0.8C214,40.2,214.4,40.1,215,39.9z M62.1,5.8c0-0.1,0-0.1,0-0.2c-0.8,0-1.5,0-2.3,0c0,0.1,0,0.1,0,0.2
		C60.5,5.8,61.3,5.8,62.1,5.8z M191.5,28.1c0,0.1,0,0.2,0,0.3c1-0.1,2-0.2,3-0.2c0,0,0,0,0-0.1C193.5,28.1,192.5,28.1,191.5,28.1z
		 M192.2,58.8c0.6,0,1.1,0,1.7,0C193.6,58.2,192.8,58.2,192.2,58.8z M136.3,3.7c-0.2-0.7-0.5-0.9-0.9-0.6c-0.1,0-0.2,0.2-0.2,0.4
		c0,0.1,0.1,0.3,0.2,0.3C135.6,3.7,135.9,3.7,136.3,3.7z M44.9,6.4c0.8,0,1.5,0,2.2,0c0-0.1,0-0.2,0-0.3C46.4,6.1,45.7,5.9,44.9,6.4
		z M206.2,18.2c0-0.1,0-0.2,0-0.3c-0.7,0.1-1.4,0.2-2.1,0.3c0,0.1,0,0.2,0,0.3C204.8,18.3,205.5,18.3,206.2,18.2z M122.6,4
		c0-0.1,0-0.1,0-0.2c-0.8,0-1.5-0.1-2.3,0.2C121.1,4,121.8,4,122.6,4z M197.1,26c0-0.1,0-0.1,0-0.2c-0.7,0-1.4,0-2.1,0
		c0,0.1,0,0.1,0,0.2C195.7,26,196.4,26,197.1,26z M113.6,2.5c0.6,0.2,1.2,0.8,1.8,0.3C114.8,2.6,114.2,2.5,113.6,2.5z M77.4,65.3
		c0,0.1,0,0.1,0,0.2c0.7,0,1.5,0,2.2,0c0-0.1,0-0.1,0-0.2C78.9,65.3,78.2,65.3,77.4,65.3z M212.5,53.3c0-0.1,0-0.2-0.1-0.3
		c-0.6,0.3-1.1,0.5-1.7,0.8c0,0.1,0,0.2,0.1,0.3C211.4,53.8,211.9,53.5,212.5,53.3z M144.1,66.7c0.8,0.4,1,0.2,1-0.6
		c-0.3,0-0.6,0-1.1,0c0.2,0.1,0.3,0.2,0.4,0.3C144.3,66.5,144.2,66.6,144.1,66.7z M197.8,12.3c0.7,0,1.3,0.1,1.9,0.1
		C199.5,11.9,198.5,11.9,197.8,12.3z M204.8,24.6c0-0.1,0-0.2,0-0.3c-0.6-0.2-1.2,0.1-1.8,0.3C203.7,24.6,204.2,24.6,204.8,24.6z
		 M214.5,43.7c0.3,0,0.6,0,0.9,0c0-0.1,0-0.2,0.1-0.2c-0.3-0.2-0.5-0.4-0.8-0.6C214.6,43.2,214.6,43.4,214.5,43.7z M151.2,66.2
		c0.5,0,1,0.1,1.6,0.2C152.3,65.4,151.8,66.1,151.2,66.2z M84.3,65.5c0-0.1,0-0.1,0-0.2c-0.7,0-1.5,0-2.2,0c0,0.1,0,0.1,0,0.2
		C82.9,65.5,83.6,65.5,84.3,65.5z M78.4,4.3c0-0.1,0-0.1,0-0.2c-0.8,0-1.6,0-2.4,0c0,0.1,0,0.1,0,0.2C76.8,4.3,77.6,4.3,78.4,4.3z
		 M204.4,56.3c0,0.1,0,0.3,0,0.4c0.5-0.1,0.9-0.1,1.4-0.2c0-0.1,0-0.2,0-0.3C205.3,56.3,204.8,56.3,204.4,56.3z M11.4,20
		c0.5,0.5,1.4,0.4,1.8-0.1C12.6,19.9,12.1,19.9,11.4,20z M119.2,66.2c0-0.1,0-0.1,0-0.2c-0.6,0-1.1,0-1.7,0c0,0.1,0,0.1,0,0.2
		C118,66.2,118.6,66.2,119.2,66.2z M53.7,65.8c0.4,0.2,0.7,1,1.2,0.2C54.4,65.9,54,65.8,53.7,65.8z M195.4,24.2c0-0.1,0-0.2,0-0.3
		c-0.6,0.1-1.2,0.1-1.8,0.2c0,0.1,0,0.2,0,0.2C194.2,24.3,194.8,24.3,195.4,24.2z M119.5,3c0,0,0,0.1,0,0.1c0.4,0.1,0.8,0.2,1.2,0.3
		c0-0.2,0-0.4,0-0.6C120.4,2.9,119.9,2.9,119.5,3z M119.2,65.6c0-0.1,0-0.1,0-0.2c-0.5,0-1.1,0-1.7,0c0,0.1,0,0.1,0,0.2
		C118.1,65.6,118.7,65.6,119.2,65.6z M200,28.4c0-0.1,0-0.1,0-0.2c-0.4,0-0.8,0-1.3,0c0,0.1,0,0.1,0,0.2
		C199.2,28.4,199.6,28.4,200,28.4z M201.6,23.9c0-0.1,0-0.1,0-0.2c-0.4,0.1-0.8,0.1-1.3,0.2c0.3,0.2,0.5,0.4,0.5,0.5
		C201.2,24.2,201.4,24.1,201.6,23.9z M138.8,4.2c0.7,0,1.2,0,1.9,0c-0.2-0.3-0.3-0.5-0.5-0.7C139.9,4.7,139.3,3.9,138.8,4.2z
		 M48.8,64.2c0,0.1,0,0.1,0,0.2c0.6,0,1.1,0,1.7,0c0,0,0-0.1,0-0.1C50,64.2,49.4,64.2,48.8,64.2z M100.6,3.4
		C100,3.1,99.5,3,98.9,3.6C99.5,3.5,100.1,3.5,100.6,3.4z M215.3,55c0-0.1,0-0.1-0.1-0.2c-0.4,0.2-0.9,0.1-1.1,0.9
		C214.5,55.4,214.9,55.2,215.3,55z M193.6,20.4c0,0.1,0,0.1,0,0.2c0.6,0,1.1,0,1.7,0c0-0.1,0-0.1,0-0.2
		C194.8,20.4,194.2,20.4,193.6,20.4z M208,20.8c0,0.1,0,0.2,0,0.3c0.4,0,0.8,0.1,1.2,0.1c0-0.1,0-0.2,0-0.2
		C208.8,20.9,208.4,20.9,208,20.8z M204,62.7c-0.9-0.6-1.1-0.6-1.4,0C203,62.7,203.5,62.7,204,62.7z M203.3,29.3c0-0.1,0-0.2,0-0.3
		c-0.4,0.1-0.9,0.2-1.3,0.3c0,0.1,0,0.2,0,0.3C202.4,29.5,202.9,29.4,203.3,29.3z M123.1,3.9c0,0.1,0,0.1,0,0.2c0.5,0,1.1,0,1.6,0
		c0-0.1,0-0.1,0-0.2C124.1,3.9,123.6,3.9,123.1,3.9z M209.8,24.3c0-0.1,0-0.2,0-0.3c-0.4,0.1-0.8,0.1-1.2,0.2c0,0.1,0,0.3,0,0.4
		C209.1,24.5,209.5,24.4,209.8,24.3z M161.3,67.3c-0.2-0.7-0.5-0.4-0.9-0.4C160.6,67.7,161,67.2,161.3,67.3z M196.8,63.5
		c0-0.1,0-0.2,0-0.3c-0.4,0-0.7,0-1.1,0c0,0.1,0,0.1,0,0.2C196.1,63.5,196.4,63.5,196.8,63.5z M207.7,38.6c0-0.1,0-0.2-0.1-0.4
		c-0.4,0.1-0.7,0.2-1.1,0.3c0,0.1,0,0.2,0,0.3C207,38.8,207.3,38.7,207.7,38.6z M113.8,65.6c0,0.1,0,0.2,0,0.4c0.3,0,0.6,0.1,1,0.1
		c0-0.1,0-0.2,0-0.4C114.4,65.7,114.1,65.6,113.8,65.6z M136.3,66.5c0,0.1,0,0.1,0,0.2c0.6,0,1.2-0.1,1.7-0.1c0,0,0-0.1,0-0.1
		C137.4,66.5,136.8,66.5,136.3,66.5z M205.1,25.3c0-0.1,0-0.2,0-0.3c-0.6,0-1.1,0-1.7,0c0,0,0,0.1,0,0.1
		C204,25.2,204.6,25.2,205.1,25.3z M106.4,65.6c0-0.1,0-0.2,0-0.3c-0.4,0-0.7,0-1.1,0c0,0.1,0,0.1,0,0.2
		C105.7,65.5,106.1,65.5,106.4,65.6z M60.6,66.9c0,0.1,0,0.1,0,0.2c0.5,0,0.9,0,1.4,0c0-0.1,0-0.1,0-0.2
		C61.5,66.9,61,66.9,60.6,66.9z"/>
	<path class="st0" d="M22.8,4c-0.1-0.1-0.3-0.2-0.5-0.4c1.4-0.5,2.6-0.1,3.8-0.1c0,0.1,0,0.1,0,0.2c-0.4,0-0.7,0.1-1.1,0.1
		c0,0,0,0,0,0c5.4,0.3,10.8,0.7,16.2,1c0,0.1,0,0.1,0,0.2c-0.2,0-0.3,0.1-0.5,0.1c-0.4,0-0.8,0-1.2,0c-1.1,0-2.1-0.1-3.2-0.1
		c-0.5,0-0.9,0.1-1.4,0.1c-1.5,0-3.1-0.1-4.6-0.2c-0.7,0-1.4,0-2.2,0c-1.4-0.1-2.8-0.1-4.2-0.2c-1.4-0.1-2.8-0.2-4.2-0.3
		c-1,0-2,0.1-3,0.1c0.6-0.2,1.3-0.4,1.9-0.5c0.7-0.1,1.4,0,2.1-0.2c0.6-0.1,1.3-0.1,1.9,0.2C22.8,4.1,22.8,4.1,22.8,4z"/>
	<path class="st0" d="M87.6,69.4C87.6,69.4,87.6,69.4,87.6,69.4C87.5,69.4,87.5,69.4,87.6,69.4c0,0.1,0.1,0.2,0.3,0.3
		c-0.3,0.1-0.7,0.3-1.1,0.5c0.2-0.3,0.3-0.4,0.5-0.5c-0.6-0.2-1.3-0.4-1.9-0.5c-0.2,0-0.4,0.2-0.6,0.3c-0.7,0-1.3,0-2,0
		c-0.8,0-1.6,0.1-2.3,0.1c-0.7,0-1.3-0.1-2-0.1c-0.9,0-1.8-0.1-2.7-0.1c0,0,0,0,0,0c0-0.2-0.1-0.4-0.1-0.7c0.5,0,1.1,0,1.6,0
		c0.6,0,1.2-0.1,1.8-0.1c0.1,0,0.2-0.1,0.2,0c0.7,0.6,1.4-0.3,2.1-0.3c0.1,0,0.3-0.1,0.4,0c0.5,0.3,0.9,0.1,1.4-0.1
		c0.5-0.2,0.7-0.7,1-1.3c0.1-0.3,0.5-0.3,0.8-0.3c0.3,0,0.5,0.2,0.9,0.4c0,0.1,0,0.3-0.1,0.6c-0.6,0-1.1,0-1.7,0c0,0.1,0,0.1,0,0.2
		c0.4,0.1,0.9,0.2,1.3,0.3c0,0,0,0.1,0,0.1c-0.2,0-0.3,0.1-0.5,0.1c0,0.1,0,0.1,0,0.2c0.6,0.1,1.2,0.1,1.9,0.2
		c-0.2,0.2-0.3,0.4-0.5,0.7c0.4,0,0.8,0,1.2,0C87.5,69.2,87.5,69.3,87.6,69.4L87.6,69.4z"/>
	<path class="st0" d="M191.7,4.3c-0.8,0-1.6,0-2.4,0c-0.6,0-1.2,0-1.9,0.1c-0.5,0-0.9,0.2-1.4,0c-0.6-0.2-1.2,0.1-1.8,0
		c-0.8-0.1-1.7,0.1-2.5-0.5c-0.3-0.3-0.5,0-0.8,0.3c-0.2,0.2-0.4,0.4-0.7-0.1C180.3,3.9,180,4,179.8,4c0,0.1,0,0.2,0,0.2
		c0.1,0.1,0.2,0.1,0.3,0.2c0,0,0,0.1,0,0.1c-0.7,0-1.3,0-2.1,0c0-0.2-0.1-0.5-0.2-0.8c-0.1,0-0.2,0.1-0.3,0.1c0-0.1,0-0.2-0.1-0.3
		c0.1-0.1,0.4-0.1,0.4-0.2c0.1-0.8,0.5-0.5,0.7-0.5c0.6,0.1,1.2,0.2,1.8,0.4c0,0.5,0,0.5,0.6,0.5c0.6-0.4,1.1,0,1.7,0.1
		c-0.2-0.2-0.3-0.3-0.5-0.5c0,0,0.1-0.1,0.1-0.1c2.6,0,5.3,0,7.9,0c0,0.1,0,0.2,0,0.3c-0.7,0.1-1.5,0.2-2.2,0.3c0,0,0,0.1,0,0.1
		c0.5,0,1,0,1.5,0c0.6,0,1.2-0.1,1.7-0.2C191.5,3.6,191.7,3.8,191.7,4.3L191.7,4.3z"/>
	<path class="st0" d="M110,69.1c-1.9,0.1-3.7,0.2-5.6,0.3c0-0.1,0-0.2,0-0.3c0.1,0,0.3-0.1,0.4-0.1c0,0,0-0.1,0-0.1
		c-0.5,0-0.9,0-1.4,0c0.2-0.1,0.3-0.2,0.4-0.2c0.5,0.1,0.9-0.4,1.3-0.5c0.5-0.1,1.1-0.3,1.7-0.1c0.5,0.2,1.1,0.1,1.7,0.1
		c0.2,0,0.4,0,0.7-0.1c0,0.1,0,0.1,0,0.2c-0.3,0.1-0.5,0.1-0.8,0.2c0,0.1,0,0.2,0,0.2c0.6,0,1.2,0,1.7,0C110,68.9,110,69,110,69.1z"
		/>
	<path class="st0" d="M30.7,64.4c-0.2,0-0.3,0.1-0.5,0.1c-0.1,0-0.2,0-0.4-0.1c0,0.1,0,0.2,0,0.2c0.7,0.1,1.3,0.2,2,0.3
		c0,0.1,0,0.2,0,0.2c-1.8-0.7-3.6,0.5-5.4-0.1c0.2-0.1,0.3-0.2,0.6-0.4c-0.2-0.1-0.3-0.2-0.4-0.2c-0.5,0.2-0.8-0.4-1.1-0.5
		c-0.1-0.1-0.2-0.2-0.3-0.3c-0.2-0.5,0.1-0.4,0.2-0.4c0.3,0.1,0.7,0.4,1,0.4c0.5,0.1,1,0,1.4,0.1c0.2,0.1,0.5,0.5,0.7,0.4
		c0.7-0.4,1.3-0.4,1.9,0.1C30.6,64.5,30.7,64.4,30.7,64.4L30.7,64.4z"/>
	<path class="st0" d="M94.1,66.4c0.3,0,0.6,0,1-0.1c-0.1,0.2-0.2,0.4-0.3,0.5c0.1,0.1,0.2,0.3,0.3,0.4c-2.8,0-5.7,0.4-8.5-0.3
		c1.2-0.4,2.5,0,3.7-0.8c0.3,0.7,0.8,0.8,1.3,0.8c0.7,0,1.5-0.1,2.2-0.1C94.2,66.9,94.3,66.8,94.1,66.4
		C94.1,66.3,94.1,66.4,94.1,66.4z"/>
	<path class="st0" d="M177.4,3.5c0,0.1,0,0.2,0.1,0.3c0,0.1,0,0.2,0.1,0.3c-0.2,0.1-0.5,0.2-0.8,0.2c0,0.1,0.1,0.2,0.2,0.5
		c-0.8-0.1-1.6-0.1-2.3-0.2c0-0.1,0-0.1,0-0.2c0.6,0,1.2,0,1.8,0c0,0,0-0.1,0-0.1c-0.6-0.1-1.3-0.2-1.9-0.3c0-0.3,0-0.6,0-1
		c-0.3,0.2-0.4,0.3-0.7,0.6c0.3,0,0.4,0,0.5,0c-0.8,0.6-0.9,0.5-1-0.4c1.2-0.8,2.4-0.4,3.6-0.2c-0.1,0-0.3,0-0.4,0
		c-0.1,0-0.3,0.1-0.6,0.3C176.6,3.4,177,3.4,177.4,3.5z"/>
	<path class="st0" d="M75.4,1.1c-1.9,0.3-3.8,0-5.6,0.6c0,0.1,0,0.2,0,0.3c0,0-0.1,0-0.1-0.1c-0.3-0.7-0.7-0.7-1.1-0.5
		c-0.5,0.2-0.4-0.5-0.5-0.8c0.2-0.1,0.3-0.3,0.5-0.2c0.6,0.3,1.2,0.7,1.8,0.2c0.1-0.1,0.3-0.2,0.5-0.1c0.7,0.5,1.5,0,2.2,0.1
		C73.8,0.9,74.6,1,75.4,1.1z"/>
	<path class="st0" d="M191.8,8c0.6-0.1,1.2-0.2,1.8-0.3c0.1,0,0.1,0,0.2,0c0.3,0.8,0.9,0.4,1.4,0.7c-0.4,0.1-0.7,0.3-1.1,0.4
		c0,0,0,0.1,0,0.1c0.5,0,1,0,1.6,0c0,0.1,0,0.1,0,0.2c-0.2,0-0.5,0.1-0.7,0.1c0,0,0,0.1,0,0.1c0.2,0.1,0.4,0.2,0.6,0.4
		c0,0,0,0.1,0,0.1c-0.3,0-0.5-0.1-0.8-0.1c0,0.1,0,0.2,0,0.3c0.2,0.1,0.4,0.1,0.7,0.2c-0.4,0.1-0.8,0.1-1.1,0.2
		c0-0.1-0.1-0.1-0.1-0.2c0.2,0,0.3-0.1,0.5-0.1c0-0.1-0.1-0.2-0.1-0.3c-0.3-0.1-0.6-0.3-0.8-0.1c-0.4,0.3-0.6-0.3-0.8-0.5
		c-0.1-0.1,0.1-0.6,0.1-0.9c-0.4,0-0.9,0-1.4,0C191.8,8.2,191.8,8.1,191.8,8z"/>
	<path class="st0" d="M43.4,3.3c-0.8,0-1.6,0-2.5,0c-0.6,0-1.2,0-1.7,0c-0.6,0-1.2,0.1-1.9,0.2c-0.3,0-0.6,0.1-0.9,0
		c-0.1,0-0.2-0.3-0.3-0.6c0-0.1,0-0.3,0-0.5c0.1,0,0.3,0,0.4,0.1c0.6,0.2,1.2,0.7,1.8,0.1c0.1-0.1,0.3-0.1,0.4-0.1
		c0.7,0.5,1.4,0,2.1,0.1c0.7,0.1,1.3,0.1,2,0.2c0.2,0,0.4,0.1,0.5,0.1C43.4,3.2,43.4,3.3,43.4,3.3z"/>
	<path class="st0" d="M200.2,67c-0.8-0.4-1.6,0.3-2.5,0.4c-0.8,0.1-1.7,0.2-2.5,0.1c0.3-0.1,0.7-0.2,1-0.2c1.2-0.2,2.3-0.4,3.5-0.6
		c0.2,0,0.5-0.2,0.7-0.3c0.2-0.1,0.4-0.1,0.6-0.2c0,0.1,0,0.1,0,0.2c-0.3,0.1-0.5,0.3-0.9,0.4c0.4,0,0.7,0,1,0.1
		c-0.7,0.6-5.2,1.6-5.9,1.2c1.7-0.3,3.4-0.6,5-0.9C200.2,67.2,200.2,67.1,200.2,67z"/>
	<path class="st0" d="M87.6,69.4c0.4-0.1,0.7-0.3,1.3-0.5c-0.5,0-0.9,0-1.2,0c0-0.1,0-0.1,0-0.2c0.4-0.1,0.8-0.1,1.2-0.2
		c0.3-0.1,0.7-0.2,0.9-0.4c0.4-0.4,0.7-0.2,1.1,0.7c-0.6,0-1.2,0-1.7,0c0,0.1,0,0.2,0,0.2c0.2,0.1,0.5,0.1,0.7,0.2
		c-0.5,0.5-1,0.6-1.5,0.3C88.1,69.5,87.8,69.5,87.6,69.4C87.6,69.4,87.6,69.4,87.6,69.4z"/>
	<path class="st0" d="M35.1,4c-2-0.1-4-0.3-5.9-0.4c0,0.1,0,0.1,0,0.2c0.5-0.4,1.1-0.8,1.6-1.1c0.3-0.2,0.6-0.3,0.8,0.4
		c0,0.1,0.1,0.1,0.2,0.1c0.6-0.1,1.2,0.3,1.7,0.4c0.4,0.1,0.9,0,1.3,0c0.1,0,0.2,0.1,0.3,0.1C35.2,3.8,35.2,3.9,35.1,4z"/>
	<path class="st0" d="M66.6,2.3c-0.4-0.2-0.8-0.4-1.3-0.5c-0.9-0.2-1.8-0.3-2.7-0.3c-0.4,0-0.9,0.2-1.4,0.2c0.6-0.4,1.1-0.8,1.6-1.1
		c0.3-0.1,0.6-0.2,0.8,0.4c0,0.1,0.3,0,0.5,0c0.9,0.6,2,0.7,3,0.5c0,0.1,0,0.2,0,0.3c-0.2,0-0.3-0.1-0.5-0.1
		C66.7,2,66.6,2.1,66.6,2.3C66.6,2.3,66.6,2.3,66.6,2.3z"/>
	<path class="st0" d="M156.6,3c-0.8-0.1-1.6-0.3-2.4-0.4c0,0,0-0.1,0-0.1c0.6-0.1,1.1-0.1,1.7-0.2c0.5-0.1,0.9-0.3,1.4-0.6
		c0.4,0,0.9,0,1.3,0c0,0.1,0,0.1,0,0.2c-0.1,0.1-0.3,0.1-0.6,0.3c0.2,0.1,0.4,0.2,0.6,0.3c-0.8,0-1.4,0-2.1,0
		C156.6,2.7,156.6,2.9,156.6,3C156.6,3.1,156.6,3,156.6,3z"/>
	<path class="st0" d="M144.8,0.9c2,0,3.9,0,5.9,0c-0.3,0.1-0.5,0.4-0.7,0.3c-0.4-0.3-0.8,0-1.2,0.1c0,0,0,0.1,0,0.1
		c0.1,0,0.1,0.1,0.2,0.1c0,0.1,0,0.1-0.1,0.2c-0.2-0.2-0.3-0.3-0.5-0.5c-0.1-0.1-0.2-0.2-0.4-0.1c-0.7,0.1-1.4,0.4-2.1,0.2
		c-0.4-0.1-0.9,0.2-1.3-0.2C144.8,1.1,144.8,1,144.8,0.9z"/>
	<path class="st0" d="M147.9,70.3c0-0.1,0.1-0.3,0.1-0.3c0.9-0.2,1.8-0.3,2.7-0.5c0.9-0.2,1.7-0.4,2.6-0.6c0.2,0,0.4,0,0.6,0
		c0,0.1,0,0.3,0,0.4C151.9,69.6,149.9,69.9,147.9,70.3z"/>
	<path class="st0" d="M27.9,69.7c-1.6,0.1-3.1,0.6-4.7,0.3c0-0.1,0-0.1,0-0.2c0.6-0.1,1.2-0.3,1.8-0.4c0.1,0,0.1-0.1,0.1-0.1
		C26,70,27,69.5,27.9,69.7C27.9,69.6,27.9,69.7,27.9,69.7z"/>
	<path class="st0" d="M66.9,70.7c1.9-0.7,3.9-0.4,5.7-1.2c0.1,0,0.1,0.1,0.2,0.2c0,0.1,0,0.2,0,0.3c-2,0.3-4,0.7-5.9,1
		C66.9,70.8,66.9,70.8,66.9,70.7z"/>
	<path class="st0" d="M202.9,8.9c-0.7,0.2-1.3,0.8-2,0.4c0-0.4,0.1-0.7,0.1-1c0.2,0,0.4,0,0.6,0c0,0.2,0.1,0.5,0.1,0.8
		c0.2-1.2,0.3-1.3,1-1c0.3,0.1,0.8,0,0.9,0.7c-0.4-0.2-0.7-0.3-1.1-0.5c0,0.1,0,0.2,0,0.2C202.6,8.7,202.8,8.8,202.9,8.9z"/>
	<path class="st0" d="M166.9,4.6c-1.5,0-3,0-4.5,0c0-0.1,0-0.2,0-0.3c0.2,0,0.3-0.1,0.5-0.1c0.4,0,0.9,0.2,1.1-0.1
		c0.3-0.5,0.6-0.5,0.9-0.7c0.2-0.1,0.4-0.1,0.6-0.2c0,0.1,0,0.2,0,0.3c-0.3,0.1-0.6,0.2-1,0.3c-0.1,0-0.2,0.2-0.3,0.3
		c0.1,0.1,0.2,0.3,0.3,0.3c0.8,0,1.6,0,2.4,0C166.9,4.5,166.9,4.6,166.9,4.6z"/>
	<path class="st0" d="M111.8,67.9c0.3,0,0.7,0.1,1,0.2c0,0,0,0.1,0,0.1c-0.3,0-0.6,0-0.9,0.1c0,0.2,0,0.4,0.1,0.6
		c0.6-0.1,1.2-0.9,1.8,0.1c-0.6,0.5-2.4,0.3-2.6-0.2C111.4,68.4,111.6,68.2,111.8,67.9z"/>
	<path class="st0" d="M189.5,67.4c-0.1,0.2-0.2,0.4-0.3,0.5c0.1,0.1,0.2,0.2,0.3,0.4c-0.9,0.6-1.8-0.1-2.6,0.2c0-0.1,0-0.2,0-0.3
		c0.6,0,1.3,0,1.9,0c0-0.1,0-0.2,0-0.3c-0.6-0.1-1.3-0.2-1.9-0.2c0-0.1,0-0.1,0-0.2C187.8,67.4,188.6,67.4,189.5,67.4z"/>
	<path class="st0" d="M198.5,2.4c-0.3,0.1-0.6,0.3-0.8,0.2c-0.8-0.1-1.6,0.3-2.4,0.6c-0.2,0.1-0.5,0-0.7-0.1
		c0.3-0.1,0.6-0.2,0.9-0.3c0,0,0-0.1,0-0.1c-0.2-0.1-0.4-0.1-0.5-0.2c0-0.1,0-0.1,0-0.2c1.2,0,2.3,0,3.5,0
		C198.5,2.3,198.5,2.3,198.5,2.4z"/>
	<path class="st0" d="M144.7,70c-0.4,0.1-0.8,0.1-1.2,0.2c0.4,1,1-0.4,1.3,0.5c-0.4,0.1-0.8,0.1-1.3,0.2c0.1,0.2,0.2,0.4,0.3,0.5
		c-0.4,0-0.9-0.1-1.3-0.1c0,0,0-0.1,0-0.1c0.3-0.1,0.5-0.2,0.8-0.4c0,0,0-0.1,0-0.1c-0.2,0-0.5,0-0.7-0.1c0-0.1,0-0.1,0-0.2
		c0.7-0.3,1.4-0.5,2.1-0.8C144.7,69.8,144.7,69.9,144.7,70z"/>
	<path class="st0" d="M21.5,65.6c1.1,0,2.2,0,3.2,0c-1.2,1.1-2.3,0.6-3.5,0.1c0.1-0.2,0.1-0.4,0.2-0.7c0,0,0.1,0,0.1,0.1
		C21.5,65.2,21.5,65.3,21.5,65.6z"/>
	<path class="st0" d="M216,61.9c0.1,0,0.2,0,0.3,0c0-0.1,0.1-0.1,0.1-0.2c-0.1-0.1-0.3-0.2-0.4-0.4c0-0.1,0-0.1,0-0.2
		c0.4,0.1,0.8,0.2,1.1,0.3c0,0,0,0.1-0.1,0.1c0.2,0.2,0.4,0.4,0.6,0.7c-0.2,0-0.4,0-0.5,0c0,0,0,0.1,0,0.1c0.2,0.2,0.4,0.3,0.6,0.5
		c0,0.1,0,0.2-0.1,0.2c-0.6-0.3-1.1-0.7-1.7-1C216,62,216,61.9,216,61.9z"/>
	<path class="st0" d="M171.8,3.5c0-0.2,0.1-0.5,0.1-0.8c0.3,0,0.7,0,1.3,0c-0.2,0.3-0.3,0.5-0.4,0.7c0.1,0,0.2,0.1,0.5,0.2
		c-0.2,0.2-0.3,0.3-0.4,0.3c-0.4,0-0.8-0.1-1.2-0.1C171.8,3.7,171.8,3.6,171.8,3.5z"/>
	<path class="st0" d="M60.6,4.3C61,3.9,61.5,4.1,62,4.2c0.5,0,1.1,0,1.6,0.1c0,0,0.1,0.1,0.2,0.2c-0.8,0.2-1.5,0.4-2.2,0.6
		c0,0-0.1,0-0.2,0c-0.2-0.4-0.4-0.5-0.7-0.4C60.7,4.6,60.6,4.4,60.6,4.3C60.6,4.3,60.6,4.3,60.6,4.3z"/>
	<path class="st0" d="M102.4,1.8c-1.1,0.2-2.1,0.5-3.2,0.7c-0.1,0-0.1-0.2-0.3-0.6c1.3-0.2,2.4-0.3,3.5-0.4
		C102.4,1.6,102.4,1.7,102.4,1.8z"/>
	<path class="st0" d="M20.2,66.2c-0.7-0.2-1.5,0.5-2.3-0.2C18.7,65.1,19.4,65.6,20.2,66.2z"/>
	<path class="st0" d="M1.3,49.9c0.1,0.3,0.3,0.6,0.4,1c-1,0.1-1.4-0.3-1.4-1.5c0.4,1.1,0.6-0.5,0.8-0.2C1.2,49.6,1.3,49.8,1.3,49.9
		C1.3,50,1.3,49.9,1.3,49.9z"/>
	<path class="st0" d="M220.7,48.2c0.3-0.1,0.7-0.2,1.1-0.3c0,0.1,0,0.1,0,0.2c-0.7,0.3-0.8,0.6-0.6,1.4c-0.2,0.2-0.5,0.5-0.8,0.8
		C220.5,49.6,220.6,49,220.7,48.2z"/>
	<path class="st0" d="M189.4,5.6c-0.8,0-1.7,0-2.5,0c-0.1,0-0.3,0-0.4,0.1c-0.4,0.5-0.7,0.1-1.2-0.3c0.8,0,1.5,0,2.1,0
		c0.7,0,1.3,0.1,2,0.1C189.4,5.5,189.4,5.5,189.4,5.6z"/>
	<path class="st0" d="M15.8,68.8c0.4,0.8,0.9,1.3,1.6,1.2c0.1,0,0.3,0.5,0.5,0.5c0.3,0,0.7-0.1,0.9-0.1c-0.2,0.2-0.4,0.5-0.5,0.7
		c-0.6-0.3-1.2-0.7-1.8-0.9C16.1,69.9,15.8,69.5,15.8,68.8z"/>
	<path class="st0" d="M167.6,3.8c-0.1-0.5-0.3-1,0.4-1.2c-0.3,0-0.4,0-0.4,0c0.3-0.5,0.8-0.5,0.9,0c0,0.3,0,0.6,0,0.9
		C168.2,3.6,167.9,3.7,167.6,3.8z"/>
	<path class="st0" d="M107.6,1.7c0.3-0.5,2.2-0.4,2.9,0.3C109.5,2.3,108.6,1.8,107.6,1.7z"/>
	<path class="st0" d="M146.2,69.8c0.4,0.1,0.7,0.2,1.1,0.3c0,0.1,0,0.1,0,0.2c-0.7,0.3-1.4,0.5-2.2,0.9c0.2-0.6,0.3-0.9,0.4-1.2
		C145.9,70.5,146,70.5,146.2,69.8L146.2,69.8z"/>
	<path class="st0" d="M191.7,4.3c0.2,0.1,0.4,0.3,0.7,0.5c-0.3,0-0.4,0-0.6,0c0.1,0.2,0.1,0.3,0.1,0.3c-1.1-0.1-2.2-0.3-3.4-0.4
		c0-0.1,0-0.1,0-0.2c0.4,0,0.8,0,1.2,0c0.6,0,1.2,0.1,1.8,0.1C191.6,4.6,191.7,4.4,191.7,4.3L191.7,4.3z"/>
	<path class="st0" d="M196.8,3.3c-0.4,0.2-0.8,0.3-1.2,0.5c0.2,0,0.4,0,0.7,0c0,0.1,0,0.1,0,0.2c-0.9,0-1.9,0-2.8,0c0,0,0-0.1,0-0.1
		c1.1-0.3,2.2-0.5,3.2-0.8C196.7,3.2,196.7,3.3,196.8,3.3z"/>
	<path class="st0" d="M75.3,68.2c-0.1-0.5-0.1-0.8-0.2-1c0-0.1-0.3,0-0.4,0c-0.5,0-1,0-1.4-0.1c0.7-0.1,1.4-0.2,2.1-0.3
		c0.2,0,0.4,0.3,0.5,0.5c-0.1,0.1-0.3,0.3-0.4,0.4C75.5,67.8,75.5,67.9,75.3,68.2z"/>
	<path class="st0" d="M204,3.9c1.2-0.3,2.4-0.6,3.6-1c0,0.1,0,0.2,0,0.3C206.4,3.7,205.2,4.1,204,3.9z"/>
	<path class="st0" d="M22.4,68.8c-1.6,0.3-2.4,0.1-2.8-0.6C20.6,68.4,21.5,68.6,22.4,68.8z"/>
	<path class="st0" d="M220.5,41.1c-0.1,1.4-0.1,1.4-0.9,0.8c0.1-0.3,0.1-0.6,0.2-1C220,41,220.2,41.1,220.5,41.1z"/>
	<path class="st0" d="M207.6,2.6c-1.2,0.3-2.4,0.6-3.5,0.9c0-0.1,0-0.2,0-0.3c1.2-0.3,2.4-0.7,3.5-1C207.6,2.4,207.6,2.5,207.6,2.6z
		"/>
	<path class="st0" d="M195.1,1.6c1.1,0,2.2,0,3.4,0c-1.1,0.4-2.2,0.4-3.3,0.3C195.1,1.8,195.1,1.7,195.1,1.6z"/>
	<path class="st0" d="M75.7,69.2c-0.9,0.2-1.7,0.4-2.6,0.6c0-0.1,0-0.1,0-0.2c0.2-0.1,0.3-0.1,0.5-0.2c0.3-0.3,0.8,0,0.9-0.8
		c0,0,0.2,0,0.4,0c-0.1,0.2-0.1,0.3-0.2,0.4C75,69.3,75.4,68.7,75.7,69.2C75.7,69.2,75.7,69.2,75.7,69.2z"/>
	<path class="st0" d="M151.4,68.9c0.9-0.4,1.7-0.7,2.5-1c0,0.1,0.1,0.1,0.1,0.2c-0.2,0.2-0.3,0.4-0.5,0.5c-0.5,0.2-1,0.3-1.5,0.4
		C151.8,69,151.6,68.9,151.4,68.9z"/>
	<path class="st0" d="M201.1,12.4c0.3-0.2,0.6-0.4,0.9-0.4c0.2-0.1,0.4,0.1,0.7,0.1c-0.2,0.1-0.5,0.3-0.8,0.5c0,0.2,0,0.4,0,0.5
		c-0.4,0-0.7,0-1.1,0c0-0.1,0-0.1,0-0.2C200.8,12.7,200.9,12.5,201.1,12.4z"/>
	<path class="st0" d="M3,50.2c-0.3,0-0.5-0.1-0.9-0.2c0.1,0.2,0.1,0.3,0.2,0.6c-0.4-0.3-0.7-0.5-1-0.7c0,0,0,0,0,0
		c0.4-0.4,0.8-0.7,1.2-1.2c-0.2,0.3-0.3,0.5-0.4,0.7C2.4,50,3,49.3,3,50.2C3,50.3,3,50.2,3,50.2z"/>
	<path class="st0" d="M61.5,72.2c-0.1-0.4-0.1-0.6-0.2-0.6c0.2,0,0.3,0,0.5,0c0.5-0.2,0.9-0.4,1.4-0.5c0.1,0,0.3,0,0.5,0
		c0,0.1,0,0.2,0,0.2c-0.2,0-0.4,0.1-0.5,0.1C62.6,71.7,62.1,71.9,61.5,72.2z"/>
	<path class="st0" d="M34.3,67c0-0.3,0-0.4,0-0.5c0.3,0.2,0.5,0.3,0.8,0.5c-0.2,0.2-0.4,0.3-0.7,0.5c0.3,0,0.5,0,0.7,0.1
		c0,0,0,0.1,0,0.1c-0.3,0-0.5,0-0.8,0c0-0.2,0-0.3,0-0.6c-0.1,0-0.3,0-0.4,0c-0.1,0.3-0.2,0.5-0.3,0.9c0-0.4-0.1-0.7-0.1-1
		C33.6,67,33.9,67,34.3,67z"/>
	<path class="st0" d="M153.1,0.8c-0.4,0-0.7,0-1.1,0c0-0.1,0-0.2,0-0.2c0.8-0.1,1.6-0.3,2.4-0.4c0,0,0.1,0.2,0.1,0.4
		C154,0.6,153.6,0.8,153.1,0.8C153.1,0.9,153.1,0.8,153.1,0.8z"/>
	<path class="st0" d="M148,69.3c0.5-0.1,1.1-0.3,1.6-0.4c0.5-0.1,1.1-0.1,1.6-0.2c0,0.1,0,0.2,0,0.3c-1.1,0.2-2.1,0.3-3.2,0.5
		C148,69.4,148,69.4,148,69.3z"/>
	<path class="st0" d="M208.7,63.5c0.3,0.3,0.5,0.5,0.8,0.8c-0.2,0-0.3,0.1-0.6,0.1c0.5,0.4,0.9,0.7,1.3,1c-0.1,0.2-0.1,0.1-0.7-0.2
		c-0.3-0.2-0.6-0.3-0.8-0.4C208.7,64.4,208.7,64,208.7,63.5z"/>
	<path class="st0" d="M195.6,7.8c0.5-0.1,1-0.2,1.6-0.3c0.4-0.1,0.8-0.1,1.2-0.1c0,0.2,0,0.5,0.1,0.7c-0.8-0.6-1.6-0.5-2.5-0.3
		C195.8,7.8,195.7,7.8,195.6,7.8L195.6,7.8z"/>
	<path class="st0" d="M193,2.8c0,0.1,0.1,0.1,0.1,0.2c-0.3,0-0.6,0.1-0.9,0c-0.1,0-0.3-0.3-0.4-0.6c0.6-0.1,1.1-0.1,1.6-0.1
		c0,0,0,0.1,0,0.1C193.3,2.5,193.1,2.6,193,2.8z"/>
	<path class="st0" d="M202.7,14.4c0.3-0.4,0.4-1.2,1.1-0.9c-0.2,0.1-0.3,0.2-0.5,0.4c0.2,0.1,0.3,0.1,0.5,0.2c0,0.1,0,0.1,0,0.2
		c-0.3,0.1-0.7,0.3-1,0.4C202.7,14.6,202.7,14.5,202.7,14.4z"/>
	<path class="st0" d="M69.5,66.7c0.7,0.1,1.4,0.3,2.1,0.4c0,0.1,0,0.2,0,0.3c-0.2,0-0.5,0.1-0.7,0c-0.3,0-0.5-0.1-0.8-0.2
		c-0.2-0.1-0.5-0.2-0.7-0.3C69.5,66.8,69.5,66.8,69.5,66.7z"/>
	<path class="st0" d="M203.5,1.9c-0.8,0.1-1.6,0.2-2.4,0.3c0-0.1,0-0.2,0-0.3c0.8-0.1,1.6-0.2,2.4-0.3
		C203.5,1.7,203.5,1.8,203.5,1.9z"/>
	<path class="st0" d="M79.1,2.8c0.4-0.2,0.7-0.4,1.1-0.6c0.3-0.2,0.6-0.1,0.7,0.6C80.2,2.8,79.7,2.8,79.1,2.8
		C79.1,2.8,79.1,2.8,79.1,2.8z"/>
	<path class="st0" d="M186.5,2.2c0.9,0,1.9,0,2.8,0c0,0-0.1,0.3-0.1,0.3c-0.9,0-1.8,0-2.7-0.1C186.5,2.4,186.5,2.3,186.5,2.2z"/>
	<path class="st0" d="M210.8,27.6c0.2,0,0.4,0.1,0.5,0.1c-0.3,0-0.4,0.9-0.8,0.5c0,0.1-0.1,0.2-0.1,0.2c-0.2-0.2-0.4-0.4-0.7-0.6
		c0.3-0.1,0.5-0.2,0.8-0.2C210.7,27.6,210.7,27.6,210.8,27.6z"/>
	<path class="st0" d="M216.7,46.6c-0.1,0.1-0.2,0.2-0.3,0.2c-0.2-0.2-0.3-0.3-0.4-0.5c0.2-0.7,0.6-0.5,1-0.7c0,0.2,0,0.5,0,0.7
		C216.8,46.4,216.7,46.5,216.7,46.6z"/>
	<path class="st0" d="M11.9,63.8c-0.1-0.1-0.2-0.2-0.3-0.2c0-0.1,0-0.1,0.1-0.2c0.2,0.1,0.5,0.3,0.8,0.4c0.1,0,0.2-0.1,0.4-0.2
		c0.1,0.1,0.4,0.2,0.6,0.3c-0.5,0.1-1.2,0.2-1.8,0.3C11.7,64.1,11.8,64,11.9,63.8z"/>
	<path class="st0" d="M6,34.8c-0.3,0.1-0.3,0.3,0,0.4c0.4,0.1,0.8,0,1.2,0c0.1,0,0.2,0.1,0.3,0.1c0,0.1,0,0.3,0,0.4
		c-0.7-0.1-1.4-0.2-2-0.3c0-0.1,0-0.2,0-0.4C5.6,34.9,5.8,34.9,6,34.8C6,34.8,6,34.8,6,34.8z"/>
	<path class="st0" d="M216.4,34.7c0.1-0.5,0.1-1.1,0.1-1.7c0-0.1,0.2-0.2,0.3-0.2c0.2,0,0.4,0.1,0.5,0.1c-0.1,0.3-0.3,0.6-0.5,1
		c0,0,0-0.1,0-0.1C216.7,34,216.5,34.3,216.4,34.7C216.4,34.7,216.4,34.7,216.4,34.7z"/>
	<path class="st0" d="M211.9,61.9c-0.6,0.1-1.2,0.3-1.8,0.4c0-0.1,0-0.2,0-0.3c0.3-0.1,0.7-0.2,1-0.3c0.3-0.1,0.6-0.2,0.9-0.3
		c0,0,0.1,0.2,0.1,0.3C212,61.8,211.9,61.9,211.9,61.9z"/>
	<path class="st0" d="M211.2,21.8c0.4-0.8,0.9-1.4,1.7-1C212.2,20.9,211.7,21.4,211.2,21.8z"/>
	<path class="st0" d="M219.6,34.3c-0.8,0.1-1.6,0.3-2.4,0.4c0-0.1,0-0.2,0-0.2c0.8-0.1,1.6-0.2,2.4-0.4
		C219.6,34.1,219.6,34.2,219.6,34.3z"/>
	<path class="st0" d="M34,68.7c0.4-0.2,0.8-0.5,1.2-0.7c0,0,0,0.1,0,0.1c0,0.1-0.1,0.2-0.2,0.3c0.2,0.1,0.3,0.1,0.4,0.1
		c0,0,0,0.1,0,0.1c-0.5,0.1-0.9,0.2-1.4,0.2C34,68.8,34,68.8,34,68.7z"/>
	<path class="st0" d="M83.3,2.4c0.7-0.3,1.4-0.6,2.1-0.3l0,0c-0.4,0.2-0.7,0.3-1.1,0.5C84,2.5,83.6,2.4,83.3,2.4L83.3,2.4z"/>
	<path class="st0" d="M189.7,2.4c0.6,0,1.2,0,1.8,0c0,0.1,0,0.1,0,0.2c-0.6,0-1.2,0-1.8,0C189.7,2.5,189.7,2.5,189.7,2.4z"/>
	<path class="st0" d="M219.7,56.6c-0.4-0.1-0.7-0.3-1.2-0.5c0.3-0.1,0.4-0.2,0.7-0.3c-0.1-0.2-0.1-0.3-0.2-0.7
		c0.3,0.2,0.5,0.4,0.7,0.5c0,0,0,0.1,0,0.1c-0.1,0-0.2,0-0.5,0c0.3,0.3,0.4,0.5,0.6,0.6C219.8,56.5,219.8,56.6,219.7,56.6z"/>
	<path class="st0" d="M222.1,40.8c-0.7,0.5-1.3-0.3-1.9-0.3c0.3-0.3,0.3-0.3,0.9,0C221.4,40.6,221.8,40.7,222.1,40.8z"/>
	<path class="st0" d="M201.6,1.1c0.6-0.1,1.3-0.1,1.9-0.2c0,0.1,0,0.2,0,0.3c-0.6,0.1-1.3,0.1-1.9,0.2
		C201.6,1.3,201.6,1.2,201.6,1.1z"/>
	<path class="st0" d="M192.5,68.2c0.8,0,1.6,0,2.3,0c0,0.1,0,0.1,0,0.2c-0.8,0-1.6,0-2.3,0C192.5,68.3,192.5,68.2,192.5,68.2z"/>
	<path class="st0" d="M6.5,30.6c0.6,0.1,1,0.1,1.1,0.8c-0.3,0-0.6,0-0.8,0c0,0,0-0.1,0-0.1c0.1-0.1,0.2-0.2,0.4-0.4
		C6.9,30.8,6.8,30.7,6.5,30.6z"/>
	<path class="st0" d="M152,67.4c-0.8,0.1-1.5,0.2-2.3,0.3c0-0.1,0-0.1,0-0.2c0.8-0.1,1.5-0.3,2.3-0.4C152,67.2,152,67.3,152,67.4z"
		/>
	<path class="st0" d="M141.8,67.9c-0.7,0.1-1.5,0.3-2.2,0.4c0-0.1,0-0.1,0-0.2c0.7-0.2,1.5-0.3,2.2-0.5
		C141.7,67.8,141.7,67.8,141.8,67.9z"/>
	<path class="st0" d="M217.6,13.5c-0.6,0.1-1.2,0.2-1.8,0.3c0-0.1,0-0.2,0-0.3c0.6-0.1,1.2-0.2,1.8-0.3
		C217.6,13.3,217.6,13.4,217.6,13.5z"/>
	<path class="st0" d="M142.5,1.2c-0.6,0-1.2,0-1.8,0c0-0.1,0-0.1,0-0.2c0.6,0,1.2,0,1.8,0C142.5,1.1,142.5,1.2,142.5,1.2z"/>
	<path class="st0" d="M148.5,71.9c-0.3,0-0.5,0-0.8-0.1c-0.3,0-0.5-0.1-0.8-0.2C147.5,71.1,148,71.4,148.5,71.9z"/>
	<path class="st0" d="M64.9,70.8c0.5,0,0.9-0.1,1.4-0.1C65.9,71.2,65.2,71.3,64.9,70.8z"/>
	<path class="st0" d="M7.8,30.9c0.6,0,1.3,0,1.9,0c0,0.1,0,0.2,0,0.2c-0.6,0-1.3,0-1.9,0C7.8,31,7.8,31,7.8,30.9z"/>
	<path class="st0" d="M107.6,70.2c0.7-0.1,1.4-0.3,2.1-0.4c0,0.1,0,0.2,0,0.2c-0.7,0.1-1.4,0.3-2.1,0.4
		C107.6,70.3,107.6,70.3,107.6,70.2z"/>
	<path class="st0" d="M199.9,15.1c-0.1-0.1-0.3-0.1-0.4-0.2c0-0.1,0-0.2,0-0.2c0.4-0.1,0.8-0.3,1.2-0.4c0,0.1,0,0.1,0,0.2
		C200.5,14.7,200.2,14.9,199.9,15.1C199.8,15.1,199.9,15.1,199.9,15.1z"/>
	<path class="st0" d="M146.3,71.6c-0.4,0-0.8,0-1.2,0C145.5,71.2,145.9,71,146.3,71.6z"/>
	<path class="st0" d="M192.5,67.5c0.8,0,1.5,0,2.3,0c0,0,0,0.1,0,0.1c-0.8,0-1.5,0-2.3,0C192.5,67.6,192.5,67.6,192.5,67.5z"/>
	<path class="st0" d="M221.8,47.5c-0.5,0.1-0.9,0.1-1.4,0.2c0-0.1,0-0.1,0-0.2c0.5-0.1,0.9-0.2,1.4-0.3
		C221.7,47.3,221.8,47.4,221.8,47.5z"/>
	<path class="st0" d="M82.4,70.5c0.5-0.5,1-0.2,1.6-0.2c0,0.1,0,0.2,0,0.2C83.5,70.5,83,70.5,82.4,70.5z"/>
	<path class="st0" d="M136.8,71.2c-0.3,0.1-0.5,0.2-0.8,0.3c-0.1-0.2-0.1-0.4-0.2-0.8c0.3,0.1,0.7,0.1,1,0.2
		C136.8,71,136.8,71.1,136.8,71.2z"/>
	<path class="st0" d="M5,36.2c-0.8,0-1.6,0-2.4,0c0-0.1,0-0.1,0-0.2c0.8,0,1.6,0,2.4,0C5,36.1,5,36.2,5,36.2z"/>
	<path class="st0" d="M144.4,0.9c-0.3,0.5-1.1,0.6-1.6,0.2C143.3,1,143.8,0.9,144.4,0.9z"/>
	<path class="st0" d="M208.2,1.2c-0.4,0.1-0.4,0.1-0.5-1.2c0.2,0.1,0.4,0.2,0.5,0.3c0,0-0.1,0.1-0.1,0.1
		C208.2,0.7,208.2,0.9,208.2,1.2z"/>
	<path class="st0" d="M200,4.4c0,0.1,0,0.3,0,0.4c-0.5,0-1-0.1-1.5-0.1c0-0.2,0.2-0.3,0.7-0.3C199.4,4.5,199.7,4.4,200,4.4z"/>
	<path class="st0" d="M67.4,72.6c-0.5-0.1-1.1-0.1-1.6-0.2c0-0.1,0-0.2,0-0.3c0.5,0,1,0.1,1.6,0.1C67.4,72.3,67.4,72.4,67.4,72.6z"
		/>
	<path class="st0" d="M146.2,69.8c0-0.1,0-0.4,0-0.4c0.3,0,0.7-0.1,1-0.1c0,0.1,0,0.2,0,0.3c-0.2,0-0.4,0.1-0.6,0.1
		C146.5,69.8,146.4,69.8,146.2,69.8C146.2,69.8,146.2,69.8,146.2,69.8z"/>
	<path class="st0" d="M27.8,2.7c0.4-0.5,1-0.5,1.5,0C28.8,2.7,28.3,2.7,27.8,2.7z"/>
	<path class="st0" d="M147,71c0.5-0.4,1-0.5,1.6,0.2C148,71.1,147.5,71,147,71z"/>
	<path class="st0" d="M196.3,4.7c-0.8,0-1.5,0-2.3,0c0-0.1,0-0.1,0-0.2c0.8,0,1.5,0,2.3,0C196.3,4.6,196.3,4.7,196.3,4.7z"/>
	<path class="st0" d="M165.1,69.9c-0.5,0-1,0-1.5,0c0-0.1,0-0.1,0-0.2c0.5,0,1,0,1.5,0C165.1,69.7,165.1,69.8,165.1,69.9z"/>
	<path class="st0" d="M188.6,69.5c0.7-0.2,1.4-0.3,2.1-0.5c0,0.1,0,0.1,0,0.2c-0.7,0.1-1.4,0.3-2.1,0.4
		C188.6,69.7,188.6,69.6,188.6,69.5z"/>
	<path class="st0" d="M32.8,7C32.2,7,31.6,6.9,31,6.8c0-0.1,0-0.2,0-0.3c0.6,0.1,1.2,0.2,1.8,0.2C32.8,6.9,32.8,6.9,32.8,7z"/>
	<path class="st0" d="M181,3.7c-0.6,0.1-0.6,0.1-0.6-0.5c0.3-0.1,0.7-0.1,1.1-0.2C181.3,3.2,181.1,3.4,181,3.7z"/>
	<path class="st0" d="M114.8,70.9c-0.6,0.3-1.1,0.6-1.7,0.9c0-0.1,0-0.1-0.1-0.2c0.6-0.3,1.1-0.6,1.7-0.9
		C114.7,70.8,114.7,70.8,114.8,70.9z"/>
	<path class="st0" d="M205.6,9c0.1,0,0.2-0.1,0.3-0.1c0,0,0-0.1,0-0.1c-0.3-0.1-0.6-0.2-1-0.3c0.3,0,0.5-0.1,0.7-0.1
		c0.2,0,0.3,0.1,0.5,0.2c0,0,0.1,0.4,0,0.4c-0.1,0.1-0.3,0.2-0.4,0.3C205.7,9.2,205.7,9.1,205.6,9z"/>
	<path class="st0" d="M182.3,64.5c0.4,0,0.9-0.1,1.3-0.1c0,0.1,0,0.2,0,0.2c-0.4,0-0.9,0.1-1.3,0.1
		C182.4,64.7,182.3,64.6,182.3,64.5z"/>
	<path class="st0" d="M138.8,70.9c-0.5,0-1,0-1.4,0C137.7,70.5,138.4,70.5,138.8,70.9z"/>
	<path class="st0" d="M56.4,71.4c0.4,0,0.9,0,1.3,0c0,0.1,0,0.1,0,0.2c-0.4,0-0.9,0-1.3,0C56.4,71.5,56.4,71.4,56.4,71.4z"/>
	<path class="st0" d="M203.3,7.9c-0.4-0.1-0.9-0.1-1.4-0.2C202.5,6.8,202.9,7.6,203.3,7.9z"/>
	<path class="st0" d="M65.4,72.3c-0.5,0-0.9,0-1.3,0C64.4,71.9,64.8,71.6,65.4,72.3z"/>
	<path class="st0" d="M1,57.1c-0.3,0.1-0.7,0.2-1,0.4c0-0.3,0.2-0.7,0.8-0.7C0.9,56.9,1,57,1,57.1z"/>
	<path class="st0" d="M201.9,4.5c-0.1,0.2-0.2,0.3-0.3,0.5c0.1,0,0.1,0.1,0.2,0.2c0,0.1,0,0.1,0,0.2c-0.3-0.1-0.5-0.3-0.8-0.4
		c0,0,0-0.1,0-0.1C201.2,4.7,201.5,4.6,201.9,4.5z"/>
	<path class="st0" d="M6,33.2c-0.5,0.1-1.1,0.2-1.6,0.3c0-0.1,0-0.2,0-0.3C4.9,33.1,5.4,32.9,6,33.2z"/>
	<path class="st0" d="M195.6,7.8L195.6,7.8c-0.5,0-1,0-1.5,0c0-0.1,0-0.2,0-0.4C194.6,7.6,195.1,7.7,195.6,7.8z"/>
	<path class="st0" d="M199.4,14.4c-0.1,0.6-0.5,0.8-1.1,0.6C198.6,14.8,199,14.6,199.4,14.4z"/>
	<path class="st0" d="M71.8,2c0.4,0,0.9-0.1,1.3-0.1c0,0.1,0,0.2,0,0.2c-0.4,0.1-0.9,0.2-1.3,0.2C71.8,2.2,71.8,2.1,71.8,2z"/>
	<path class="st0" d="M137.4,1c0.6,0,1.3,0,1.9,0c0,0,0,0.1,0,0.1c-0.6,0-1.3,0-1.9,0C137.4,1.1,137.4,1,137.4,1z"/>
	<path class="st0" d="M87.7,1.6c0.3-0.2,0.6-0.3,0.9-0.5c0.1,0,0.1,0.2,0.3,0.4c-0.5,0.1-0.9,0.2-1.3,0.2
		C87.7,1.7,87.7,1.7,87.7,1.6z"/>
	<path class="st0" d="M144.4,2.8c0-0.2,0-0.4,0.1-0.6c0.3,0,0.6,0.1,0.9,0.1c0,0.1,0,0.1,0,0.2C145,2.6,144.7,2.7,144.4,2.8z"/>
	<path class="st0" d="M109.2,1.1c0.3-0.1,0.6-0.3,0.9-0.3c0.1,0,0.2,0.3,0.3,0.6C110,1.3,109.6,1.2,109.2,1.1
		C109.2,1.2,109.2,1.1,109.2,1.1z"/>
	<path class="st0" d="M204.3,15.1c-0.5,0.1-1,0.2-1.5,0.3c0-0.1,0-0.2,0-0.3c0.5,0,1-0.1,1.5-0.1C204.3,15.1,204.3,15.1,204.3,15.1z
		"/>
	<path class="st0" d="M217.1,59.5c-0.5,0.2-1,0.5-1.4,0.7c0-0.1,0-0.2-0.1-0.3c0.5-0.2,1-0.4,1.4-0.7C217,59.4,217,59.4,217.1,59.5z
		"/>
	<path class="st0" d="M4.5,63.2c0.3,0.1,0.7,0.1,1,0.2c0,0.1,0,0.1,0,0.2c-0.3,0-0.5,0.1-0.8,0c-0.1,0-0.2-0.2-0.3-0.3
		C4.4,63.3,4.5,63.3,4.5,63.2z"/>
	<path class="st0" d="M55.7,71.9c-0.3,0.1-0.6,0.2-0.9,0.3c0,0,0-0.1,0-0.1c0.1-0.1,0.2-0.1,0.3-0.2c-0.2,0-0.3-0.1-0.5-0.1
		c0-0.1,0-0.1,0-0.2c0.3,0.1,0.7,0.1,1,0.2C55.7,71.7,55.7,71.8,55.7,71.9z"/>
	<path class="st0" d="M204.9,11c0.5-0.3,1.1-0.5,1.6-0.8c0,0.1,0,0.2,0.1,0.3C206,10.7,205.4,10.8,204.9,11
		C204.9,11,204.9,11,204.9,11z"/>
	<path class="st0" d="M77.6,67.4c-0.4-0.1-0.9-0.3-1.3-0.4c0,0,0-0.1,0-0.1c0.5,0.1,0.9,0.1,1.4,0.2C77.6,67.2,77.6,67.3,77.6,67.4z
		"/>
	<path class="st0" d="M218,66.9c-0.5,0-1,0-1.5,0c0,0,0-0.1,0-0.1c0.5,0,1,0,1.5,0C218,66.8,218,66.9,218,66.9z"/>
	<path class="st0" d="M206.6,12.9c-0.5,0.2-0.9,0.5-1.4,0.7c0-0.1,0-0.2-0.1-0.2c0.5-0.2,0.9-0.5,1.4-0.7
		C206.6,12.8,206.6,12.9,206.6,12.9z"/>
	<path class="st0" d="M217.5,12.8c-0.5,0.1-1.1,0.2-1.6,0.3c0-0.1,0-0.2,0-0.3c0.5-0.1,1.1-0.2,1.6-0.3
		C217.5,12.6,217.5,12.7,217.5,12.8z"/>
	<path class="st0" d="M90.3,69.5c0.3,0,0.7,0,1,0c0,0.1,0,0.1,0,0.2c-0.3,0-0.7,0-1,0C90.3,69.7,90.3,69.6,90.3,69.5z"/>
	<path class="st0" d="M198.2,21c0-0.3,0-0.6,0-0.9c0-0.3,0.1-0.5,0.2-0.8c-0.1,0-0.3,0-0.4,0c0.2,0.9-0.1,1.4-0.9,1.7
		c0.3,0.5,0.7,0.4,1,0.4c0.3,0,0.7,0,1-0.1c0,0.1,0,0.2,0,0.2c-0.1,0.1-0.2,0.2-0.2,0.2c-1.1,0.1-2.2,0.1-3.2,0.2
		c-0.7,0-1.5,0.1-2.2,0.2c-0.1,0-0.2-0.1-0.2-0.2c-0.3-0.6-0.3-0.6-0.8-0.6c0-0.1,0-0.2,0-0.2c1.2-0.1,2.3-0.2,3.5-0.3
		c0,0.1,0,0.1,0,0.2c-0.9,0.1-1.7,0.3-2.6,0.4c0,0.1,0,0.2,0,0.3c1.2-0.1,2.4-0.2,3.6-0.3c0-0.1,0-0.1,0-0.2
		c-0.2-0.2-0.5-0.4-0.7-0.6c0.2-0.1,0.4-0.4,0.6-0.6c0-0.1-0.1-0.2-0.1-0.2c-0.2,0-0.3,0-0.5,0.1c0.3-0.2,0.6-1,0.7-1.4
		c-0.2-0.1-0.4-0.3-0.6-0.4c1.7-0.7,6.2-0.6,7,0.2c-0.1,0.1-0.2,0.3-0.5,0.5c0.4,0.1,0.6,0.1,1,0.2c-0.2,0.2-0.3,0.3-0.5,0.4
		c0.3,0.2,0.5,0.4,0.8,0.5c0,0.1,0,0.1-0.1,0.2c-1.1,0.1-2.1,0.3-3.3,0.4c0.2-0.1,0.3-0.1,0.4-0.2c0-0.1,0-0.1,0-0.2
		c-0.3,0-0.6,0-0.8,0.1c-0.3,0.1-1.1,0-1.4-0.3c0-0.1-0.1-0.1-0.2-0.1c-0.1,0.1-0.2,0.2-0.2,0.3C198.5,20.8,198.5,20.8,198.2,21z
		 M201.9,18.5c-0.4,0-0.6,0.1-0.9,0.1c0.3,0.2,0.4,0.3,0.6,0.4c-0.3,0.1-0.4,0.2-0.5,0.2c0.1,0.2,0.3,0.3,0.4,0.5
		c0.2-0.2,0.4-0.3,0.7-0.6c-0.3,0-0.4,0-0.7,0C201.6,19,201.7,18.8,201.9,18.5z"/>
	<path class="st0" d="M194.2,59.2c0-0.3,0-0.6-0.1-1c0.7-0.1,1.3-0.3,2-0.4c-0.1,0.1-0.1,0.3-0.2,0.4c0,0.1,0,0.1,0.1,0.2
		c0.2-0.2,0.4-0.5,0.6-0.5c0.2-0.1,0.4,0.1,0.6,0.2c0,0,0-0.1,0-0.4c0.2,0.2,0.4,0.4,0.6,0.4c0.3-0.1,0.5-0.2,0.8-0.2
		c0.5-0.1,1,0.1,1.5-0.1c0.2-0.1,0.3-0.2,0.5-0.4c0.1,0.1,0.2,0.2,0.4,0.4c-0.2,0.2-0.3,0.3-0.5,0.5c0,0,0,0.1,0,0.1
		c0.1-0.1,0.3-0.1,0.4-0.2c0.1,0,0.3,0,0.5,0.1c0,0.1,0,0.1,0,0.2c-0.9,0.1-1.8,0.2-2.7,0.3c0,0.1,0,0.2,0,0.2c0.3,0,0.6,0,0.9,0
		c0,0.1,0,0.1,0,0.2c-0.4,0.1-0.7,0.1-1.1,0.2c0,0.1,0,0.2,0,0.3c0.2,0,0.3,0.1,0.5,0.1c0,0.1,0,0.1,0,0.2c-1.2,0.1-2.4,0.3-3.6,0.4
		c0-0.2,0-0.3,0-0.5c0.4-0.1,0.9-0.1,1.3-0.2c-1.2-0.6-2.1,0.9-3.3,0.7c0.1,0.1,0.3,0.1,0.4,0.2c0,0.1,0,0.1,0,0.2
		c-0.3,0-0.6-0.1-1-0.1c-0.9,0.6-1.9,0-2.9,0.2c0-0.4,0-0.7,0.1-1c1.7,0,3.3,0,5,0C194.7,59.6,194.5,59.4,194.2,59.2L194.2,59.2z"/>
	<path class="st0" d="M216.9,45.7c-0.3,0.2-0.8,0-1,0.7c0,0.1,0.1,0.2,0.1,0.3c-0.4,0.1-0.8,0.2-1.2,0.3c0,0.1,0,0,0-0.2
		c-0.3,0.2-0.6,0.5-0.8,0.6c-0.2-0.4-0.3-0.8-0.4-0.9c-0.4-0.2-0.9,0-1,0.4c0.3,0,0.6-0.1,1-0.1c0,0.4-0.1,0.8-0.1,1.2
		c0,0.1-0.1,0.2-0.2,0.3c-0.1-0.1-0.1-0.3-0.2-0.4c-0.3,0.2-0.7,0.3-1.1,0.6c0.2,0.1,0.4,0.1,0.6,0.2c0,0.1,0,0.1,0,0.2
		c-0.2,0-0.4,0.1-0.7,0.1c0-0.3,0-0.6,0-0.9c0-0.2-0.1-0.5-0.1-0.8c-0.1,0.4-0.2,0.6-0.3,0.9c0,0-0.1,0-0.1,0c0-0.2,0-0.4,0-0.6
		c-0.2,0-0.5,0-0.7-0.1c0-0.1,0-0.1,0-0.2c0.4-0.5,1,0.2,1.4-0.3c0-0.1,0-0.1,0-0.2c-0.2,0-0.4,0-0.6,0c1.4-0.4,2.9-0.6,4.3-1.8
		c0.1,0.2,0.2,0.4,0.3,0.6c0.3-0.2,0.5-0.3,0.8-0.5C216.7,45.2,216.8,45.4,216.9,45.7z"/>
	<path class="st0" d="M211.4,48.1C211.4,48.1,211.4,48.1,211.4,48.1c0.1,0.2,0.5,0.5,0.1,0.7c0.1,0.1,0.2,0.3,0.3,0.4
		c0.2,0.1,0.3,0,0.5,0c0,0.1,0,0.2,0,0.3c-0.6,0.2-1.1,0.3-1.7,0.5c0,0.1,0,0.2,0.1,0.3c-0.2,0-0.5,0-0.7,0c0,0,0-0.1,0-0.1
		c0.1-0.1,0.3-0.1,0.5-0.2c-0.1-0.3-0.2-0.6-0.4-0.8c-0.3,0.2-0.5,0.4-0.7,0.6l0,0c0-0.5-0.2-0.4-0.3-0.2c-0.3,0.2-0.2,0.1-0.5-0.2
		c-0.3-0.5-0.7-0.8-1.2-0.7c-0.2,0.1-0.4,0-0.5-0.3c0.1,0,0.2-0.1,0.3-0.2c-0.1-0.1-0.1-0.3-0.2-0.4c0,0,0.1-0.1,0.1-0.1
		c0.4,0,0.9-0.1,1.3-0.1c0.2,0,0.4-0.3,0.4,0.3c0,0,0.2,0.1,0.3,0.1c0.5-0.1,1-0.3,1.4-0.1C210.7,48,211.1,47.4,211.4,48.1z"/>
	<path class="st0" d="M55.2,67c0-0.2,0-0.4,0-0.4c0.7,0,1.4,0,2.1,0c-0.3,0.5-0.5,0.8-0.9,0.7c-0.3-0.1-0.6,0.2-0.9,0.2
		c-0.3,0-0.6-0.1-0.8-0.1c-0.1,0-0.3,0-0.4,0c-0.1,0.1-0.3,0.3-0.4,0.3c-1.1-0.3-2.2,0.3-3.4,0c-0.5-0.1-1.1,0.1-1.6,0
		c-0.4-0.1-0.7-0.5-0.9-0.8c0.6,0,1.3,0,1.9,0c0.5,0,1,0.1,1.5-0.2c0.2-0.1,0.6,0.1,0.9,0.2c0.7,0.1,1.3,0.1,2,0.2
		C54.5,66.9,54.8,67,55.2,67z"/>
	<path class="st0" d="M202.6,58.8c0-0.2-0.1-0.4-0.1-0.7c0.1,0,0.3-0.1,0.5-0.1c-0.2-0.1-0.3-0.2-0.4-0.3c0-0.1,0.1-0.2,0.1-0.2
		c1,0.4,1.9-0.7,3-0.5c0.6,0.1,1.2,0.1,1.7,0.3c-0.2,0-0.3,0-0.5,0.1c0.2,0.2,0.4,0.3,0.5,0.4c0,0.1,0,0.1,0,0.2
		c-0.4,0-0.7,0.1-1.1,0.1c0,0,0,0.1,0,0.4c-0.3-0.1-0.6,0-0.9,0.3c-0.1,0.1-0.4,0.1-0.6-0.1C203.7,57.7,203.5,57.7,202.6,58.8z"/>
	<path class="st0" d="M73.5,3.6c-0.4,0-0.7-0.1-1.1-0.1c-0.6,0-1.2,0-1.8,0c-0.9,0-1.8-0.2-2.7-0.2c-0.7,0-1.4,0.3-2.1,0.3
		c-1,0.1-2,0-3,0C63.1,3.2,64,3,64.5,3c1.2,0.1,2.4,0,3.6,0.1c0.8,0,1.6,0.1,2.4,0.1c0.7,0,1.4,0.1,2,0.1c0.3,0,0.7,0,1,0
		C73.5,3.4,73.5,3.5,73.5,3.6z"/>
	<path class="st0" d="M97,67.2c0.6,0.2,1,0.3,1.5,0.4c0.4,0,0.8-0.1,1.2-0.2c0.5-0.2,1-0.4,1.2,0.7c-0.7,0.2-1.4,0.6-2.2,0.2
		c-0.1,0-0.2,0-0.2,0C97.7,68.6,97.5,68.5,97,67.2z"/>
	<path class="st0" d="M211.7,55.8c-0.1-0.4-0.1-0.7-0.2-1c0.4-0.1,0.8-0.2,1.2-0.3c0,0,0,0,0,0c0.1-0.8,0.6-0.7,0.9-1
		c0.5-0.6,0.6,0,0.8,0.3c-0.3,0.4-0.5,0.8-0.8,1.1c0.1,0,0.2,0.1,0.5,0.2c-0.5,0.3-1,0.4-1.4,0.6c0-0.1-0.1-0.1-0.1-0.2
		c0-0.2,0.1-0.4,0.1-0.5c0-0.1,0-0.1-0.1-0.2C212.4,55.1,212.1,55.4,211.7,55.8z"/>
	<path class="st0" d="M203,61.2c1.1-0.2,2.2-0.5,3.3-0.7c0.1,0,0.3,0.1,0.4,0.1c0,0.1,0,0.1,0,0.2c-0.2,0-0.4,0.1-0.5,0.1
		c0,0,0,0.1,0,0.1c0.2,0.1,0.4,0.2,0.6,0.2c0,0.1,0.1,0.1,0.1,0.2c-0.1,0.1-0.2,0.2-0.3,0.2c-0.9,0.1-1.8,0.3-2.7,0.4
		c-0.1,0-0.3-0.1-0.5-0.2c0.9-0.2,1.7-0.4,2.5-0.6c0,0,0-0.1,0-0.1c-0.7,0.1-1.4,0.2-2,0.3C203.6,61.4,203.3,61.3,203,61.2L203,61.2
		z"/>
	<path class="st0" d="M205.2,49.9c0-0.3,0-0.5,0-0.8c1-0.7,1.9,0,2.9,0.3c-0.4,0.3-0.9-0.5-1.2,0.7c0.4-0.1,0.7-0.2,0.9-0.3
		c0,0.1,0,0.1,0.1,0.2c-0.3,0.2-0.6,0.6-1,0.7c-0.4,0.1-0.8,0-1.3,0c0.4-0.2,0.7-0.4,1.1-0.6c0-0.1,0-0.2,0-0.2
		c-0.3,0.1-0.7,0.2-1.1,0.3c0.1-0.2,0.1-0.3,0.2-0.5C205.6,49.6,205.4,49.7,205.2,49.9L205.2,49.9z"/>
	<path class="st0" d="M170.8,66.9c-0.7,0.1-1.3,0.3-2,0.4c0,0.1,0,0.2,0,0.3c0.5,0,1,0,1.6,0c0,0.1,0,0.1,0,0.2c-1,0-2,0-2.9,0
		c0-0.1,0-0.1,0-0.2c0.1-0.1,0.3-0.3,0.5-0.5c-0.8-0.1-1.6-0.2-2.4-0.2c0,0,0,0,0-0.1c0.9-0.1,1.7-0.3,2.6-0.3
		c0.9,0,1.8,0.2,2.7,0.3C170.8,66.9,170.8,66.9,170.8,66.9z"/>
	<path class="st0" d="M83.3,2.4c0.3,0.1,0.7,0.1,1.1,0.2c0.3-0.2,0.7-0.3,1.1-0.5c0.1,0.3,0.2,0.6,0.3,0.9c-0.1,0.1-0.3,0.2-0.5,0.3
		c0,0.1,0,0.1,0,0.2c0.3,0,0.6,0.1,0.9,0.1c0,0,0,0.1,0,0.1c-0.7,0-1.3,0-2.1,0c0.4-0.1,0.7-0.2,0.9-0.3c0-0.1,0-0.1,0-0.2
		c-0.7,0.3-1.2-0.5-1.9-0.1c-0.4,0.2-0.9,0-1.4,0c0-0.1,0-0.2,0-0.4C82.2,2.6,82.7,2.5,83.3,2.4z"/>
	<path class="st0" d="M172.2,67.4c0.9,0.1,1.7,0.2,2.6,0.2c0,0,0,0.1,0,0.1c-0.1,0.1-0.2,0.2-0.2,0.2c-0.6,0-1.2-0.1-1.8-0.1
		c-0.1,0-0.3-0.1-0.4-0.1c-0.2,0-0.5,0.5-0.6-0.1c-0.1-0.6,0.2-1.2,0.6-1.2c0.6,0,1.3,0.1,1.9,0.2c0.1,0,0.2,0.2,0.3,0.5
		c-0.8,0-1.5,0-2.3,0C172.3,67.3,172.2,67.4,172.2,67.4z"/>
	<path class="st0" d="M210.3,57.1c-0.2,0.3-1.1,0.7-1.3,0.6c-0.5-0.3-0.9-0.6-1.4-0.9c0.8,0.4,1.3-0.2,2-0.8
		c-0.5-0.1-0.8-0.1-1.1-0.1c0,0,0-0.1,0-0.1c0.7-0.1,1.4-0.2,2.2-0.3c0,0,0,0.1,0,0.1c-0.1,0.1-0.3,0.1-0.5,0.3
		c0.3,0.1,0.5,0.2,0.7,0.2c0,0.1,0,0.1,0,0.2c-0.6,0.1-1.1,0.2-1.7,0.3c0,0,0,0.1,0,0.1c0.2,0.1,0.4,0.1,0.6,0.2c0,0,0,0.1,0,0.1
		c-0.3,0.1-0.5,0.2-0.8,0.3c0,0,0,0.1,0,0.1C209.5,57.2,209.9,57.2,210.3,57.1L210.3,57.1z"/>
	<path class="st0" d="M54.7,6.3c-2.3,0.2-4.6,0.3-6.9-0.2c2.3,0,4.6,0,6.9,0C54.7,6.1,54.7,6.2,54.7,6.3z"/>
	<path class="st0" d="M203.1,22.3c0.1-0.1,0.2-0.1,0.3-0.2c-0.1-0.1-0.1-0.1-0.2-0.1c0-0.1,0-0.1,0-0.2c0.3,0.1,0.7,0.3,1,0.4
		c0.2,0,0.3-0.1,0.5-0.1c0-0.1,0-0.2,0-0.2c-0.2,0-0.4,0-0.7-0.1c0.4-0.5,0.8-0.4,1.1,0c-0.1,0.2-0.3,0.3-0.5,0.6
		c0.8-0.2,1.6-0.4,2.3-0.6c0,0.1,0,0.1,0.1,0.2c-0.1,0.1-0.2,0.3-0.3,0.3c-0.7,0.2-1.5,0.7-2.2,0.6c-0.5-0.1-0.8,0.4-1.4,0.4
		c0.1-0.3,0.1-0.4,0.2-0.5c-0.1-0.1-0.3-0.2-0.4-0.3C203.1,22.4,203.1,22.4,203.1,22.3z"/>
	<path class="st0" d="M30.8,64.4c0.6-0.1,1.2-0.3,1.9-0.3c0.6,0,1.2,0,1.8,0.1c1.1,0,2.2,0.1,3.2,0.3C35.3,64.4,33,64.4,30.8,64.4
		C30.7,64.4,30.8,64.4,30.8,64.4z"/>
	<path class="st0" d="M205.1,49.8c-0.3,0.2-0.5,0.4-0.9,0.7c0.4,0,0.7,0.1,1,0.1c0,0,0,0.1,0,0.1c-0.1,0-0.2,0.1-0.4,0.1
		c-0.4,0.1-0.8,0.1-1.2,0.2c-0.2,0-0.5,0-0.2-0.6c-0.3,0.1-0.7,0.1-1,0.2c0-0.1,0-0.2,0-0.3c0.8,0.2,1.2-1.4,2.2-0.9
		c-0.1,0-0.3,0.1-0.4,0.1c0,0.1,0,0.1,0,0.2C204.6,49.9,204.9,49.9,205.1,49.8L205.1,49.8z"/>
	<path class="st0" d="M185.4,25.9c-1.2,0-2.5,0.6-3.7-0.4c0.2-0.4,1.9-0.6,2.4-0.2c-0.1,0.1-0.2,0.2-0.3,0.3
		C184.4,25.7,184.9,25.8,185.4,25.9z"/>
	<path class="st0" d="M203.1,22.3c0,0.1,0,0.1,0,0.2c-0.4,0-0.8,0-1.2,0c0,0.1,0,0.2,0,0.2c0.4,0.1,0.8,0.1,1.2,0.2
		c0,0.1,0,0.1,0,0.2c-0.5,0-1,0-1.6,0c0.1-0.3,0.2-0.4,0.3-0.5c0,0-0.1-0.1-0.1-0.1c-0.1,0.1-0.3,0.2-0.4,0.4
		c-0.2,0.8-0.2,0.9-0.9,0.6c0.2-0.1,0.3-0.2,0.6-0.4c-0.3-0.2-0.5-0.4-0.8-0.5c0-0.1,0-0.1,0-0.2c0.6-0.1,1.1-0.1,1.8-0.2
		c-0.1-0.1-0.2-0.1-0.2-0.1c0.3-0.4,0.7-0.3,0.9,0.1C202.8,22.2,203,22.2,203.1,22.3z"/>
	<path class="st0" d="M83.8,4.1c-0.4,0.1-0.8,0.3-1.1,0.3c-1.3,0-2.5,0-3.8-0.1c-0.1,0-0.1,0-0.2,0c0-0.1,0-0.2,0-0.2
		c1.7-0.1,3.4-0.2,5.1-0.3C83.8,3.9,83.8,4,83.8,4.1z"/>
	<path class="st0" d="M196.9,53.1c-0.3-0.1-0.5-0.1-0.8-0.2c0-0.1,0-0.2,0-0.2c0.8,0.1,1.5,0.1,2.3,0.2c0,0.1,0,0.1,0,0.2
		c-0.2,0-0.4,0.1-0.6,0.1c0,0.1,0,0.1,0,0.2c0.2,0.1,0.4,0.1,0.7,0.2c-0.2,0.5-1.2,0.5-2.2-0.1c0.2,0,0.4-0.1,0.6-0.1
		C196.9,53.3,196.9,53.2,196.9,53.1z"/>
	<path class="st0" d="M210.1,61.3c-0.3,0.1-0.6,0.2-0.9,0.3c-0.6,0.1-1.2,0.1-1.8,0.2c-0.1,0-0.1-0.1-0.2-0.2c0.7-0.1,1.3-0.2,2-0.3
		c0,0,0-0.1,0-0.1c-0.5,0-1.1,0-1.6,0c0-0.1,0-0.1,0-0.2c0.4-0.3,0.9-0.5,1.3-0.8c0,0.1,0,0.1,0,0.2c0.2,0.1,0.4,0.2,0.6,0.3
		C209.4,61.1,209.7,61.3,210.1,61.3C210.1,61.3,210.1,61.3,210.1,61.3z"/>
	<path class="st0" d="M117.6,67.9c0.1,0.1,0.2,0.1,0.3,0.2c-0.4,0.1-0.8,0.3-1.1,0.3c-0.1,0-0.2-0.3-0.2-0.5c0-0.2,0.1-0.6,0.2-0.6
		c0.6,0,1.1,0,1.7,0.1c0.2,0,0.4,0.1,0.6,0.2c0,0.1,0,0.2,0,0.3C118.6,67.9,118.1,67.9,117.6,67.9z"/>
	<path class="st0" d="M103.2,67.3c0.1-0.1,0.1-0.4,0.2-0.4c0.4-0.1,0.8-0.1,1.2-0.2c0.6,0,1.1,0,1.7,0.1c-0.6,0.2-1,0.9-1.7,0.5
		c-0.2-0.1-0.4,0.2-0.6,0.2C103.7,67.7,103.4,68.1,103.2,67.3L103.2,67.3z"/>
	<path class="st0" d="M105.3,65.8c-1.1,0.1-2.1,0.8-3.3,0.6C103.1,65.3,104.2,65.6,105.3,65.8z"/>
	<path class="st0" d="M208.4,55.2c1.3-1.2,2.1-1.2,2.9-0.7c-0.2,0.2-0.4,0.4-0.7,0.5c-0.4,0.2-0.9,0.7-1.4,0.2
		C209,54.9,208.7,55.1,208.4,55.2z"/>
	<path class="st0" d="M107,66.4c1.6-0.2,3.2-0.4,4.7-0.6c0.1,0.2,0.1,0.4,0.2,0.7C110.3,66.5,108.7,66.5,107,66.4
		C107,66.5,107,66.5,107,66.4z"/>
	<path class="st0" d="M202.5,11.3c-1.6,0-3.3,0-4.9,0c0-0.1,0-0.2,0-0.3c1.6,0,3.2,0,4.9,0C202.5,11.2,202.5,11.2,202.5,11.3z"/>
	<path class="st0" d="M194.1,19.6c-0.4-0.1-0.8-0.1-1.3-0.2c-0.4,0-0.8-0.1-1.2-0.1c0-0.1,0-0.2,0-0.2c1,0.1,2,0.1,3,0.3
		c0.5,0.1,1,0,1.6,0.1c-0.3,0.6-1.1,0.8-1.5,0.3C194.6,19.6,194.3,19.6,194.1,19.6L194.1,19.6z"/>
	<path class="st0" d="M188.5,13.9c0.7-0.2,1.5-0.4,2.2-0.6c0,0.1,0.1,0.2,0.1,0.3c-0.1,0.1-0.3,0.2-0.4,0.3c0.1,0.1,0.2,0.2,0.3,0.3
		c0,0.1-0.1,0.1-0.1,0.2c0,0.1-0.1,0.1-0.1,0.1c-0.7,0-1.3-0.9-2-0.3C188.4,14.2,188.5,14,188.5,13.9z"/>
	<path class="st0" d="M215.6,53.3c0,0,0.1,0,0.2,0.1c-0.2,0.8-0.6,0.3-1.1,0.2c0.3-0.2,0.4-0.3,0.6-0.4c-0.2-0.2-0.3-0.3-0.5-0.5
		c0-0.1,0-0.1,0-0.2c0.6-0.1,1.1-0.1,1.7-0.2c0,0.1,0,0.1,0,0.2C216.1,52.8,215.8,53,215.6,53.3z"/>
	<path class="st0" d="M212.6,43c0.6-0.2,1.1-0.4,1.7-0.5c0-0.1,0-0.2,0-0.2c-0.5,0.1-1.1,0.1-1.6,0.2c0-0.1,0-0.1,0-0.2
		c0.2-0.1,0.4-0.3,0.6-0.2c0.5,0.1,0.9,0.1,1-0.9c0.1,0.3,0.2,0.6,0.2,0.9c0,0.6-0.3,0.8-0.7,0.9c-0.4,0.1-0.8,0.2-1.2,0.2
		C212.6,43.2,212.6,43.1,212.6,43z"/>
	<path class="st0" d="M7.9,25.4c1.5-0.2,2.9-0.4,4.4-0.5c0,0.1,0,0.2,0,0.3c-1.5,0.1-2.9,0.3-4.4,0.4C7.9,25.5,7.9,25.5,7.9,25.4z"
		/>
	<path class="st0" d="M175.2,66.2c-1.1,0.4-2.1,0.3-3.1-0.2c1,0,2.1,0,3.1,0C175.2,66,175.2,66.1,175.2,66.2z"/>
	<path class="st0" d="M146.7,4c1-0.2,2.1-0.3,3.2-0.5c-0.1,0.4-0.2,0.7-0.6,0.6c-0.8-0.1-1.7,0-2.5,0C146.7,4.1,146.7,4.1,146.7,4z"
		/>
	<path class="st0" d="M138.8,3.3c0,0,0,0.2,0,0.5c-0.9-0.2-1.8-0.3-2.7-0.5c0-0.1,0-0.2,0-0.4C137,3.1,137.9,3.2,138.8,3.3z"/>
	<path class="st0" d="M125.1,3.6c-0.5,0-0.9,0-1.3,0c0.1-0.3,0.1-0.5,0.2-0.8c0.3-0.1,0.7-0.3,1.3-0.5c-0.2,0.4-0.3,0.6-0.4,0.8
		c-0.1,0-0.3-0.1-0.4-0.1c0,0,0,0.1,0,0.1C124.7,3.1,124.8,3.3,125.1,3.6z"/>
	<path class="st0" d="M123.6,3.5c-0.6,0-1,0-1.5,0c0-0.1,0-0.2,0-0.2c0.1,0,0.3,0,0.4-0.1c0,0,0-0.1,0-0.1c-0.2,0-0.3-0.1-0.6-0.2
		C122.5,2.5,123.3,2.7,123.6,3.5z"/>
	<path class="st0" d="M197,63.1c0.8,0,1.7,0,2.5,0c0,0.1,0,0.2,0,0.2c-0.8,0-1.7,0-2.5,0C197,63.3,197,63.2,197,63.1z"/>
	<path class="st0" d="M67,4.3c0.2,0.1,0.5,0.1,0.9,0.2c0,0.1,0,0.1,0,0.2c-0.9,0-1.9,0-2.7,0C65.7,4.6,66.3,4.5,67,4.3z"/>
	<path class="st0" d="M194.2,59.2c-0.2,0.1-0.5,0.3-0.7,0.3c-0.5,0.1-1,0.2-1.6,0.1c-0.4,0-0.8-0.1-1.3-0.2c0-0.1,0-0.2,0-0.2
		C191.9,59.2,193,59.2,194.2,59.2C194.2,59.2,194.2,59.2,194.2,59.2z"/>
	<path class="st0" d="M202.4,52.1c-0.2,0.1-0.2,0.2-0.3,0.3c0.2,0.1,0.3,0.3,0.5,0.5c-0.7,0.1-1.2,0.1-1.7,0.2c0-0.1,0-0.2,0-0.2
		c0.4,0,0.7-0.1,1.2-0.1c-0.2-0.2-0.2-0.4-0.4-0.5c-0.1-0.1-0.3-0.2-0.4-0.4C201.5,51.9,201.9,52,202.4,52.1z"/>
	<path class="st0" d="M186.1,59.8c0.1,0,0.3,0.2,0.6,0.3c-0.2,0.2-0.5,0.5-0.7,0.7c0-0.1-0.1-0.1-0.1-0.2c0.1-0.1,0.1-0.1,0.2-0.2
		c0-0.1,0-0.1,0-0.2c-0.2,0.1-0.4,0.2-0.6,0.2c-0.1,0-0.3-0.1-0.4-0.1c0.1-0.1,0.2-0.3,0.3-0.3C185.6,59.9,185.8,59.9,186.1,59.8z"
		/>
	<path class="st0" d="M23,63.6c-0.7,0.1-1.4,0.2-2.1,0.2c0-0.1,0-0.2,0-0.3c0.7-0.3,1.4,0,2.1-0.2C23,63.4,23,63.5,23,63.6z"/>
	<path class="st0" d="M151.2,3.6c1,0,2,0,3.1,0c0,0.1,0,0.1,0,0.2c-1,0-2.1,0-3.1,0C151.2,3.8,151.2,3.7,151.2,3.6z"/>
	<path class="st0" d="M103.2,67.3c-0.1,0-0.2,0.1-0.4,0.1c0.1,0.1,0.2,0.3,0.2,0.4c0,0.1,0,0.1,0,0.2c-0.7-0.1-1.4-0.3-2.1-0.4
		c0-0.1,0-0.2,0-0.3c0.1,0,0.3,0.1,0.4,0c0.4,0,0.9-0.1,1.3-0.1C102.9,67.3,103,67.3,103.2,67.3C103.2,67.3,103.2,67.3,103.2,67.3z"
		/>
	<path class="st0" d="M210.3,57.1c0.1,0,0.2-0.1,0.3-0.1c0,0,0-0.1,0-0.1c-0.2,0-0.4,0-0.6-0.1c0-0.1,0-0.1,0-0.2
		c0.5-0.1,0.9-0.2,1.4-0.3c0,0.1,0,0.1,0,0.2c-0.2,0.1-0.4,0.2-0.6,0.3c0,0.1,0,0.1,0,0.2c0.2-0.1,0.3-0.1,0.5-0.2
		c0,0.1,0,0.2,0,0.3C211.1,56.9,210.7,57.8,210.3,57.1C210.3,57.1,210.3,57.1,210.3,57.1z"/>
	<path class="st0" d="M213.3,51.9c-0.1-0.3-0.2-0.5-0.2-0.7c0-0.1,0.1-0.3,0.1-0.3c0.2-0.1,0.3-0.1,0.5-0.1c0.1,0,0.2,0.2,0.5,0.3
		C213.9,51.3,213.6,51.6,213.3,51.9z"/>
	<path class="st0" d="M208.2,55.6c-0.4,0.8-1.1,0.9-2,0.4C207,55.9,207.6,55.8,208.2,55.6z"/>
	<path class="st0" d="M215,39.9c-0.5,0.2-0.9,0.4-1.3,0.5c0.1-0.3,0.2-0.5,0.3-0.8c-0.1-0.1-0.1-0.2-0.2-0.2c0,0,0-0.1,0-0.1
		C214.2,39.5,214.5,39.7,215,39.9z"/>
	<path class="st0" d="M203.1,61.2c-0.7,0.8-1.5,0.8-2.3,0.4c0.1,0,0.3,0,0.4,0c0.2,0,0.3,0,0.5,0c0.4,0,0.9,0,1.1-0.8
		c0,0,0.1,0,0.2-0.1C203,60.9,203,61.1,203.1,61.2C203,61.2,203.1,61.2,203.1,61.2z"/>
	<path class="st0" d="M62.1,5.8c-0.8,0-1.5,0-2.3,0c0-0.1,0-0.1,0-0.2c0.8,0,1.5,0,2.3,0C62.1,5.7,62.1,5.7,62.1,5.8z"/>
	<path class="st0" d="M31.1,8.4c-0.1-0.2-0.1-0.3-0.2-0.5c0.6,0.1,1.3,0.1,2,0.2c0,0.1,0,0.1,0,0.2C32.3,8.3,31.7,8.4,31.1,8.4
		C31.1,8.4,31.1,8.4,31.1,8.4z"/>
	<path class="st0" d="M191.5,28.1c1,0,2,0,3,0c0,0,0,0,0,0.1c-1,0.1-2,0.2-3,0.2C191.5,28.2,191.5,28.1,191.5,28.1z"/>
	<path class="st0" d="M192.2,58.8c0.6-0.6,1.4-0.6,1.7,0C193.3,58.8,192.8,58.8,192.2,58.8z"/>
	<path class="st0" d="M136.3,3.7c-0.4,0-0.7,0-1,0c-0.1,0-0.2-0.2-0.2-0.3c0-0.1,0.1-0.3,0.2-0.4C135.8,2.8,136.1,3,136.3,3.7z"/>
	<path class="st0" d="M44.9,6.4c0.8-0.5,1.5-0.2,2.2-0.3c0,0.1,0,0.2,0,0.3C46.4,6.4,45.7,6.4,44.9,6.4z"/>
	<path class="st0" d="M206.2,18.2c-0.7,0.1-1.4,0.2-2.1,0.3c0-0.1,0-0.2,0-0.3c0.7-0.1,1.4-0.2,2.1-0.3
		C206.2,17.9,206.2,18,206.2,18.2z"/>
	<path class="st0" d="M122.6,4c-0.8,0-1.5,0-2.3,0c0.7-0.3,1.5-0.2,2.3-0.2C122.6,3.9,122.6,4,122.6,4z"/>
	<path class="st0" d="M197.1,26c-0.7,0-1.4,0-2.1,0c0-0.1,0-0.1,0-0.2c0.7,0,1.4,0,2.1,0C197.1,25.9,197.1,26,197.1,26z"/>
	<path class="st0" d="M113.6,2.5c0.6,0.1,1.2,0.2,1.8,0.3C114.8,3.3,114.2,2.6,113.6,2.5z"/>
	<path class="st0" d="M77.4,65.3c0.7,0,1.5,0,2.2,0c0,0.1,0,0.1,0,0.2c-0.7,0-1.5,0-2.2,0C77.4,65.4,77.4,65.4,77.4,65.3z"/>
	<path class="st0" d="M212.5,53.3c-0.6,0.2-1.1,0.5-1.7,0.7c0-0.1,0-0.2-0.1-0.3c0.6-0.3,1.1-0.5,1.7-0.8
		C212.4,53.1,212.5,53.2,212.5,53.3z"/>
	<path class="st0" d="M144.1,66.7c0.1-0.1,0.2-0.2,0.4-0.3c-0.1-0.1-0.2-0.1-0.4-0.3c0.4,0,0.7,0,1.1,0
		C145.1,66.9,144.9,67.1,144.1,66.7z"/>
	<path class="st0" d="M197.8,12.3c0.7-0.4,1.7-0.4,1.9,0.1C199.1,12.4,198.5,12.3,197.8,12.3z"/>
	<path class="st0" d="M194.1,19.6c0.1,0.1,0.3,0.2,0.5,0.4c-0.7,0-1.3,0-1.9,0c0-0.1,0-0.2,0-0.3C193.2,19.6,193.7,19.6,194.1,19.6
		C194.1,19.6,194.1,19.6,194.1,19.6z"/>
	<path class="st0" d="M204.8,24.6c-0.6,0-1.2,0-1.7,0c0.6-0.2,1.2-0.5,1.8-0.3C204.8,24.4,204.8,24.5,204.8,24.6z"/>
	<path class="st0" d="M214.5,43.7c0-0.2,0.1-0.4,0.1-0.9c0.3,0.2,0.5,0.4,0.8,0.6c0,0.1,0,0.2-0.1,0.2
		C215.1,43.7,214.8,43.7,214.5,43.7z"/>
	<path class="st0" d="M151.2,66.2c0.5,0,1.1-0.8,1.6,0.2C152.3,66.3,151.8,66.2,151.2,66.2z"/>
	<path class="st0" d="M84.3,65.5c-0.7,0-1.5,0-2.2,0c0-0.1,0-0.1,0-0.2c0.7,0,1.5,0,2.2,0C84.3,65.4,84.3,65.4,84.3,65.5z"/>
	<path class="st0" d="M78.4,4.3c-0.8,0-1.6,0-2.4,0c0-0.1,0-0.1,0-0.2c0.8,0,1.6,0,2.4,0C78.4,4.2,78.4,4.3,78.4,4.3z"/>
	<path class="st0" d="M204.4,56.3c0.5,0,0.9,0,1.4,0c0,0.1,0,0.2,0,0.3c-0.5,0.1-0.9,0.1-1.4,0.2C204.4,56.6,204.4,56.5,204.4,56.3z
		"/>
	<path class="st0" d="M11.4,20c0.6-0.1,1.2-0.1,1.8-0.1C12.8,20.3,12,20.4,11.4,20z"/>
	<path class="st0" d="M119.2,66.2c-0.6,0-1.1,0-1.7,0c0-0.1,0-0.1,0-0.2c0.6,0,1.1,0,1.7,0C119.2,66.1,119.2,66.2,119.2,66.2z"/>
	<path class="st0" d="M209.3,49.7c0.1,0.2,0.2,0.4,0.3,0.7c-0.4,0-0.7,0-1.1,0c0-0.1,0-0.1,0-0.2C208.8,50.1,209.1,49.9,209.3,49.7
		C209.3,49.7,209.3,49.7,209.3,49.7z"/>
	<path class="st0" d="M53.7,65.8c0.4,0,0.7,0.1,1.2,0.2C54.4,66.8,54,66,53.7,65.8z"/>
	<path class="st0" d="M195.4,24.2c-0.6,0.1-1.2,0.1-1.8,0.2c0-0.1,0-0.2,0-0.2c0.6-0.1,1.2-0.1,1.8-0.2
		C195.4,24,195.4,24.1,195.4,24.2z"/>
	<path class="st0" d="M119.5,3c0.4-0.1,0.8-0.2,1.3-0.2c0,0.2,0,0.4,0,0.6c-0.4-0.1-0.8-0.2-1.2-0.3C119.5,3.1,119.5,3.1,119.5,3z"
		/>
	<path class="st0" d="M119.2,65.6c-0.6,0-1.1,0-1.7,0c0-0.1,0-0.1,0-0.2c0.5,0,1.1,0,1.7,0C119.2,65.5,119.2,65.5,119.2,65.6z"/>
	<path class="st0" d="M200,28.4c-0.4,0-0.8,0-1.3,0c0-0.1,0-0.1,0-0.2c0.4,0,0.8,0,1.3,0C200,28.3,200,28.4,200,28.4z"/>
	<path class="st0" d="M201.6,23.9c-0.2,0.2-0.5,0.3-0.8,0.5c-0.1-0.1-0.3-0.2-0.5-0.5c0.5-0.1,0.9-0.1,1.3-0.2
		C201.6,23.8,201.6,23.9,201.6,23.9z"/>
	<path class="st0" d="M138.8,4.2c0.5-0.4,1.1,0.4,1.4-0.7c0.1,0.2,0.3,0.4,0.5,0.7C140,4.2,139.4,4.2,138.8,4.2z"/>
	<path class="st0" d="M48.8,64.2c0.6,0,1.1,0.1,1.7,0.1c0,0,0,0.1,0,0.1c-0.6,0-1.1,0-1.7,0C48.8,64.3,48.8,64.2,48.8,64.2z"/>
	<path class="st0" d="M100.6,3.4c-0.5,0.1-1,0.1-1.7,0.2C99.5,3,100,3.1,100.6,3.4z"/>
	<path class="st0" d="M215.3,55c-0.4,0.2-0.8,0.4-1.2,0.7c0.2-0.8,0.7-0.7,1.1-0.9C215.3,54.9,215.3,54.9,215.3,55z"/>
	<path class="st0" d="M193.6,20.4c0.6,0,1.1,0,1.7,0c0,0.1,0,0.1,0,0.2c-0.6,0-1.1,0-1.7,0C193.6,20.6,193.6,20.5,193.6,20.4z"/>
	<path class="st0" d="M208,20.8c0.4,0.1,0.8,0.1,1.2,0.2c0,0.1,0,0.2,0,0.2c-0.4,0-0.8-0.1-1.2-0.1C208,21,208,20.9,208,20.8z"/>
	<path class="st0" d="M204,62.7c-0.5,0-0.9,0-1.4,0C202.9,62.1,203.1,62.1,204,62.7z"/>
	<path class="st0" d="M203.3,29.3c-0.4,0.1-0.9,0.2-1.3,0.2c0-0.1,0-0.2,0-0.3c0.4-0.1,0.9-0.2,1.3-0.3
		C203.3,29.1,203.3,29.2,203.3,29.3z"/>
	<path class="st0" d="M123.1,3.9c0.5,0,1.1,0,1.6,0c0,0.1,0,0.1,0,0.2c-0.5,0-1.1,0-1.6,0C123.1,4,123.1,4,123.1,3.9z"/>
	<path class="st0" d="M209.8,24.3c-0.4,0.1-0.8,0.2-1.1,0.2c0-0.1,0-0.3,0-0.4c0.4-0.1,0.8-0.1,1.2-0.2
		C209.8,24.1,209.8,24.2,209.8,24.3z"/>
	<path class="st0" d="M161.3,67.3c-0.3-0.1-0.7,0.4-0.9-0.4C160.8,66.9,161.1,66.6,161.3,67.3z"/>
	<path class="st0" d="M196.8,63.5c-0.4,0-0.7-0.1-1.1-0.1c0-0.1,0-0.1,0-0.2c0.4,0,0.7,0,1.1,0C196.8,63.3,196.8,63.4,196.8,63.5z"
		/>
	<path class="st0" d="M207.7,38.6c-0.4,0.1-0.7,0.1-1.1,0.2c0-0.1,0-0.2,0-0.3c0.4-0.1,0.7-0.2,1.1-0.3
		C207.7,38.4,207.7,38.5,207.7,38.6z"/>
	<path class="st0" d="M113.8,65.6c0.3,0,0.6,0.1,1,0.1c0,0.1,0,0.2,0,0.4c-0.3,0-0.6-0.1-1-0.1C113.7,65.9,113.8,65.7,113.8,65.6z"
		/>
	<path class="st0" d="M82,66.4c-0.4,0-0.8,0-1.2,0c0-0.1,0-0.1,0-0.2C81.2,66.2,81.7,65.7,82,66.4C82,66.4,82,66.4,82,66.4z"/>
	<path class="st0" d="M136.3,66.5c0.6,0,1.2,0,1.7,0c0,0,0,0.1,0,0.1c-0.6,0-1.2,0.1-1.7,0.1C136.3,66.6,136.3,66.5,136.3,66.5z"/>
	<path class="st0" d="M205.1,25.3c-0.6-0.1-1.1-0.1-1.7-0.2c0,0,0-0.1,0-0.1c0.6,0,1.1,0,1.7,0C205.1,25.1,205.1,25.2,205.1,25.3z"
		/>
	<path class="st0" d="M106.4,65.6c-0.4,0-0.7-0.1-1.1-0.1c0-0.1,0-0.1,0-0.2c0.4,0,0.7,0,1.1,0C106.5,65.4,106.5,65.5,106.4,65.6z"
		/>
	<path class="st0" d="M60.6,66.9c0.5,0,0.9,0,1.4,0c0,0.1,0,0.1,0,0.2c-0.5,0-0.9,0-1.4,0C60.6,67,60.6,67,60.6,66.9z"/>
	<path class="st0" d="M201.9,18.5c-0.2,0.3-0.3,0.4-0.4,0.6c0.3,0,0.4,0,0.7,0c-0.3,0.3-0.5,0.4-0.7,0.6c-0.1-0.1-0.2-0.3-0.4-0.5
		c0.1,0,0.2-0.1,0.5-0.2c-0.2-0.2-0.4-0.3-0.6-0.4C201.3,18.6,201.5,18.6,201.9,18.5z"/>
</g>
</svg>
