<?xml version="1.0" encoding="utf-8"?>
<!-- Generator: Adobe Illustrator 23.0.3, SVG Export Plug-In . SVG Version: 6.00 Build 0)  -->
<svg version="1.1" id="Camada_1" xmlns="http://www.w3.org/2000/svg" xmlns:xlink="http://www.w3.org/1999/xlink" x="0px" y="0px"
	 viewBox="0 0 90 65" style="enable-background:new 0 0 90 65;" xml:space="preserve">
<style type="text/css">
	.st0{fill:#FFFFFF;}
	.st1{fill:#418E72;}
	.st2{fill:none;}
</style>
<g>
	<path class="st0" d="M61.4,53.1c-0.2,0.3-0.6,0.4-1.1,0.5c-0.5,0.1-1.1,0-1.8-0.2l-0.1,3.1l2.5-0.3c0,0.4,0,0.7-0.3,0.9
		c-0.2,0.2-0.5,0.3-1,0.4c-0.5,0.1-0.9,0-1.4-0.2L58.1,62l-1.7,0.2l0.6-9.5l4.7-0.6C61.7,52.5,61.6,52.9,61.4,53.1"/>
	<path class="st0" d="M65.2,51.5c1-0.1,1.8-0.1,2.4,0.2c0.6,0.3,0.9,0.9,1,1.8c0.1,0.8,0,1.6-0.4,2.2c-0.4,0.6-0.9,1-1.6,1.3
		c0.5,0.9,1.1,1.7,1.5,2.2c0.5,0.5,0.9,0.9,1.2,1c0,0.3-0.1,0.5-0.3,0.6c-0.2,0.1-0.4,0.2-0.7,0.3c-0.4,0.1-0.8-0.1-1.2-0.3
		c-0.3-0.3-0.7-0.7-1.1-1.4c-0.4-0.6-0.9-1.6-1.5-2.8c0.1,0,0.2,0,0.4,0c0.7-0.1,1.2-0.4,1.5-0.8c0.3-0.4,0.4-1,0.3-1.8
		c-0.1-0.6-0.2-1-0.5-1.2c-0.3-0.2-0.6-0.3-1.1-0.3c-0.3,0-0.5,0.1-0.8,0.2l-0.6,8.6l-1.7,0.2l0.6-9.5
		C63.7,51.7,64.5,51.6,65.2,51.5"/>
	<path class="st0" d="M76.1,55.9c-0.1,1.4-0.4,2.5-0.9,3.2c-0.5,0.7-1.3,1.2-2.4,1.3c-0.8,0.1-1.5,0-2-0.3c-0.5-0.3-0.8-0.9-0.9-1.6
		c-0.1-0.4-0.1-1,0-1.6l0.4-5.9l1.7-0.2l-0.4,6.1c0,0.7,0,1.1,0,1.4c0,0.4,0.2,0.7,0.4,0.9c0.2,0.2,0.6,0.3,1,0.2
		c0.6-0.1,1.1-0.4,1.3-0.9c0.2-0.5,0.4-1.3,0.4-2.2l0.3-5.8l1.5-0.2L76.1,55.9z"/>
	<polygon class="st0" points="80,49.8 79.3,59.4 77.7,59.6 78.3,50 	"/>
	<path class="st0" d="M86.2,49c0.2-0.1,0.4-0.1,0.5-0.2c0.1,0.1,0.1,0.2,0.2,0.3c0.1,0.1,0.1,0.2,0.1,0.3c0,0.3-0.1,0.5-0.3,0.7
		c-0.2,0.1-0.6,0.2-1,0.3l-1,0.1l-0.5,6.9c0,0.3,0,0.5,0,0.7c0,0.2,0.1,0.4,0.2,0.6c-0.3,0.3-0.6,0.4-0.9,0.5c-0.3,0-0.5,0-0.7-0.2
		c-0.1-0.1-0.2-0.4-0.3-0.7c0-0.3,0-0.6,0-0.9l0.5-6.7l-0.9,0.1c-0.2,0-0.4,0.1-0.6,0.1c-0.2,0.1-0.4,0.1-0.5,0.2
		c-0.1-0.1-0.1-0.2-0.2-0.3c-0.1-0.1-0.1-0.2-0.1-0.3c0-0.3,0.1-0.5,0.3-0.7c0.3-0.1,0.6-0.2,1-0.3l3.5-0.4
		C85.8,49.1,86,49.1,86.2,49"/>
	<path class="st1" d="M28.6,16.5c0,0-0.8-0.8-1.4-2c-0.4-0.9-0.5-1.4-0.4-2.3c0.1-0.7,0.5-1.6,0.8-2c0.3-0.4,0.7-0.8,0.7-0.8
		c-0.6,1-1.1,2.1-1.2,2.9c-0.1,0.9,0.1,1.6,0.3,2.2C27.9,15.4,28.6,16.5,28.6,16.5"/>
	<path class="st0" d="M4.3,33.8c0.3-0.6,0.8-1.1,1.4-1.5c0.6-0.4,1.4-0.6,2.2-0.7c1.1-0.1,2,0.1,2.6,0.6c0.7,0.5,1.3,1.4,1.9,2.7
		l2.2,4.6l4.8-8.4l4.3-0.4L16.4,43l3.1,6.5c0.4,0.8,0.9,1.5,1.4,2.1c0.6,0.6,1.1,0.9,1.6,1c-0.2,0.7-0.6,1.3-1.3,1.8
		c-0.6,0.5-1.4,0.7-2.2,0.8c-1.2,0.1-2.1-0.2-2.8-0.8c-0.7-0.7-1.4-1.7-2.1-3L12,47.1l-4.7,8.5L3,56l7.3-12.4l-3.2-6.7
		C6.3,35.1,5.3,34.1,4.3,33.8"/>
	<path class="st0" d="M28.1,32.7c0.5,0.3,0.8,0.8,0.8,1.4c0.1,0.7-0.1,1.2-0.6,1.6c-0.5,0.4-1.1,0.6-1.9,0.7c-0.8,0.1-1.4,0-1.9-0.3
		c-0.5-0.3-0.8-0.8-0.9-1.4c-0.1-0.7,0.1-1.2,0.6-1.6c0.5-0.4,1.1-0.7,1.9-0.7C26.9,32.3,27.6,32.4,28.1,32.7 M27,50
		c0,0.5-0.1,0.9,0,1.2c0,0.4,0.2,0.7,0.4,0.9c0.2,0.2,0.5,0.3,0.9,0.3c-0.1,0.6-0.4,1.1-0.9,1.4c-0.5,0.3-1.1,0.6-1.8,0.6
		c-0.8,0.1-1.5-0.1-2-0.4c-0.5-0.4-0.8-1-0.9-1.7c0-0.5,0-1.3,0.1-2.4c0.1-1.1,0.2-2,0.2-2.8l0.8-7.8l4.5-0.9L27,50z"/>
	<path class="st0" d="M35.6,38.2c0.8-0.5,1.8-0.9,2.9-1c2.5-0.2,3.9,0.8,4.2,3.1c0.1,0.7,0.1,1.4,0,2.3c-0.1,0.9-0.2,1.9-0.4,3.2
		c-0.1,1-0.3,1.8-0.3,2.4c-0.1,0.6-0.1,1,0,1.4c0,0.4,0.2,0.7,0.3,0.9c0.2,0.2,0.5,0.3,0.9,0.3c-0.1,0.6-0.4,1.1-0.9,1.4
		c-0.5,0.3-1.1,0.6-1.8,0.6c-0.8,0.1-1.5-0.1-2-0.5c-0.5-0.4-0.8-1-0.9-1.8c-0.1-0.5,0-1.1,0-1.8c0.1-0.7,0.2-1.7,0.4-3.1
		c0.3-2.3,0.5-3.8,0.4-4.6c0-0.5-0.2-0.9-0.5-1.2c-0.3-0.3-0.6-0.4-1.1-0.3c-0.9,0.1-1.5,0.6-1.9,1.6c-0.4,1-0.7,2.1-0.8,3.4
		l-0.8,8.5l-4.4,0.9l1.5-15.4l3.6-0.8l-0.1,2.7C34.1,39.5,34.8,38.7,35.6,38.2"/>
	<path class="st0" d="M51.7,37.8c-0.3-0.1-0.7-0.1-0.9-0.1c-0.8,0.1-1.5,0.6-2,1.5c-0.5,0.9-0.8,2-0.9,3.2c-0.1,1.2-0.2,2.3-0.1,3.3
		c0.1,0.7,0.2,1.2,0.5,1.6c0.3,0.4,0.7,0.5,1.2,0.4c1.5-0.1,2.3-1.6,2.6-4.3l0.5-5.3C52.4,38,52.1,37.9,51.7,37.8 M56.1,46.8
		c-0.2,2.4-0.6,4.3-1.1,5.8c-0.5,1.4-1.2,2.6-2.2,3.3c-1,0.8-2.3,1.3-4,1.4c-1.5,0.1-2.9,0-4-0.5c-1.1-0.5-1.8-1.3-1.9-2.4
		c-0.1-0.8,0.1-1.4,0.6-1.9c0.5-0.5,1.1-0.7,1.8-0.8c0.5,0,0.9,0,1.4,0.1c0.4,0.1,0.8,0.4,1.1,0.7c-0.2,0.2-0.3,0.4-0.4,0.7
		c-0.1,0.3-0.1,0.5-0.1,0.8c0,0.4,0.2,0.8,0.5,1.1c0.3,0.3,0.6,0.4,1.1,0.3c1-0.1,1.7-0.8,2.2-2c0.4-1.3,0.8-3.1,0.9-5.7
		c-0.4,0.6-1,1.1-1.7,1.5c-0.7,0.4-1.5,0.6-2.4,0.7c-1.3,0.1-2.4-0.1-3.2-0.8c-0.8-0.7-1.3-1.8-1.4-3.4c-0.2-1.5,0-3,0.6-4.5
		c0.5-1.4,1.4-2.6,2.6-3.6c1.2-1,2.6-1.5,4.2-1.7c0.9-0.1,1.9,0,2.8,0.3l3.7-0.8L56.1,46.8z"/>
	<path class="st0" d="M70.1,45.8c0,0.6,0,1,0,1.2c0,0.4,0.2,0.7,0.4,0.9c0.2,0.2,0.5,0.3,0.9,0.3c-0.1,0.6-0.4,1.1-0.9,1.4
		c-0.5,0.3-1.1,0.6-1.7,0.6c-0.6,0.1-1.1,0-1.6-0.3c-0.5-0.2-0.8-0.6-1-1.1c-0.8,1.2-2.2,1.9-4.1,2.1c-1.3,0.1-2.4-0.1-3.1-0.7
		c-0.8-0.6-1.2-1.5-1.3-2.8c-0.1-1,0-2.7,0.3-5.3l0.7-6.3l4.4-0.9l-0.8,7.1c-0.3,2.3-0.3,4-0.2,4.9c0.1,1.4,0.7,2,1.7,1.9
		c0.8-0.1,1.4-0.5,1.8-1.4c0.4-0.8,0.6-1.8,0.7-3l0.8-9.5l4.4-0.9L70.1,45.8z"/>
	<path class="st0" d="M45.4,30c-1.3,0.5-2.3,1-3,1c-0.3,0.1-0.5,0.2-0.8,0.2c-2.5,0.6-5.6,0.5-8.2-0.8c0.3,0.9,0.7,1.8,1.5,2.6
		c2.2,2.5,6.1,2.6,8.8,1.6c1.5-0.5,2.7-1.7,4.1-3c0.9-0.9,1.8-1.8,2.8-2.5c0.7-0.5,1.5-0.9,2.1-1.2c-0.4,0-0.9,0-1.3,0.1
		C49.2,28.4,47.1,29.3,45.4,30"/>
	<path class="st0" d="M57.8,18.2c0-2.4-0.4-3.5-1.1-5c-0.6-1.2-1.6-2.9-3.6-4.4c-1.9-1.4-2.8-1.6-4.8-2.1c-1.4-0.3-2.7-0.4-4.3-0.2
		c-2.2,0.3-4.1,1.1-4.1,1.1s2.5-1.2,4.7-1.5c1.5-0.2,2.8-0.1,4.4,0.2c1.7,0.3,3.2,1.1,4.3,1.8c1.1,0.8,1.9,1.6,2.6,2.5
		C56.4,11.6,57,13,57,13s0.5,1.6,0.7,2.4C57.9,17,57.8,18.2,57.8,18.2 M57.9,14.8c-0.2-1.1-0.8-2.5-1.3-3.5
		c-0.5-0.9-0.9-1.6-1.8-2.4c-0.9-0.8-2-1.7-2.8-2.1c-0.8-0.4-2.6-1.2-3.8-1.4C47,5.2,45.9,5.2,45,5.3c-1,0.1-2.5,0.4-3.6,0.8
		c-1.1,0.5-1.9,0.9-2.8,1.6c-1.5,1.1-2.4,2.6-2.4,2.6s0.9-0.7,3.9-0.9c1.5-0.1,3.2,0.2,4.9,0.7c1.7,0.5,2.9,1.3,3.7,1.4
		c0.9,0.2,1.5,0,1.9-0.1c1.2-0.2,1.7,0.1,1.6,0.6c-0.1,0.3-0.2,0.5-0.1,0.7c0.3,0.6,1.2,1.3,2.7,2.5c1.7,1.4,2.5,2.8,2.8,4.1
		c0.3,1.3,0,2.4-0.4,3.2c0,0,0.4-0.6,0.7-1.6c0.3-1.2,0.4-2.2,0.4-3C58.4,17.2,58.2,15.9,57.9,14.8"/>
	<path class="st0" d="M60.6,29.3c0.2-0.9-0.1-1.8-0.9-2.7c-1.1-1.3-2.6-2.9-6.9-2.9c0,0,0,0-0.1,0c-1.6,0-3.5,0.2-5.4,0.4
		c-1.7,0.2-3.2,0.3-4.5,0.3c-0.2,0-0.3,0-0.5,0c-2.3,0.1-5.4,0.2-8.2-2.6c-2-2-2.4-6.9-0.3-9.9c-2.4,2.1-4,5.3-4.4,7.2
		c-0.6,3.1-0.5,5.7,1.3,8.4c2.4,3.4,7.2,4,10.7,3.2c1.3-0.3,2.5-0.9,3.7-1.4c1.8-0.8,3.6-1.6,6-1.9c0.4,0,0.9-0.1,1.4-0.1
		c1.8,0,4.2,0.3,5.4,1.9c0.7,0.9,0.2,2-0.3,2.8C58.8,31.6,60.3,30.6,60.6,29.3"/>
	<path class="st0" d="M29.7,2.8c0,0-3.7,3.7-3.5,9c0.1,3.7,2.7,6.2,2.7,6.2s0.6-3.2,0.6-7C29.4,7,29.7,2.8,29.7,2.8"/>
	<path class="st0" d="M23.8,9.7c0,0-1.6,3.7,0.1,7.5c1.2,2.7,3.8,3.7,3.8,3.7s-0.5-2.5-1.6-5.2C24.8,12.9,23.8,9.7,23.8,9.7"/>
	<path class="st0" d="M21.3,17.7c0,0,0.2,3.5,2.9,5.7c1.9,1.6,4.3,1.4,4.3,1.4s-1.3-1.7-3.2-3.3C23.3,19.7,21.3,17.7,21.3,17.7"/>
	<path class="st0" d="M48.1,32.8c1.3-1.9,2.5-2.9,4.1-3.7c1.4-0.7,2.7-0.6,3.3-0.4c0.8,0.2,1.8,1.1,1.8,1.8c0.1,0.6-0.5,1.1-1,1.3
		c-0.8,0.2-2-0.3-3.4-0.4C49.8,31.3,48.1,32.8,48.1,32.8"/>
	<path class="st0" d="M55.4,23.8c1.5-0.8,2.7-1.2,4.1-1.2c1.2,0,2,0.5,2.4,0.8c0.5,0.4,0.8,1.4,0.7,1.8c-0.2,0.5-0.7,0.6-1.1,0.5
		c-0.6-0.1-1.3-0.9-2.2-1.4C57.1,23.3,55.4,23.8,55.4,23.8"/>
	<path class="st0" d="M41.5,16.5c0.1-1.6,0.4-2.6,1.1-3.6c0.6-0.9,1.3-1.2,1.7-1.3c0.5-0.1,1.4,0.1,1.6,0.5c0.2,0.4-0.5,0.7-0.9,0.9
		c-0.5,0.2-1.2,0.4-2,1C41.7,15,41.5,16.5,41.5,16.5"/>
	<rect x="-1.8" y="-14.3" class="st2" width="93.5" height="93.5"/>
</g>
</svg>
